<svg width="310" height="29" viewBox="0 0 310 29" fill="none" xmlns="http://www.w3.org/2000/svg">
<path d="M7.60295 4.42301C7.60295 4.29901 7.50995 4.20601 7.32395 4.14401C7.15862 4.08201 6.93129 4.05101 6.64195 4.05101C6.53862 4.05101 6.41462 4.06134 6.26995 4.08201C6.14595 4.08201 6.02195 4.09234 5.89795 4.11301C5.81529 4.13367 5.73262 4.15434 5.64995 4.17501C5.56729 4.17501 5.48462 4.18534 5.40195 4.20601C5.23662 4.24734 5.07129 4.30934 4.90595 4.39201C4.74062 4.45401 4.57529 4.54701 4.40995 4.67101C4.05862 4.89834 3.70729 5.20834 3.35595 5.60101C3.00462 5.97301 2.70495 6.40701 2.45695 6.90301C2.37429 7.06834 2.27095 7.20267 2.14695 7.30601C2.02295 7.38867 1.89895 7.45067 1.77495 7.49201C1.71295 7.49201 1.66129 7.50234 1.61995 7.52301C1.57862 7.52301 1.53729 7.52301 1.49595 7.52301C1.28929 7.52301 1.11362 7.47134 0.968953 7.36801C0.824286 7.24401 0.751953 7.07867 0.751953 6.87201C0.751953 6.85134 0.751953 6.83067 0.751953 6.81001C0.751953 6.78934 0.751953 6.76867 0.751953 6.74801C0.751953 6.74801 0.762286 6.73767 0.782953 6.71701C0.782953 6.69634 0.782953 6.67567 0.782953 6.65501L1.96095 2.22201C1.96095 2.03601 2.04362 1.88101 2.20895 1.75701C2.37429 1.63301 2.56029 1.57101 2.76695 1.57101C2.93229 1.57101 3.07695 1.60201 3.20095 1.66401C3.32495 1.72601 3.40762 1.83967 3.44895 2.00501C3.46962 2.04634 3.47995 2.08767 3.47995 2.12901C3.50062 2.14967 3.51095 2.18067 3.51095 2.22201C3.63495 2.49067 3.75895 2.64567 3.88295 2.68701C4.00695 2.72834 4.18262 2.74901 4.40995 2.74901L16.624 2.71801C16.7066 2.73867 16.7893 2.74901 16.872 2.74901C16.9546 2.74901 17.0476 2.73867 17.151 2.71801C17.337 2.69734 17.5126 2.63534 17.678 2.53201C17.864 2.42867 17.9983 2.25301 18.081 2.00501C18.143 1.83967 18.2463 1.71567 18.391 1.63301C18.5356 1.55034 18.6803 1.50901 18.825 1.50901C19.011 1.50901 19.1763 1.57101 19.321 1.69501C19.4656 1.79834 19.538 1.98434 19.538 2.25301L19.073 6.87201C19.073 6.93401 19.0626 6.98567 19.042 7.02701C19.042 7.06834 19.0316 7.10967 19.011 7.15101C18.9283 7.25434 18.8146 7.35767 18.67 7.46101C18.546 7.56434 18.4013 7.61601 18.236 7.61601C18.1946 7.61601 18.1533 7.61601 18.112 7.61601C18.0706 7.59534 18.0293 7.58501 17.988 7.58501C17.864 7.52301 17.74 7.41967 17.616 7.27501C17.5126 7.13034 17.43 6.92367 17.368 6.65501C17.12 5.80767 16.81 5.21867 16.438 4.88801C16.066 4.55734 15.6423 4.33001 15.167 4.20601C14.919 4.12334 14.6916 4.07167 14.485 4.05101C14.299 4.00967 14.1336 3.98901 13.989 3.98901C13.6376 3.98901 13.3793 4.06134 13.214 4.20601C13.0693 4.33001 12.9866 4.46434 12.966 4.60901C12.966 4.62967 12.966 4.65034 12.966 4.67101C12.966 4.67101 12.966 4.68134 12.966 4.70201V18.838C12.966 19.52 13.1003 19.9747 13.369 20.202C13.6583 20.4293 13.9683 20.5843 14.299 20.667C14.361 20.667 14.4126 20.6773 14.454 20.698C14.516 20.698 14.578 20.7083 14.64 20.729C14.9086 20.7703 15.136 20.8427 15.322 20.946C15.5286 21.0287 15.632 21.225 15.632 21.535C15.632 21.845 15.508 22.0517 15.26 22.155C15.0326 22.2583 14.7123 22.31 14.299 22.31C14.0303 22.31 13.741 22.2893 13.431 22.248C13.121 22.2273 12.8006 22.1963 12.47 22.155C12.3873 22.1343 12.2943 22.1137 12.191 22.093C12.1083 22.093 12.0256 22.093 11.943 22.093C11.695 22.0723 11.447 22.0517 11.199 22.031C10.9716 22.0103 10.7443 22 10.517 22C10.3723 22 10.2276 22 10.083 22C9.95895 22 9.82462 22 9.67995 22C9.30795 22 8.94629 22.0103 8.59495 22.031C8.26429 22.0517 7.94395 22.0827 7.63395 22.124C7.32395 22.1447 7.03462 22.1653 6.76595 22.186C6.49729 22.2273 6.24929 22.248 6.02195 22.248C5.69129 22.248 5.42262 22.1963 5.21595 22.093C5.00929 22.0103 4.90595 21.8243 4.90595 21.535C4.90595 21.225 5.00929 21.0183 5.21595 20.915C5.42262 20.791 5.67062 20.698 5.95995 20.636C6.00129 20.636 6.04262 20.6257 6.08395 20.605C6.14595 20.5843 6.20795 20.574 6.26995 20.574C6.60062 20.4707 6.90029 20.3157 7.16895 20.109C7.45829 19.8817 7.60295 19.4683 7.60295 18.869V4.42301Z" fill="black"/>
<path d="M21.8213 4.17501C21.8213 3.69967 21.6973 3.38967 21.4493 3.24501C21.2013 3.10034 20.9223 3.00734 20.6123 2.96601C20.571 2.96601 20.5296 2.96601 20.4883 2.96601C20.447 2.94534 20.416 2.93501 20.3953 2.93501C20.1266 2.89367 19.889 2.84201 19.6823 2.78001C19.4963 2.69734 19.4033 2.52167 19.4033 2.25301C19.4033 1.98434 19.5376 1.79834 19.8063 1.69501C20.0956 1.57101 20.4676 1.46767 20.9223 1.38501C21.315 1.32301 21.749 1.25067 22.2243 1.16801C22.7203 1.08534 23.237 0.96134 23.7743 0.796008C23.919 0.77534 24.0636 0.74434 24.2083 0.703007C24.353 0.641007 24.4976 0.579007 24.6423 0.517008C24.663 0.517008 24.6836 0.517008 24.7043 0.517008C24.7456 0.496341 24.787 0.475674 24.8283 0.455007C25.0763 0.37234 25.314 0.289674 25.5413 0.207008C25.7686 0.124341 25.965 0.0830078 26.1303 0.0830078C26.3163 0.0830078 26.461 0.134674 26.5643 0.238008C26.6676 0.341341 26.7193 0.527341 26.7193 0.796008V8.82501C26.7193 8.94901 26.7296 9.04201 26.7503 9.10401C26.7916 9.14534 26.833 9.17634 26.8743 9.19701C26.9983 9.19701 27.1946 9.10401 27.4633 8.91801C27.7526 8.73201 28.1246 8.52534 28.5793 8.29801C28.972 8.09134 29.437 7.90534 29.9743 7.74001C30.5116 7.55401 31.1316 7.44034 31.8343 7.39901C33.5496 7.39901 34.8723 7.85367 35.8023 8.76301C36.753 9.67234 37.2283 11.1707 37.2283 13.258V19.303C37.2283 19.8197 37.3523 20.1503 37.6003 20.295C37.8483 20.4397 38.1273 20.543 38.4373 20.605C38.458 20.6257 38.4786 20.636 38.4993 20.636C38.5406 20.636 38.5716 20.636 38.5923 20.636C38.861 20.698 39.0986 20.7807 39.3053 20.884C39.5326 20.9873 39.6463 21.2043 39.6463 21.535C39.6463 21.8037 39.5326 21.9793 39.3053 22.062C39.078 22.1653 38.7576 22.217 38.3443 22.217C38.0963 22.217 37.8276 22.2067 37.5383 22.186C37.2696 22.1653 36.97 22.1447 36.6393 22.124C36.3086 22.0827 35.9676 22.0517 35.6163 22.031C35.265 22.0103 34.9033 22 34.5313 22C34.2006 22 33.8803 22.0103 33.5703 22.031C33.2603 22.0517 32.9606 22.0827 32.6713 22.124C32.4026 22.1447 32.1443 22.1653 31.8963 22.186C31.6483 22.2067 31.421 22.217 31.2143 22.217C30.8836 22.217 30.615 22.1653 30.4083 22.062C30.2223 21.9793 30.1293 21.8037 30.1293 21.535C30.1293 21.2043 30.212 20.9977 30.3773 20.915C30.5426 20.8323 30.7286 20.7703 30.9353 20.729C30.956 20.729 30.9766 20.729 30.9973 20.729C31.0386 20.729 31.08 20.7187 31.1213 20.698C31.3486 20.6567 31.5656 20.5637 31.7723 20.419C31.979 20.2537 32.0823 19.892 32.0823 19.334V11.491C32.0823 10.8503 31.8653 10.3957 31.4313 10.127C30.9973 9.83767 30.491 9.69301 29.9123 9.69301C29.8503 9.69301 29.7883 9.69301 29.7263 9.69301C29.6643 9.69301 29.6023 9.69301 29.5403 9.69301C28.8996 9.75501 28.3106 9.95134 27.7733 10.282C27.236 10.6127 26.9673 11.026 26.9673 11.522V19.303C26.9673 19.8197 27.081 20.171 27.3083 20.357C27.5356 20.5223 27.794 20.636 28.0833 20.698C28.104 20.7187 28.135 20.7393 28.1763 20.76C28.2176 20.76 28.259 20.7703 28.3003 20.791C28.5276 20.8323 28.724 20.9047 28.8893 21.008C29.0753 21.1113 29.1683 21.287 29.1683 21.535C29.1683 21.8037 29.0236 21.9793 28.7343 22.062C28.445 22.1653 28.073 22.217 27.6183 22.217C27.3496 22.217 27.0706 22.2067 26.7813 22.186C26.492 22.1653 26.1923 22.1447 25.8823 22.124C25.8616 22.124 25.841 22.124 25.8203 22.124C25.4896 22.0827 25.1693 22.0517 24.8593 22.031C24.57 22.0103 24.291 22 24.0223 22C23.6916 22 23.3713 22.0103 23.0613 22.031C22.7513 22.0517 22.4413 22.0827 22.1313 22.124C21.842 22.1447 21.563 22.1653 21.2943 22.186C21.0463 22.2067 20.8086 22.217 20.5813 22.217C20.23 22.217 19.9406 22.1653 19.7133 22.062C19.5066 21.9793 19.4033 21.8037 19.4033 21.535C19.4033 21.2043 19.5066 20.9977 19.7133 20.915C19.92 20.8323 20.1473 20.7703 20.3953 20.729C20.4366 20.729 20.4676 20.729 20.4883 20.729C20.5296 20.729 20.571 20.7187 20.6123 20.698C20.9223 20.6567 21.2013 20.5637 21.4493 20.419C21.6973 20.2537 21.8213 19.892 21.8213 19.334V4.17501Z" fill="black"/>
<path d="M44.3934 13.227C44.3107 13.2477 44.2487 13.32 44.2074 13.444C44.1661 13.5473 44.1454 13.7127 44.1454 13.94C44.1454 14.25 44.1971 14.6427 44.3004 15.118C44.4037 15.5933 44.5794 16.079 44.8274 16.575C45.1994 17.319 45.7471 18.0217 46.4704 18.683C47.1937 19.3237 48.1341 19.706 49.2914 19.83C49.3327 19.83 49.3637 19.83 49.3844 19.83C49.4051 19.83 49.4361 19.83 49.4774 19.83C49.4981 19.8507 49.5187 19.861 49.5394 19.861C49.5807 19.861 49.6117 19.861 49.6324 19.861C50.1697 19.861 50.6451 19.768 51.0584 19.582C51.4924 19.396 51.8747 19.1893 52.2054 18.962C52.5361 18.7347 52.8151 18.528 53.0424 18.342C53.2904 18.156 53.5074 18.063 53.6934 18.063C53.7967 18.063 53.8794 18.094 53.9414 18.156C54.0241 18.1973 54.0964 18.2697 54.1584 18.373C54.1997 18.4143 54.2204 18.466 54.2204 18.528C54.2411 18.5693 54.2514 18.621 54.2514 18.683C54.2514 18.869 54.1791 19.0653 54.0344 19.272C53.9104 19.458 53.7244 19.6543 53.4764 19.861C53.0424 20.2537 52.4741 20.6257 51.7714 20.977C51.0894 21.3283 50.3661 21.597 49.6014 21.783C49.2914 21.8657 48.9814 21.9277 48.6714 21.969C48.3821 21.9897 48.0927 22 47.8034 22C47.3281 22 46.8217 21.9793 46.2844 21.938C45.7471 21.876 45.1994 21.7623 44.6414 21.597C43.4634 21.2663 42.3577 20.6153 41.3244 19.644C40.2911 18.6727 39.6091 17.195 39.2784 15.211C39.2577 15.0663 39.2371 14.9217 39.2164 14.777C39.2164 14.6323 39.2164 14.4877 39.2164 14.343C39.2164 14.157 39.2267 13.971 39.2474 13.785C39.2681 13.5783 39.2887 13.382 39.3094 13.196C39.5781 11.7287 40.3634 10.3853 41.6654 9.16601C42.9674 7.92601 44.8584 7.25434 47.3384 7.15101C47.7311 7.15101 48.1857 7.19234 48.7024 7.27501C49.2397 7.33701 49.7771 7.45067 50.3144 7.61601C51.0997 7.86401 51.8437 8.24634 52.5464 8.76301C53.2697 9.25901 53.8071 9.94101 54.1584 10.809C54.1791 10.8503 54.1894 10.8917 54.1894 10.933C54.2101 10.9743 54.2307 11.026 54.2514 11.088C54.2721 11.1913 54.2927 11.305 54.3134 11.429C54.3547 11.553 54.3857 11.677 54.4064 11.801C54.4064 11.8217 54.4064 11.8527 54.4064 11.894C54.4064 11.9147 54.4064 11.9457 54.4064 11.987C54.4064 12.3177 54.3031 12.6173 54.0964 12.886C53.9104 13.134 53.5281 13.258 52.9494 13.258L44.3934 13.227ZM44.6414 11.739C44.7034 11.8217 44.8894 11.8837 45.1994 11.925C45.5301 11.9457 45.8917 11.956 46.2844 11.956C46.3671 11.956 46.4394 11.956 46.5014 11.956C46.5841 11.956 46.6564 11.956 46.7184 11.956C47.0697 11.9353 47.4107 11.9147 47.7414 11.894C48.0721 11.8527 48.3407 11.8113 48.5474 11.77C49.0021 11.6667 49.3327 11.4807 49.5394 11.212C49.7667 10.9227 49.8804 10.6127 49.8804 10.282C49.8804 10.2613 49.8804 10.2407 49.8804 10.22C49.8804 10.1787 49.8804 10.1477 49.8804 10.127C49.8391 9.67234 49.6117 9.26934 49.1984 8.91801C48.8057 8.54601 48.2271 8.36001 47.4624 8.36001C47.4004 8.36001 47.3384 8.36001 47.2764 8.36001C47.2144 8.36001 47.1524 8.36001 47.0904 8.36001C46.5944 8.42201 46.1707 8.62868 45.8194 8.98001C45.4681 9.31067 45.1787 9.67234 44.9514 10.065C44.8274 10.313 44.7241 10.561 44.6414 10.809C44.5587 11.0363 44.5174 11.2327 44.5174 11.398C44.5174 11.4807 44.5277 11.5633 44.5484 11.646C44.5691 11.708 44.6001 11.7493 44.6414 11.77V11.739Z" fill="black"/>
<path d="M81.7092 6.62401C81.7298 6.66534 81.7402 6.70667 81.7402 6.74801C81.7402 6.76867 81.7402 6.79967 81.7402 6.84101C81.7402 7.04767 81.6678 7.20267 81.5232 7.30601C81.3992 7.40934 81.2545 7.46101 81.0892 7.46101C81.0685 7.46101 81.0375 7.46101 80.9962 7.46101C80.9755 7.46101 80.9445 7.46101 80.9032 7.46101C80.7378 7.41967 80.5725 7.33701 80.4072 7.21301C80.2418 7.08901 80.1075 6.90301 80.0042 6.65501C79.6115 5.64234 79.0018 4.89834 78.1752 4.42301C77.3485 3.94767 76.4495 3.71001 75.4782 3.71001C75.3335 3.71001 75.1888 3.72034 75.0442 3.74101C74.8995 3.74101 74.7445 3.75134 74.5792 3.77201C73.5872 3.91667 72.6262 4.29901 71.6962 4.91901C70.7662 5.53901 70.0325 6.36567 69.4952 7.39901C69.1852 8.01901 68.9475 8.71134 68.7822 9.47601C68.6375 10.22 68.5652 11.0053 68.5652 11.832C68.5652 12.0387 68.5652 12.2453 68.5652 12.452C68.5858 12.638 68.6065 12.824 68.6272 13.01C68.7925 14.87 69.3402 16.5957 70.2702 18.187C71.2002 19.7783 72.4918 20.7393 74.1452 21.07C74.4345 21.132 74.7135 21.1837 74.9822 21.225C75.2508 21.2457 75.5092 21.256 75.7572 21.256C76.7905 21.2767 77.6792 20.9873 78.4232 20.388C79.1878 19.7887 79.9112 18.8897 80.5932 17.691C80.6138 17.629 80.6345 17.5773 80.6552 17.536C80.6965 17.474 80.7275 17.4223 80.7482 17.381C80.7895 17.2363 80.8722 17.1123 80.9962 17.009C81.1408 16.885 81.2855 16.8127 81.4302 16.792C81.4508 16.7713 81.4818 16.761 81.5232 16.761C81.5645 16.761 81.5955 16.761 81.6162 16.761C81.7815 16.761 81.9158 16.8127 82.0192 16.916C82.1432 16.9987 82.2052 17.1537 82.2052 17.381L81.9572 20.295C81.9572 20.8943 81.2545 21.4317 79.8492 21.907C78.4645 22.3617 76.8215 22.589 74.9202 22.589C74.5482 22.589 74.1658 22.5787 73.7732 22.558C73.4012 22.5373 73.0188 22.496 72.6262 22.434C71.2415 22.2687 69.8982 21.907 68.5962 21.349C67.2942 20.791 66.2092 19.9643 65.3412 18.869C64.8452 18.2697 64.4318 17.66 64.1012 17.04C63.7705 16.3993 63.5122 15.769 63.3262 15.149C63.2022 14.6943 63.0988 14.2397 63.0162 13.785C62.9542 13.3303 62.9232 12.886 62.9232 12.452C62.9232 11.2327 63.1298 10.096 63.5432 9.04201C63.9565 7.98801 64.4835 7.10967 65.1242 6.40701C66.0129 5.39434 67.0048 4.58834 68.1002 3.98901C69.1955 3.38967 70.3115 2.95567 71.4482 2.68701C72.1508 2.50101 72.8535 2.37701 73.5562 2.31501C74.2588 2.23234 74.9305 2.19101 75.5712 2.19101C76.7078 2.19101 77.7308 2.28401 78.6402 2.47001C79.5495 2.63534 80.2315 2.82134 80.6862 3.02801C80.8515 3.11067 80.9755 3.19334 81.0582 3.27601C81.1615 3.35867 81.2132 3.43101 81.2132 3.49301L81.7092 6.62401Z" fill="black"/>
<path d="M82.7983 14.188C83.0876 11.9767 84.09 10.344 85.8053 9.29001C87.5206 8.21534 89.3806 7.67801 91.3853 7.67801C93.5966 7.67801 95.6116 8.26701 97.4303 9.44501C99.2696 10.623 100.2 12.328 100.22 14.56C100.22 14.746 100.21 14.932 100.189 15.118C100.189 15.304 100.169 15.49 100.127 15.676C99.7966 17.846 98.7633 19.489 97.0273 20.605C95.312 21.721 93.4623 22.2997 91.4783 22.341C91.437 22.341 91.3956 22.341 91.3543 22.341C91.3336 22.341 91.3026 22.341 91.2613 22.341C89.1326 22.341 87.19 21.7107 85.4333 20.45C83.6766 19.1893 82.7983 17.2777 82.7983 14.715C82.7983 14.6737 82.7983 14.6323 82.7983 14.591C82.7983 14.5497 82.7983 14.5083 82.7983 14.467C82.7983 14.4257 82.7983 14.3843 82.7983 14.343C82.7983 14.3017 82.7983 14.2603 82.7983 14.219V14.188ZM87.6653 14.436C87.7893 16.5027 88.213 18.094 88.9363 19.21C89.6803 20.3053 90.476 20.946 91.3233 21.132C91.406 21.132 91.4783 21.1423 91.5403 21.163C91.623 21.163 91.7056 21.163 91.7883 21.163C92.677 21.1837 93.4726 20.698 94.1753 19.706C94.878 18.6933 95.2293 17.1847 95.2293 15.18C95.2293 15.0973 95.2293 15.025 95.2293 14.963C95.2293 14.8803 95.2293 14.7977 95.2293 14.715C95.2293 12.8757 94.8366 11.4497 94.0513 10.437C93.2866 9.42434 92.4393 8.88701 91.5093 8.82501C91.468 8.82501 91.4266 8.82501 91.3853 8.82501C91.3646 8.82501 91.344 8.82501 91.3233 8.82501C90.4346 8.82501 89.6183 9.27967 88.8743 10.189C88.1303 11.0983 87.7273 12.5243 87.6653 14.467V14.436Z" fill="black"/>
<path d="M108.022 9.53801C108.476 9.20734 108.931 8.91801 109.386 8.67001C109.861 8.40134 110.347 8.18434 110.843 8.01901C111.318 7.85367 111.783 7.72967 112.238 7.64701C112.713 7.56434 113.178 7.52301 113.633 7.52301C114.914 7.52301 116.009 7.86401 116.919 8.54601C117.828 9.22801 118.283 10.22 118.283 11.522V19.303C118.283 19.8197 118.417 20.1503 118.686 20.295C118.975 20.4397 119.285 20.5327 119.616 20.574C119.657 20.5947 119.698 20.605 119.74 20.605C119.781 20.605 119.833 20.6153 119.895 20.636C120.163 20.6567 120.401 20.7083 120.608 20.791C120.835 20.853 120.949 21.0183 120.949 21.287C120.949 21.6177 120.763 21.8347 120.391 21.938C120.039 22.0413 119.574 22.093 118.996 22.093C118.768 22.093 118.52 22.0827 118.252 22.062C118.004 22.062 117.745 22.062 117.477 22.062C117.332 22.0413 117.177 22.031 117.012 22.031C116.867 22.031 116.722 22.0207 116.578 22C116.454 22 116.33 22 116.206 22C116.082 22 115.958 22 115.834 22C115.627 22 115.4 22 115.152 22C114.924 22.0207 114.687 22.0413 114.439 22.062C114.418 22.062 114.387 22.062 114.346 22.062C114.304 22.062 114.263 22.062 114.222 22.062C114.015 22.0827 113.808 22.093 113.602 22.093C113.395 22.1137 113.199 22.124 113.013 22.124C112.558 22.124 112.176 22.0827 111.866 22C111.576 21.938 111.432 21.783 111.432 21.535C111.432 21.1423 111.535 20.8943 111.742 20.791C111.948 20.667 112.176 20.574 112.424 20.512C112.444 20.512 112.465 20.512 112.486 20.512C112.506 20.512 112.527 20.512 112.548 20.512C112.816 20.45 113.064 20.3363 113.292 20.171C113.519 20.0057 113.633 19.6543 113.633 19.117V11.987C113.633 11.2017 113.374 10.6333 112.858 10.282C112.341 9.91001 111.752 9.72401 111.091 9.72401C111.049 9.72401 111.008 9.72401 110.967 9.72401C110.925 9.72401 110.884 9.72401 110.843 9.72401C110.14 9.76534 109.489 9.99267 108.89 10.406C108.311 10.7987 108.022 11.336 108.022 12.018V19.086C108.022 19.706 108.135 20.1193 108.363 20.326C108.59 20.512 108.848 20.636 109.138 20.698C109.158 20.698 109.189 20.7083 109.231 20.729C109.272 20.729 109.313 20.729 109.355 20.729C109.582 20.7703 109.778 20.8427 109.944 20.946C110.13 21.0287 110.223 21.225 110.223 21.535C110.223 21.8037 110.109 21.9793 109.882 22.062C109.675 22.1653 109.386 22.217 109.014 22.217C108.786 22.217 108.538 22.2067 108.27 22.186C108.001 22.1653 107.712 22.1447 107.402 22.124C107.092 22.0827 106.761 22.0517 106.41 22.031C106.058 22.0103 105.697 22 105.325 22C105.015 22 104.715 22.0103 104.426 22.031C104.157 22.0517 103.888 22.0723 103.62 22.093C103.372 22.1137 103.124 22.1343 102.876 22.155C102.648 22.1757 102.442 22.186 102.256 22.186C101.863 22.186 101.543 22.124 101.295 22C101.067 21.8967 100.954 21.659 100.954 21.287C100.954 21.0183 101.047 20.853 101.233 20.791C101.439 20.7083 101.667 20.6567 101.915 20.636C101.956 20.6153 101.997 20.605 102.039 20.605C102.08 20.605 102.121 20.5947 102.163 20.574C102.473 20.5327 102.752 20.4397 103 20.295C103.248 20.1503 103.372 19.83 103.372 19.334V12.483C103.372 11.9457 103.248 11.6047 103 11.46C102.752 11.2947 102.473 11.1913 102.163 11.15C102.121 11.15 102.07 11.15 102.008 11.15C101.966 11.15 101.925 11.15 101.884 11.15C101.636 11.1293 101.419 11.088 101.233 11.026C101.047 10.964 100.954 10.809 100.954 10.561C100.954 10.313 101.057 10.1477 101.264 10.065C101.47 9.96167 101.739 9.87901 102.07 9.81701C102.442 9.73434 102.865 9.64134 103.341 9.53801C103.816 9.41401 104.312 9.19701 104.829 8.88701C104.994 8.78367 105.159 8.67001 105.325 8.54601C105.49 8.42201 105.655 8.27734 105.821 8.11201C106.172 7.76067 106.492 7.49201 106.782 7.30601C107.092 7.12001 107.35 7.02701 107.557 7.02701C107.701 7.02701 107.815 7.07867 107.898 7.18201C107.98 7.26467 108.022 7.40934 108.022 7.61601V9.53801Z" fill="black"/>
<path d="M121.542 9.78601C121.438 9.60001 121.294 9.47601 121.108 9.41401C120.922 9.33134 120.725 9.27967 120.519 9.25901C120.477 9.23834 120.436 9.22801 120.395 9.22801C120.353 9.22801 120.312 9.21767 120.271 9.19701C120.043 9.17634 119.837 9.13501 119.651 9.07301C119.465 9.01101 119.372 8.85601 119.372 8.60801C119.372 8.25667 119.547 8.02934 119.899 7.92601C120.229 7.82267 120.663 7.77101 121.201 7.77101C121.407 7.77101 121.624 7.78134 121.852 7.80201C122.079 7.80201 122.306 7.80201 122.534 7.80201C122.678 7.82267 122.813 7.83301 122.937 7.83301C123.081 7.83301 123.216 7.84334 123.34 7.86401C123.443 7.86401 123.546 7.86401 123.65 7.86401C123.774 7.86401 123.887 7.86401 123.991 7.86401C124.135 7.86401 124.28 7.86401 124.425 7.86401C124.59 7.86401 124.755 7.85367 124.921 7.83301C125.065 7.83301 125.21 7.83301 125.355 7.83301C125.52 7.81234 125.675 7.80201 125.82 7.80201C126.13 7.78134 126.429 7.77101 126.719 7.77101C127.008 7.75034 127.277 7.74001 127.525 7.74001C128.062 7.74001 128.496 7.78134 128.827 7.86401C129.178 7.94667 129.354 8.11201 129.354 8.36001C129.354 8.69067 129.23 8.91801 128.982 9.04201C128.754 9.16601 128.496 9.24867 128.207 9.29001C128.165 9.29001 128.124 9.30034 128.083 9.32101C128.041 9.32101 128 9.32101 127.959 9.32101C127.731 9.36234 127.525 9.41401 127.339 9.47601C127.173 9.51734 127.091 9.62067 127.091 9.78601C127.091 9.82734 127.091 9.87901 127.091 9.94101C127.111 9.98234 127.132 10.0237 127.153 10.065L129.602 15.645C129.726 15.9757 129.819 16.2237 129.881 16.389C129.963 16.5337 130.036 16.6163 130.098 16.637C130.16 16.6577 130.222 16.606 130.284 16.482C130.366 16.358 130.47 16.172 130.594 15.924L132.764 10.778C132.805 10.6953 132.836 10.6023 132.857 10.499C132.877 10.3957 132.888 10.3027 132.888 10.22C132.908 9.99267 132.836 9.81701 132.671 9.69301C132.505 9.54834 132.216 9.43467 131.803 9.35201C131.431 9.35201 131.09 9.29001 130.78 9.16601C130.49 9.04201 130.346 8.85601 130.346 8.60801C130.346 8.25667 130.48 8.02934 130.749 7.92601C131.038 7.82267 131.41 7.77101 131.865 7.77101C132.03 7.77101 132.206 7.78134 132.392 7.80201C132.598 7.80201 132.795 7.80201 132.981 7.80201C133.187 7.82267 133.394 7.84334 133.601 7.86401C133.828 7.86401 134.045 7.86401 134.252 7.86401C134.458 7.86401 134.665 7.86401 134.872 7.86401C135.078 7.84334 135.275 7.82267 135.461 7.80201C135.667 7.78134 135.853 7.77101 136.019 7.77101C136.205 7.75034 136.38 7.74001 136.546 7.74001C136.876 7.74001 137.145 7.78134 137.352 7.86401C137.558 7.94667 137.662 8.11201 137.662 8.36001C137.662 8.77334 137.569 9.02134 137.383 9.10401C137.217 9.18667 137 9.22801 136.732 9.22801C136.628 9.24867 136.504 9.26934 136.36 9.29001C136.236 9.29001 136.101 9.31067 135.957 9.35201C135.791 9.41401 135.616 9.51734 135.43 9.66201C135.264 9.80667 135.109 10.0237 134.965 10.313L129.354 22C129.292 22.186 129.168 22.3203 128.982 22.403C128.816 22.5063 128.62 22.558 128.393 22.558C128.186 22.558 127.979 22.5063 127.773 22.403C127.587 22.3203 127.463 22.186 127.401 22L121.542 9.78601Z" fill="black"/>
<path d="M141.908 13.227C141.825 13.2477 141.763 13.32 141.722 13.444C141.68 13.5473 141.66 13.7127 141.66 13.94C141.66 14.25 141.711 14.6427 141.815 15.118C141.918 15.5933 142.094 16.079 142.342 16.575C142.714 17.319 143.261 18.0217 143.985 18.683C144.708 19.3237 145.648 19.706 146.806 19.83C146.847 19.83 146.878 19.83 146.899 19.83C146.919 19.83 146.95 19.83 146.992 19.83C147.012 19.8507 147.033 19.861 147.054 19.861C147.095 19.861 147.126 19.861 147.147 19.861C147.684 19.861 148.159 19.768 148.573 19.582C149.007 19.396 149.389 19.1893 149.72 18.962C150.05 18.7347 150.329 18.528 150.557 18.342C150.805 18.156 151.022 18.063 151.208 18.063C151.311 18.063 151.394 18.094 151.456 18.156C151.538 18.1973 151.611 18.2697 151.673 18.373C151.714 18.4143 151.735 18.466 151.735 18.528C151.755 18.5693 151.766 18.621 151.766 18.683C151.766 18.869 151.693 19.0653 151.549 19.272C151.425 19.458 151.239 19.6543 150.991 19.861C150.557 20.2537 149.988 20.6257 149.286 20.977C148.604 21.3283 147.88 21.597 147.116 21.783C146.806 21.8657 146.496 21.9277 146.186 21.969C145.896 21.9897 145.607 22 145.318 22C144.842 22 144.336 21.9793 143.799 21.938C143.261 21.876 142.714 21.7623 142.156 21.597C140.978 21.2663 139.872 20.6153 138.839 19.644C137.805 18.6727 137.123 17.195 136.793 15.211C136.772 15.0663 136.751 14.9217 136.731 14.777C136.731 14.6323 136.731 14.4877 136.731 14.343C136.731 14.157 136.741 13.971 136.762 13.785C136.782 13.5783 136.803 13.382 136.824 13.196C137.092 11.7287 137.878 10.3853 139.18 9.16601C140.482 7.92601 142.373 7.25434 144.853 7.15101C145.245 7.15101 145.7 7.19234 146.217 7.27501C146.754 7.33701 147.291 7.45067 147.829 7.61601C148.614 7.86401 149.358 8.24634 150.061 8.76301C150.784 9.25901 151.321 9.94101 151.673 10.809C151.693 10.8503 151.704 10.8917 151.704 10.933C151.724 10.9743 151.745 11.026 151.766 11.088C151.786 11.1913 151.807 11.305 151.828 11.429C151.869 11.553 151.9 11.677 151.921 11.801C151.921 11.8217 151.921 11.8527 151.921 11.894C151.921 11.9147 151.921 11.9457 151.921 11.987C151.921 12.3177 151.817 12.6173 151.611 12.886C151.425 13.134 151.042 13.258 150.464 13.258L141.908 13.227ZM142.156 11.739C142.218 11.8217 142.404 11.8837 142.714 11.925C143.044 11.9457 143.406 11.956 143.799 11.956C143.881 11.956 143.954 11.956 144.016 11.956C144.098 11.956 144.171 11.956 144.233 11.956C144.584 11.9353 144.925 11.9147 145.256 11.894C145.586 11.8527 145.855 11.8113 146.062 11.77C146.516 11.6667 146.847 11.4807 147.054 11.212C147.281 10.9227 147.395 10.6127 147.395 10.282C147.395 10.2613 147.395 10.2407 147.395 10.22C147.395 10.1787 147.395 10.1477 147.395 10.127C147.353 9.67234 147.126 9.26934 146.713 8.91801C146.32 8.54601 145.741 8.36001 144.977 8.36001C144.915 8.36001 144.853 8.36001 144.791 8.36001C144.729 8.36001 144.667 8.36001 144.605 8.36001C144.109 8.42201 143.685 8.62868 143.334 8.98001C142.982 9.31067 142.693 9.67234 142.466 10.065C142.342 10.313 142.238 10.561 142.156 10.809C142.073 11.0363 142.032 11.2327 142.032 11.398C142.032 11.4807 142.042 11.5633 142.063 11.646C142.083 11.708 142.114 11.7493 142.156 11.77V11.739Z" fill="black"/>
<path d="M159.594 9.78601C159.698 9.70334 159.811 9.62067 159.935 9.53801C160.059 9.43467 160.183 9.33134 160.307 9.22801C160.783 8.87667 161.279 8.54601 161.795 8.23601C162.333 7.92601 162.88 7.71934 163.438 7.61601C163.521 7.61601 163.604 7.61601 163.686 7.61601C163.79 7.59534 163.883 7.58501 163.965 7.58501C164.193 7.58501 164.399 7.60567 164.585 7.64701C164.792 7.68834 164.999 7.76067 165.205 7.86401C165.639 8.07067 165.96 8.34967 166.166 8.70101C166.394 9.05234 166.528 9.41401 166.569 9.78601C166.569 9.80667 166.569 9.83767 166.569 9.87901C166.569 9.89967 166.569 9.93067 166.569 9.97201C166.569 10.4267 166.456 10.8607 166.228 11.274C166.001 11.6873 165.66 12.018 165.205 12.266C164.937 12.4107 164.689 12.514 164.461 12.576C164.234 12.638 164.017 12.669 163.81 12.669C163.397 12.669 163.025 12.576 162.694 12.39C162.384 12.1833 162.136 11.9663 161.95 11.739C161.93 11.6977 161.899 11.6667 161.857 11.646C161.837 11.6047 161.816 11.5633 161.795 11.522C161.671 11.3567 161.527 11.2223 161.361 11.119C161.217 11.0157 161.062 10.9433 160.896 10.902C160.855 10.8813 160.814 10.871 160.772 10.871C160.731 10.871 160.69 10.871 160.648 10.871C160.38 10.871 160.132 10.9847 159.904 11.212C159.698 11.4187 159.594 11.77 159.594 12.266V19.551C159.594 20.0677 159.718 20.3983 159.966 20.543C160.235 20.6877 160.524 20.7807 160.834 20.822C160.855 20.8427 160.886 20.853 160.927 20.853C160.969 20.853 161.01 20.8633 161.051 20.884C161.32 20.9047 161.547 20.9563 161.733 21.039C161.94 21.101 162.043 21.2663 162.043 21.535C162.043 21.8037 161.909 21.9793 161.64 22.062C161.392 22.1653 161.062 22.217 160.648 22.217C160.4 22.217 160.121 22.2067 159.811 22.186C159.522 22.1653 159.222 22.1447 158.912 22.124C158.685 22.1033 158.468 22.0827 158.261 22.062C158.055 22.0413 157.838 22.031 157.61 22.031C157.486 22.0103 157.362 22 157.238 22C157.135 22 157.021 22 156.897 22C156.567 22 156.246 22.0103 155.936 22.031C155.626 22.0517 155.316 22.0827 155.006 22.124C154.717 22.1447 154.438 22.1653 154.169 22.186C153.921 22.2067 153.684 22.217 153.456 22.217C153.105 22.217 152.816 22.1653 152.588 22.062C152.382 21.9793 152.278 21.8037 152.278 21.535C152.278 21.2663 152.382 21.0907 152.588 21.008C152.795 20.9047 153.033 20.8323 153.301 20.791C153.343 20.7703 153.374 20.76 153.394 20.76C153.436 20.76 153.467 20.7497 153.487 20.729C153.797 20.667 154.076 20.574 154.324 20.45C154.572 20.3053 154.696 20.016 154.696 19.582V12.235C154.696 11.8837 154.583 11.6563 154.355 11.553C154.128 11.4497 153.88 11.367 153.611 11.305C153.591 11.305 153.57 11.305 153.549 11.305C153.549 11.305 153.539 11.305 153.518 11.305C153.27 11.2637 153.043 11.2017 152.836 11.119C152.63 11.0363 152.526 10.8503 152.526 10.561C152.526 10.3337 152.619 10.1683 152.805 10.065C152.991 9.96167 153.25 9.87901 153.58 9.81701C154.097 9.69301 154.738 9.52767 155.502 9.32101C156.267 9.09367 157.063 8.60801 157.889 7.86401C157.972 7.78134 158.055 7.70901 158.137 7.64701C158.22 7.56434 158.303 7.49201 158.385 7.43001C158.695 7.22334 158.974 7.13034 159.222 7.15101C159.47 7.15101 159.594 7.38867 159.594 7.86401V9.78601Z" fill="black"/>
<path d="M166.291 17.598C166.353 17.4533 166.436 17.3293 166.539 17.226C166.663 17.102 166.798 17.0297 166.942 17.009C167.128 17.009 167.345 17.133 167.593 17.381C167.862 17.6083 168.162 18.0217 168.492 18.621C168.513 18.6417 168.534 18.6727 168.554 18.714C168.575 18.7347 168.585 18.7553 168.585 18.776C168.916 19.2927 169.309 19.768 169.763 20.202C170.239 20.636 170.972 20.853 171.964 20.853C172.068 20.853 172.171 20.853 172.274 20.853C172.398 20.853 172.522 20.8427 172.646 20.822C172.791 20.822 172.936 20.8117 173.08 20.791C173.246 20.7497 173.411 20.698 173.576 20.636C173.969 20.4913 174.331 20.2743 174.661 19.985C174.992 19.675 175.157 19.334 175.157 18.962C175.157 18.6727 175.023 18.3833 174.754 18.094C174.506 17.784 174.052 17.474 173.39 17.164C173.08 16.9987 172.605 16.8333 171.964 16.668C171.344 16.482 170.693 16.2547 170.011 15.986C169.123 15.6347 168.296 15.1697 167.531 14.591C166.767 14.0123 166.353 13.2373 166.291 12.266C166.291 12.2247 166.291 12.1937 166.291 12.173C166.291 12.1317 166.291 12.0903 166.291 12.049C166.291 11.8217 166.312 11.5943 166.353 11.367C166.415 11.1397 166.508 10.902 166.632 10.654C167.004 9.84801 167.697 9.11434 168.709 8.45301C169.743 7.79167 171.065 7.46101 172.677 7.46101C172.967 7.46101 173.277 7.47134 173.607 7.49201C173.938 7.51267 174.269 7.55401 174.599 7.61601C174.744 7.63667 174.878 7.65734 175.002 7.67801C175.147 7.67801 175.281 7.68834 175.405 7.70901C176.17 7.81234 176.79 7.95701 177.265 8.14301C177.761 8.30834 178.009 8.71134 178.009 9.35201C178.009 9.43467 178.009 9.51734 178.009 9.60001C178.009 9.68267 178.009 9.76534 178.009 9.84801C177.989 10.2613 177.916 10.6437 177.792 10.995C177.689 11.3463 177.441 11.522 177.048 11.522C176.945 11.522 176.842 11.5013 176.738 11.46C176.656 11.398 176.563 11.3153 176.459 11.212C176.335 11.0673 176.201 10.8917 176.056 10.685C175.912 10.4783 175.746 10.2717 175.56 10.065C175.292 9.73434 174.961 9.42434 174.568 9.13501C174.196 8.84567 173.721 8.67001 173.142 8.60801C173.122 8.60801 173.091 8.60801 173.049 8.60801C173.029 8.60801 172.998 8.59767 172.956 8.57701C172.936 8.57701 172.905 8.57701 172.863 8.57701C172.843 8.57701 172.812 8.57701 172.77 8.57701C172.088 8.57701 171.52 8.74234 171.065 9.07301C170.631 9.38301 170.414 9.74467 170.414 10.158C170.414 10.1993 170.414 10.2407 170.414 10.282C170.414 10.3027 170.425 10.3337 170.445 10.375C170.487 10.5817 170.6 10.7883 170.786 10.995C170.993 11.2017 171.293 11.3773 171.685 11.522C172.057 11.6667 172.522 11.8113 173.08 11.956C173.659 12.1007 174.258 12.2867 174.878 12.514C175.85 12.8653 176.738 13.3407 177.544 13.94C178.35 14.5393 178.753 15.366 178.753 16.42C178.753 16.4407 178.753 16.4613 178.753 16.482C178.753 16.5027 178.753 16.5233 178.753 16.544C178.753 16.5647 178.753 16.5853 178.753 16.606C178.753 16.6267 178.753 16.6473 178.753 16.668C178.629 18.5487 177.927 19.9023 176.645 20.729C175.364 21.5557 173.959 22.0207 172.429 22.124C172.285 22.1447 172.14 22.155 171.995 22.155C171.871 22.155 171.737 22.155 171.592 22.155C170.166 22.155 168.885 21.938 167.748 21.504C166.632 21.07 166.074 20.543 166.074 19.923C166.074 19.9023 166.074 19.892 166.074 19.892C166.074 19.8713 166.074 19.8507 166.074 19.83L166.291 17.598Z" fill="black"/>
<path d="M181.792 12.235V12.266C181.751 11.8527 181.606 11.5737 181.358 11.429C181.131 11.2843 180.873 11.1913 180.583 11.15C180.521 11.1293 180.459 11.119 180.397 11.119C180.335 11.119 180.273 11.1087 180.211 11.088C179.984 11.0673 179.788 11.026 179.622 10.964C179.457 10.902 179.374 10.7677 179.374 10.561C179.374 10.3957 179.457 10.2613 179.622 10.158C179.808 10.0547 180.046 9.96167 180.335 9.87901C180.707 9.75501 181.152 9.62067 181.668 9.47601C182.185 9.33134 182.722 9.12467 183.28 8.85601C183.363 8.81467 183.456 8.76301 183.559 8.70101C183.663 8.63901 183.756 8.56667 183.838 8.48401C183.942 8.42201 184.045 8.34967 184.148 8.26701C184.252 8.16367 184.355 8.07067 184.458 7.98801C184.996 7.53334 185.461 7.20267 185.853 6.99601C186.246 6.76867 186.442 7.13034 186.442 8.08101V19.83C186.442 20.202 186.577 20.4293 186.845 20.512C187.135 20.5947 187.455 20.6463 187.806 20.667C188.137 20.7083 188.437 20.7703 188.705 20.853C188.995 20.9357 189.139 21.163 189.139 21.535C189.139 21.783 188.974 21.938 188.643 22C188.333 22.0827 187.91 22.124 187.372 22.124C187.124 22.124 186.845 22.1137 186.535 22.093C186.246 22.093 185.946 22.0827 185.636 22.062C185.492 22.062 185.347 22.0517 185.202 22.031C185.058 22.031 184.913 22.031 184.768 22.031C184.582 22.0103 184.407 22 184.241 22C184.076 22 183.911 22 183.745 22C183.58 22 183.415 22 183.249 22C183.084 22.0207 182.919 22.031 182.753 22.031C182.671 22.031 182.588 22.031 182.505 22.031C182.423 22.0517 182.34 22.062 182.257 22.062C182.009 22.0827 181.761 22.093 181.513 22.093C181.286 22.1137 181.069 22.124 180.862 22.124C180.428 22.124 180.067 22.0827 179.777 22C179.509 21.938 179.374 21.783 179.374 21.535C179.374 21.1837 179.488 20.977 179.715 20.915C179.963 20.8323 180.232 20.791 180.521 20.791C180.542 20.791 180.563 20.7807 180.583 20.76C180.893 20.76 181.172 20.7187 181.42 20.636C181.668 20.5327 181.792 20.2537 181.792 19.799V12.235ZM181.327 3.67901V3.71001C181.327 4.59867 181.606 5.26001 182.164 5.69401C182.743 6.12801 183.373 6.35534 184.055 6.37601C184.076 6.37601 184.086 6.37601 184.086 6.37601C184.107 6.37601 184.128 6.37601 184.148 6.37601C184.851 6.37601 185.492 6.16934 186.07 5.75601C186.649 5.32201 186.938 4.70201 186.938 3.89601C186.938 3.85467 186.938 3.82367 186.938 3.80301C186.938 3.76167 186.938 3.73067 186.938 3.71001C186.876 2.86267 186.566 2.24267 186.008 1.85001C185.471 1.43667 184.872 1.23001 184.21 1.23001C184.19 1.23001 184.169 1.23001 184.148 1.23001C184.148 1.23001 184.138 1.23001 184.117 1.23001C183.456 1.27134 182.836 1.49867 182.257 1.91201C181.699 2.32534 181.389 2.91434 181.327 3.67901Z" fill="black"/>
<path d="M188.775 14.188C189.064 11.9767 190.066 10.344 191.782 9.29001C193.497 8.21534 195.357 7.67801 197.362 7.67801C199.573 7.67801 201.588 8.26701 203.407 9.44501C205.246 10.623 206.176 12.328 206.197 14.56C206.197 14.746 206.186 14.932 206.166 15.118C206.166 15.304 206.145 15.49 206.104 15.676C205.773 17.846 204.74 19.489 203.004 20.605C201.288 21.721 199.439 22.2997 197.455 22.341C197.413 22.341 197.372 22.341 197.331 22.341C197.31 22.341 197.279 22.341 197.238 22.341C195.109 22.341 193.166 21.7107 191.41 20.45C189.653 19.1893 188.775 17.2777 188.775 14.715C188.775 14.6737 188.775 14.6323 188.775 14.591C188.775 14.5497 188.775 14.5083 188.775 14.467C188.775 14.4257 188.775 14.3843 188.775 14.343C188.775 14.3017 188.775 14.2603 188.775 14.219V14.188ZM193.642 14.436C193.766 16.5027 194.189 18.094 194.913 19.21C195.657 20.3053 196.452 20.946 197.3 21.132C197.382 21.132 197.455 21.1423 197.517 21.163C197.599 21.163 197.682 21.163 197.765 21.163C198.653 21.1837 199.449 20.698 200.152 19.706C200.854 18.6933 201.206 17.1847 201.206 15.18C201.206 15.0973 201.206 15.025 201.206 14.963C201.206 14.8803 201.206 14.7977 201.206 14.715C201.206 12.8757 200.813 11.4497 200.028 10.437C199.263 9.42434 198.416 8.88701 197.486 8.82501C197.444 8.82501 197.403 8.82501 197.362 8.82501C197.341 8.82501 197.32 8.82501 197.3 8.82501C196.411 8.82501 195.595 9.27967 194.851 10.189C194.107 11.0983 193.704 12.5243 193.642 14.467V14.436Z" fill="black"/>
<path d="M213.998 9.53801C214.453 9.20734 214.907 8.91801 215.362 8.67001C215.837 8.40134 216.323 8.18434 216.819 8.01901C217.294 7.85367 217.759 7.72967 218.214 7.64701C218.689 7.56434 219.154 7.52301 219.609 7.52301C220.89 7.52301 221.986 7.86401 222.895 8.54601C223.804 9.22801 224.259 10.22 224.259 11.522V19.303C224.259 19.8197 224.393 20.1503 224.662 20.295C224.951 20.4397 225.261 20.5327 225.592 20.574C225.633 20.5947 225.675 20.605 225.716 20.605C225.757 20.605 225.809 20.6153 225.871 20.636C226.14 20.6567 226.377 20.7083 226.584 20.791C226.811 20.853 226.925 21.0183 226.925 21.287C226.925 21.6177 226.739 21.8347 226.367 21.938C226.016 22.0413 225.551 22.093 224.972 22.093C224.745 22.093 224.497 22.0827 224.228 22.062C223.98 22.062 223.722 22.062 223.453 22.062C223.308 22.0413 223.153 22.031 222.988 22.031C222.843 22.031 222.699 22.0207 222.554 22C222.43 22 222.306 22 222.182 22C222.058 22 221.934 22 221.81 22C221.603 22 221.376 22 221.128 22C220.901 22.0207 220.663 22.0413 220.415 22.062C220.394 22.062 220.363 22.062 220.322 22.062C220.281 22.062 220.239 22.062 220.198 22.062C219.991 22.0827 219.785 22.093 219.578 22.093C219.371 22.1137 219.175 22.124 218.989 22.124C218.534 22.124 218.152 22.0827 217.842 22C217.553 21.938 217.408 21.783 217.408 21.535C217.408 21.1423 217.511 20.8943 217.718 20.791C217.925 20.667 218.152 20.574 218.4 20.512C218.421 20.512 218.441 20.512 218.462 20.512C218.483 20.512 218.503 20.512 218.524 20.512C218.793 20.45 219.041 20.3363 219.268 20.171C219.495 20.0057 219.609 19.6543 219.609 19.117V11.987C219.609 11.2017 219.351 10.6333 218.834 10.282C218.317 9.91001 217.728 9.72401 217.067 9.72401C217.026 9.72401 216.984 9.72401 216.943 9.72401C216.902 9.72401 216.86 9.72401 216.819 9.72401C216.116 9.76534 215.465 9.99267 214.866 10.406C214.287 10.7987 213.998 11.336 213.998 12.018V19.086C213.998 19.706 214.112 20.1193 214.339 20.326C214.566 20.512 214.825 20.636 215.114 20.698C215.135 20.698 215.166 20.7083 215.207 20.729C215.248 20.729 215.29 20.729 215.331 20.729C215.558 20.7703 215.755 20.8427 215.92 20.946C216.106 21.0287 216.199 21.225 216.199 21.535C216.199 21.8037 216.085 21.9793 215.858 22.062C215.651 22.1653 215.362 22.217 214.99 22.217C214.763 22.217 214.515 22.2067 214.246 22.186C213.977 22.1653 213.688 22.1447 213.378 22.124C213.068 22.0827 212.737 22.0517 212.386 22.031C212.035 22.0103 211.673 22 211.301 22C210.991 22 210.691 22.0103 210.402 22.031C210.133 22.0517 209.865 22.0723 209.596 22.093C209.348 22.1137 209.1 22.1343 208.852 22.155C208.625 22.1757 208.418 22.186 208.232 22.186C207.839 22.186 207.519 22.124 207.271 22C207.044 21.8967 206.93 21.659 206.93 21.287C206.93 21.0183 207.023 20.853 207.209 20.791C207.416 20.7083 207.643 20.6567 207.891 20.636C207.932 20.6153 207.974 20.605 208.015 20.605C208.056 20.605 208.098 20.5947 208.139 20.574C208.449 20.5327 208.728 20.4397 208.976 20.295C209.224 20.1503 209.348 19.83 209.348 19.334V12.483C209.348 11.9457 209.224 11.6047 208.976 11.46C208.728 11.2947 208.449 11.1913 208.139 11.15C208.098 11.15 208.046 11.15 207.984 11.15C207.943 11.15 207.901 11.15 207.86 11.15C207.612 11.1293 207.395 11.088 207.209 11.026C207.023 10.964 206.93 10.809 206.93 10.561C206.93 10.313 207.033 10.1477 207.24 10.065C207.447 9.96167 207.715 9.87901 208.046 9.81701C208.418 9.73434 208.842 9.64134 209.317 9.53801C209.792 9.41401 210.288 9.19701 210.805 8.88701C210.97 8.78367 211.136 8.67001 211.301 8.54601C211.466 8.42201 211.632 8.27734 211.797 8.11201C212.148 7.76067 212.469 7.49201 212.758 7.30601C213.068 7.12001 213.326 7.02701 213.533 7.02701C213.678 7.02701 213.791 7.07867 213.874 7.18201C213.957 7.26467 213.998 7.40934 213.998 7.61601V9.53801Z" fill="black"/>
<path d="M237.134 5.88001C237.134 5.54934 236.979 5.27034 236.669 5.04301C236.38 4.81567 235.812 4.70201 234.964 4.70201C234.696 4.70201 234.53 4.62967 234.468 4.48501C234.427 4.31967 234.468 4.14401 234.592 3.95801C234.716 3.81334 234.882 3.67901 235.088 3.55501C235.316 3.41034 235.595 3.30701 235.925 3.24501C236.793 3.03834 237.682 2.87301 238.591 2.74901C239.521 2.60434 240.462 2.50101 241.412 2.43901C241.722 2.41834 242.032 2.40801 242.342 2.40801C242.652 2.38734 242.962 2.37701 243.272 2.37701C245.484 2.37701 247.571 2.63534 249.534 3.15201C251.518 3.66867 253.089 4.50567 254.246 5.66301C254.908 6.30367 255.435 6.97534 255.827 7.67801C256.241 8.36001 256.551 9.04201 256.757 9.72401C256.84 10.0753 256.902 10.4267 256.943 10.778C257.005 11.1087 257.036 11.4497 257.036 11.801C257.036 14.4257 255.92 16.7713 253.688 18.838C251.456 20.884 249.007 22.0103 246.341 22.217C246.197 22.217 246.052 22.217 245.907 22.217C245.783 22.2377 245.649 22.248 245.504 22.248C245.484 22.248 245.453 22.248 245.411 22.248C245.391 22.248 245.37 22.248 245.349 22.248C245.329 22.248 245.298 22.248 245.256 22.248C245.236 22.248 245.215 22.248 245.194 22.248L237.382 22C237.341 22 237.258 22.0103 237.134 22.031C237.031 22.0517 236.897 22.0723 236.731 22.093C236.607 22.093 236.473 22.1033 236.328 22.124C236.204 22.1447 236.07 22.155 235.925 22.155C235.884 22.155 235.832 22.155 235.77 22.155C235.729 22.155 235.688 22.155 235.646 22.155C235.378 22.155 235.119 22.124 234.871 22.062C234.644 22.0207 234.51 21.9277 234.468 21.783C234.344 21.4317 234.396 21.1733 234.623 21.008C234.851 20.8427 235.202 20.698 235.677 20.574C236.049 20.574 236.38 20.4397 236.669 20.171C236.979 19.9023 237.134 19.4683 237.134 18.869V5.88001ZM242.528 5.41501V18.59C242.528 19.2927 242.776 19.8507 243.272 20.264C243.789 20.6567 244.43 20.853 245.194 20.853C245.525 20.853 245.866 20.8117 246.217 20.729C246.589 20.6257 246.961 20.481 247.333 20.295C247.933 19.985 248.511 19.5407 249.069 18.962C249.627 18.3627 250.134 17.598 250.588 16.668C250.836 16.0687 251.033 15.3867 251.177 14.622C251.343 13.8573 251.425 13.0617 251.425 12.235C251.425 12.0077 251.415 11.7907 251.394 11.584C251.394 11.3567 251.384 11.1293 251.363 10.902C251.239 9.91001 250.981 8.94901 250.588 8.01901C250.196 7.06834 249.617 6.21067 248.852 5.44601C248.522 5.11534 248.098 4.82601 247.581 4.57801C247.085 4.33001 246.569 4.14401 246.031 4.02001C245.804 3.97867 245.577 3.94767 245.349 3.92701C245.143 3.88567 244.936 3.86501 244.729 3.86501C244.109 3.86501 243.582 3.98901 243.148 4.23701C242.735 4.48501 242.528 4.88801 242.528 5.44601V5.41501Z" fill="black"/>
<path d="M262.885 13.227C262.803 13.2477 262.741 13.32 262.699 13.444C262.658 13.5473 262.637 13.7127 262.637 13.94C262.637 14.25 262.689 14.6427 262.792 15.118C262.896 15.5933 263.071 16.079 263.319 16.575C263.691 17.319 264.239 18.0217 264.962 18.683C265.686 19.3237 266.626 19.706 267.783 19.83C267.825 19.83 267.856 19.83 267.876 19.83C267.897 19.83 267.928 19.83 267.969 19.83C267.99 19.8507 268.011 19.861 268.031 19.861C268.073 19.861 268.104 19.861 268.124 19.861C268.662 19.861 269.137 19.768 269.55 19.582C269.984 19.396 270.367 19.1893 270.697 18.962C271.028 18.7347 271.307 18.528 271.534 18.342C271.782 18.156 271.999 18.063 272.185 18.063C272.289 18.063 272.371 18.094 272.433 18.156C272.516 18.1973 272.588 18.2697 272.65 18.373C272.692 18.4143 272.712 18.466 272.712 18.528C272.733 18.5693 272.743 18.621 272.743 18.683C272.743 18.869 272.671 19.0653 272.526 19.272C272.402 19.458 272.216 19.6543 271.968 19.861C271.534 20.2537 270.966 20.6257 270.263 20.977C269.581 21.3283 268.858 21.597 268.093 21.783C267.783 21.8657 267.473 21.9277 267.163 21.969C266.874 21.9897 266.585 22 266.295 22C265.82 22 265.314 21.9793 264.776 21.938C264.239 21.876 263.691 21.7623 263.133 21.597C261.955 21.2663 260.85 20.6153 259.816 19.644C258.783 18.6727 258.101 17.195 257.77 15.211C257.75 15.0663 257.729 14.9217 257.708 14.777C257.708 14.6323 257.708 14.4877 257.708 14.343C257.708 14.157 257.719 13.971 257.739 13.785C257.76 13.5783 257.781 13.382 257.801 13.196C258.07 11.7287 258.855 10.3853 260.157 9.16601C261.459 7.92601 263.35 7.25434 265.83 7.15101C266.223 7.15101 266.678 7.19234 267.194 7.27501C267.732 7.33701 268.269 7.45067 268.806 7.61601C269.592 7.86401 270.336 8.24634 271.038 8.76301C271.762 9.25901 272.299 9.94101 272.65 10.809C272.671 10.8503 272.681 10.8917 272.681 10.933C272.702 10.9743 272.723 11.026 272.743 11.088C272.764 11.1913 272.785 11.305 272.805 11.429C272.847 11.553 272.878 11.677 272.898 11.801C272.898 11.8217 272.898 11.8527 272.898 11.894C272.898 11.9147 272.898 11.9457 272.898 11.987C272.898 12.3177 272.795 12.6173 272.588 12.886C272.402 13.134 272.02 13.258 271.441 13.258L262.885 13.227ZM263.133 11.739C263.195 11.8217 263.381 11.8837 263.691 11.925C264.022 11.9457 264.384 11.956 264.776 11.956C264.859 11.956 264.931 11.956 264.993 11.956C265.076 11.956 265.148 11.956 265.21 11.956C265.562 11.9353 265.903 11.9147 266.233 11.894C266.564 11.8527 266.833 11.8113 267.039 11.77C267.494 11.6667 267.825 11.4807 268.031 11.212C268.259 10.9227 268.372 10.6127 268.372 10.282C268.372 10.2613 268.372 10.2407 268.372 10.22C268.372 10.1787 268.372 10.1477 268.372 10.127C268.331 9.67234 268.104 9.26934 267.69 8.91801C267.298 8.54601 266.719 8.36001 265.954 8.36001C265.892 8.36001 265.83 8.36001 265.768 8.36001C265.706 8.36001 265.644 8.36001 265.582 8.36001C265.086 8.42201 264.663 8.62868 264.311 8.98001C263.96 9.31067 263.671 9.67234 263.443 10.065C263.319 10.313 263.216 10.561 263.133 10.809C263.051 11.0363 263.009 11.2327 263.009 11.398C263.009 11.4807 263.02 11.5633 263.04 11.646C263.061 11.708 263.092 11.7493 263.133 11.77V11.739Z" fill="black"/>
<path d="M281.068 9.32101C281.646 8.80434 282.246 8.40134 282.866 8.11201C283.506 7.80201 284.157 7.61601 284.819 7.55401C284.901 7.53334 284.994 7.52301 285.098 7.52301C285.201 7.52301 285.294 7.52301 285.377 7.52301C287.092 7.52301 288.632 8.21534 289.996 9.60001C291.36 10.964 292.042 12.7517 292.042 14.963C292.042 16.7817 291.308 18.4557 289.841 19.985C288.394 21.4937 286.441 22.248 283.982 22.248C283.734 22.248 283.496 22.2273 283.269 22.186C283.041 22.1447 282.814 22.093 282.587 22.031C282.38 21.9897 282.184 21.9483 281.998 21.907C281.812 21.8657 281.646 21.845 281.502 21.845C281.357 21.845 281.243 21.876 281.161 21.938C281.099 21.9793 281.068 22.0827 281.068 22.248V26.154C281.068 26.65 281.202 26.9703 281.471 27.115C281.76 27.2597 282.07 27.363 282.401 27.425C282.421 27.425 282.442 27.425 282.463 27.425C282.504 27.4457 282.535 27.456 282.556 27.456C282.866 27.518 283.134 27.5903 283.362 27.673C283.61 27.7763 283.734 28.0037 283.734 28.355C283.734 28.541 283.651 28.665 283.486 28.727C283.32 28.8097 283.083 28.851 282.773 28.851C282.545 28.851 282.277 28.8407 281.967 28.82C281.677 28.7993 281.357 28.7683 281.006 28.727C280.654 28.7063 280.272 28.6753 279.859 28.634C279.466 28.6133 279.053 28.603 278.619 28.603C278.226 28.603 277.844 28.6133 277.472 28.634C277.1 28.6547 276.738 28.6857 276.387 28.727C276.056 28.7477 275.736 28.7683 275.426 28.789C275.136 28.8097 274.868 28.82 274.62 28.82C274.206 28.82 273.876 28.7683 273.628 28.665C273.38 28.5823 273.256 28.3963 273.256 28.107C273.256 27.9003 273.349 27.7557 273.535 27.673C273.741 27.5903 273.979 27.518 274.248 27.456C274.31 27.456 274.361 27.4457 274.403 27.425C274.465 27.425 274.527 27.4147 274.589 27.394C274.919 27.3113 275.219 27.1873 275.488 27.022C275.777 26.8773 275.922 26.588 275.922 26.154V11.987C275.922 11.6563 275.849 11.4393 275.705 11.336C275.56 11.2327 275.395 11.181 275.209 11.181C275.147 11.181 275.085 11.181 275.023 11.181C274.981 11.181 274.94 11.181 274.899 11.181C274.857 11.2017 274.806 11.212 274.744 11.212C274.702 11.212 274.661 11.212 274.62 11.212C274.434 11.212 274.279 11.1707 274.155 11.088C274.031 11.0053 273.969 10.8297 273.969 10.561C273.969 10.3543 274.093 10.1993 274.341 10.096C274.609 9.97201 274.94 9.85834 275.333 9.75501C275.56 9.69301 275.808 9.63101 276.077 9.56901C276.366 9.48634 276.655 9.40367 276.945 9.32101C277.296 9.21767 277.637 9.09367 277.968 8.94901C278.298 8.78367 278.598 8.58734 278.867 8.36001C279.321 7.98801 279.704 7.68834 280.014 7.46101C280.344 7.23367 280.592 7.12001 280.758 7.12001C280.861 7.09934 280.933 7.13034 280.975 7.21301C281.037 7.29567 281.068 7.43001 281.068 7.61601V9.32101ZM281.068 11.274V18.094C281.068 18.28 281.078 18.4763 281.099 18.683C281.119 18.8897 281.161 19.0963 281.223 19.303C281.326 19.7163 281.512 20.0987 281.781 20.45C282.049 20.8013 282.452 20.977 282.99 20.977C283.258 20.977 283.558 20.9253 283.889 20.822C284.219 20.7187 284.581 20.5533 284.974 20.326C285.635 19.954 286.141 19.334 286.493 18.466C286.844 17.5773 287.02 16.6163 287.02 15.583C287.02 15.4383 287.009 15.2937 286.989 15.149C286.989 15.0043 286.989 14.8597 286.989 14.715C286.927 14.1983 286.834 13.692 286.71 13.196C286.586 12.7 286.41 12.2247 286.183 11.77C285.893 11.1913 285.542 10.7573 285.129 10.468C284.715 10.158 284.281 9.95134 283.827 9.84801C283.723 9.82734 283.61 9.81701 283.486 9.81701C283.382 9.79634 283.279 9.78601 283.176 9.78601C282.597 9.78601 282.101 9.93067 281.688 10.22C281.274 10.4887 281.068 10.8503 281.068 11.305V11.274Z" fill="black"/>
<path d="M298.511 10.282V16.885C298.511 17.9597 298.656 18.683 298.945 19.055C299.255 19.4063 299.607 19.5923 299.999 19.613C300.206 19.613 300.402 19.582 300.588 19.52C300.774 19.458 300.95 19.3857 301.115 19.303C301.177 19.2617 301.229 19.2307 301.27 19.21C301.332 19.1687 301.384 19.1377 301.425 19.117C301.611 18.9517 301.777 18.838 301.921 18.776C302.087 18.6933 302.211 18.652 302.293 18.652C302.397 18.6313 302.479 18.6623 302.541 18.745C302.603 18.807 302.645 18.9 302.665 19.024C302.665 19.1893 302.614 19.3857 302.51 19.613C302.407 19.8403 302.242 20.078 302.014 20.326C301.663 20.7393 301.136 21.1217 300.433 21.473C299.731 21.8037 298.842 21.9793 297.767 22C296.755 22 295.98 21.7727 295.442 21.318C294.905 20.8633 294.512 20.357 294.264 19.799C294.099 19.427 293.985 19.0653 293.923 18.714C293.882 18.3627 293.861 18.0837 293.861 17.877V9.78601C293.861 9.64134 293.799 9.54834 293.675 9.50701C293.551 9.44501 293.407 9.41401 293.241 9.41401C293.179 9.41401 293.117 9.41401 293.055 9.41401C292.993 9.41401 292.931 9.41401 292.869 9.41401C292.787 9.43467 292.714 9.44501 292.652 9.44501C292.59 9.44501 292.528 9.44501 292.466 9.44501C292.26 9.44501 292.074 9.41401 291.908 9.35201C291.764 9.26934 291.691 9.10401 291.691 8.85601C291.691 8.73201 291.733 8.62867 291.815 8.54601C291.898 8.44267 292.012 8.34967 292.156 8.26701C292.508 8.08101 292.973 7.86401 293.551 7.61601C294.13 7.36801 294.729 6.96501 295.349 6.40701C295.597 6.17967 295.835 5.93168 296.062 5.66301C296.31 5.37367 296.548 5.05334 296.775 4.70201C296.858 4.53667 296.941 4.39201 297.023 4.26801C297.106 4.14401 297.199 4.04067 297.302 3.95801C297.406 3.83401 297.509 3.74101 297.612 3.67901C297.736 3.61701 297.85 3.58601 297.953 3.58601C298.119 3.56534 298.253 3.63767 298.356 3.80301C298.46 3.94767 298.511 4.16467 298.511 4.45401V6.87201C298.511 7.20267 298.522 7.41967 298.542 7.52301C298.563 7.60567 298.646 7.64701 298.79 7.64701C298.832 7.64701 298.873 7.64701 298.914 7.64701C298.956 7.64701 298.997 7.63667 299.038 7.61601C299.1 7.61601 299.162 7.61601 299.224 7.61601C299.307 7.61601 299.39 7.61601 299.472 7.61601L301.425 7.58501C301.673 7.60567 301.859 7.65734 301.983 7.74001C302.107 7.82267 302.169 8.11201 302.169 8.60801C302.169 8.98001 302.107 9.19701 301.983 9.25901C301.859 9.32101 301.673 9.35201 301.425 9.35201L299.472 9.32101C298.997 9.34167 298.718 9.39334 298.635 9.47601C298.553 9.55867 298.511 9.83767 298.511 10.313V10.282Z" fill="black"/>
<path d="M303.498 19.799C303.56 19.0343 303.87 18.4453 304.428 18.032C305.007 17.6187 305.627 17.3913 306.288 17.35C306.309 17.35 306.319 17.35 306.319 17.35C306.34 17.35 306.361 17.35 306.381 17.35C307.043 17.35 307.642 17.5567 308.179 17.97C308.737 18.3627 309.047 18.9827 309.109 19.83C309.109 19.8507 309.109 19.8817 309.109 19.923C309.109 19.9437 309.109 19.9747 309.109 20.016C309.109 20.822 308.82 21.4317 308.241 21.845C307.663 22.2377 307.022 22.4443 306.319 22.465C306.299 22.465 306.278 22.465 306.257 22.465C306.257 22.465 306.247 22.465 306.226 22.465C305.544 22.4443 304.914 22.2273 304.335 21.814C303.777 21.38 303.498 20.7187 303.498 19.83V19.799Z" fill="black"/>
</svg>
