<svg width="87" height="108" viewBox="0 0 87 108" fill="none" xmlns="http://www.w3.org/2000/svg">
<path fill-rule="evenodd" clip-rule="evenodd" d="M40.754 90.1633C41.8836 90.1633 44.8243 91.1263 44.4543 91.3621C44.2984 91.4604 43.9089 91.5389 43.5779 91.5389C43.2468 91.5389 42.3511 91.8533 41.5915 92.2267C40.4231 92.8359 40.1308 93.0914 39.4297 94.1721C38.3391 95.8622 37.891 96.2357 36.5666 96.5894C35.9434 96.7467 34.5607 97.336 33.509 97.8862L31.6197 98.8888L29.4191 98.9084C26.5368 98.928 26.1278 99.1442 23.9661 101.797C23.0703 102.917 22.0771 104.214 21.7849 104.705C20.7916 106.297 20.1293 106.867 19.3308 106.867C18.844 106.867 18.4155 107.044 17.9092 107.437C17.2081 108.007 17.13 108.027 15.1046 107.987C13.3716 107.948 13.0208 107.889 12.9623 107.634C12.8649 107.103 14.5008 104.843 15.3577 104.372C16.2731 103.841 16.4289 103.821 16.4289 104.195C16.4291 104.489 16.9547 104.765 17.2078 104.608C17.3052 104.549 17.4222 104.588 17.5001 104.705C17.5585 104.804 17.8117 104.902 18.0454 104.883C18.4738 104.883 18.4544 104.882 18.0066 104.686C17.6171 104.529 17.5976 104.47 17.8117 104.195C18.026 103.939 18.0064 103.861 17.7337 103.703C17.2469 103.428 17.3055 102.878 17.7923 103.035C18.3377 103.212 19.7203 102.524 20.5577 101.66C20.9471 101.267 21.7456 100.127 22.3104 99.1443L23.3234 97.3756L25.9719 97.4936C28.4841 97.6115 28.6596 97.5917 29.7696 97.1201C30.4707 96.8253 31.4836 96.5696 32.3016 96.5106C33.9764 96.3927 34.3855 96.1374 35.145 94.7619C35.6318 93.8973 35.8461 93.7005 36.1187 93.779C36.333 93.838 36.6447 93.956 36.8395 94.015C37.1121 94.0934 37.482 93.6806 38.5336 92.1479L39.8776 90.1633H40.754ZM15.9616 106.14C15.8642 106.042 15.6499 106.632 15.6694 106.926C15.6694 107.064 15.7669 106.946 15.8642 106.691C15.9615 106.435 16.0198 106.18 15.9616 106.14ZM22.9729 99.9301C23.8102 98.3385 23.401 98.7315 22.4078 100.441C21.9015 101.325 21.7069 101.797 21.9599 101.463C22.2326 101.149 22.6808 100.461 22.9729 99.9301Z" fill="black"/>
<path fill-rule="evenodd" clip-rule="evenodd" d="M24.1217 92.521C24.7644 92.4227 25.9523 92.4033 26.7508 92.4426C27.5493 92.5016 28.7179 92.5605 29.3217 92.5998C29.9838 92.6194 30.8406 92.8357 31.4249 93.1108C32.2428 93.5038 32.4768 93.5236 32.8857 93.3468C33.1584 93.2092 33.7818 93.1108 34.2492 93.1108C35.0086 93.1108 35.1255 93.1699 35.1255 93.5039C35.1254 94.0149 34.4828 95.3119 34.0349 95.6853C33.8597 95.8228 33.0805 95.9998 32.321 96.0784C31.5225 96.1373 30.3927 96.4122 29.6721 96.707L28.3867 97.218L24.4334 97.0017C20.8305 96.8248 20.4018 96.8249 19.5839 97.1393C17.6168 97.886 16.9156 98.6132 14.4227 102.445C13.4879 103.919 13.3321 104.037 12.3583 104.371C11.7741 104.568 10.9563 105.02 10.5668 105.393C9.35937 106.474 9.10606 106.552 8.07395 106.159C7.58706 105.963 6.69086 105.806 6.10659 105.806C5.07455 105.786 5.03559 105.767 5.094 105.295C5.1719 104.45 6.18458 103.055 7.17779 102.387C8.26836 101.679 8.4438 101.64 8.44382 102.052C8.44382 102.229 8.59958 102.406 8.79429 102.465C8.96956 102.524 9.41759 102.72 9.74866 102.897C10.255 103.153 10.4303 103.172 10.625 102.976C10.8003 102.799 10.7613 102.74 10.4302 102.74C9.92391 102.74 9.63203 102.19 10.0215 101.954C10.2355 101.816 10.2158 101.698 9.9043 101.384C9.51497 100.932 9.63188 100.579 10.0797 100.952C10.294 101.148 10.5861 101.07 11.5014 100.559C13.6048 99.3796 14.2282 98.6722 14.8904 96.6874C15.1046 96.0782 15.3967 95.4689 15.5525 95.351C15.7278 95.2329 16.059 94.7416 16.2927 94.2897C16.8963 93.1304 17.1885 92.9732 18.279 93.268C19.5644 93.6217 20.5772 93.5629 21.8431 93.0912C22.4468 92.8554 23.479 92.5996 24.1217 92.521ZM8.38522 103.585C8.26841 103.487 8.13214 103.703 7.87911 104.391C7.60648 105.098 7.78159 105.039 8.15157 104.293C8.32685 103.959 8.42417 103.644 8.38522 103.585ZM15.3965 97.9058C15.3381 97.847 15.1432 98.0629 14.9874 98.3773C14.8122 98.7114 14.1695 99.537 13.5658 100.205C12.9426 100.873 12.5728 101.384 12.7286 101.325C13.0016 101.246 14.5396 99.4778 15.2017 98.4561C15.377 98.2203 15.4549 97.9648 15.3965 97.9058ZM18.1816 94.506C17.7532 94.4864 17.2468 94.8401 16.9936 95.3314C16.7794 95.7244 16.8183 95.7243 17.3247 95.2526C17.6363 94.9579 18.0258 94.6829 18.1816 94.624C18.4348 94.5257 18.4348 94.5257 18.1816 94.506Z" fill="black"/>
<path fill-rule="evenodd" clip-rule="evenodd" d="M68.4483 87.2549C69.7531 86.3509 70.0454 86.331 71.8175 86.9402C72.8497 87.3136 75.2063 87.294 76.1217 86.901C76.7255 86.6455 76.9983 86.6457 77.9136 86.8422C78.8678 87.0584 79.0626 87.1958 79.8026 88.1782C80.8348 89.5342 81.9256 90.5561 83.8731 92.0103C84.7301 92.6588 85.4118 93.3076 85.4702 93.5631C85.5287 93.799 85.6647 94.4277 85.7621 94.9779C85.879 95.5085 86.1518 96.2553 86.366 96.609C86.6192 97.0414 86.7359 97.6309 86.7359 98.3777C86.7359 98.9869 86.8139 99.8122 86.9113 100.186C87.0866 100.991 87.0086 101.365 86.6191 101.365C86.0542 101.365 84.4768 100.402 83.6783 99.557C82.9967 98.8495 82.88 98.5939 82.88 97.9258C82.8994 97.4738 83.0551 96.9824 83.2498 96.7466C83.4835 96.4911 83.5614 96.1767 83.4835 95.9016C83.3861 95.4693 83.3473 95.489 82.88 96.1767C82.4321 96.8448 82.3735 96.8842 82.1398 96.5698C82.0035 96.3537 81.7891 96.2748 81.6527 96.3731C81.4775 96.4713 81.4386 96.3143 81.5359 95.7053C81.6138 94.9782 81.5944 94.8795 81.2635 94.8795C80.9713 94.8795 80.8932 94.7421 80.8932 94.1329C80.8932 92.6787 79.7442 91.4997 77.5046 90.6743L76.1605 90.2025L74.7389 90.5563C73.9599 90.7529 72.947 91.1263 72.4796 91.3621C71.7786 91.7551 71.3111 91.8139 69.5001 91.8532C68.3316 91.8532 67.1045 91.9711 66.8124 92.1087C66.0334 92.4231 65.352 92.3838 65.0209 91.9711C64.0471 90.8313 63.93 90.7527 63.2483 90.7527C62.8393 90.7527 61.7292 91.0081 60.7555 91.3225C57.3668 92.423 56.393 92.325 55.984 90.8315C55.7892 90.1437 55.8089 90.1044 56.8021 89.1611C58.1459 87.9035 58.5744 87.9034 59.8403 89.1807C60.9503 90.3008 61.2035 90.3205 62.703 89.4559C63.6184 88.9056 64.1832 88.8664 64.5338 89.2791C64.6701 89.4363 64.8455 89.5738 64.9428 89.5738C65.0401 89.5738 65.0594 89.4362 65.0011 89.2791C64.9232 89.063 65.0206 88.984 65.3321 88.984C65.8385 88.984 66.5398 88.5912 68.4483 87.2549ZM84.9832 97.8275C84.282 97.4344 84.0094 97.3558 84.0094 97.5523C84.0094 97.6703 85.2753 98.2205 85.509 98.2205C85.5869 98.2009 85.3531 98.0436 84.9832 97.8275ZM80.6984 91.4601C79.7441 90.458 78.9456 89.8095 78.9456 90.0257C78.9458 90.0651 79.5884 90.6744 80.3673 91.3425L81.7696 92.5806L80.6984 91.4601ZM74.447 89.2591C74.6024 89.1021 74.1738 89.2006 72.6357 89.6918C71.7787 89.9473 70.3958 90.2223 69.5583 90.2812C67.3383 90.4777 67.3383 90.8511 69.5389 90.6939C70.8827 90.6153 71.6814 90.4386 72.8305 89.9669C73.6679 89.6328 74.408 89.3181 74.447 89.2591Z" fill="black"/>
<path d="M79.744 93.1108C80.1529 92.8555 80.5035 93.2682 80.5035 94.015C80.5035 94.3883 80.6009 95.0761 80.7372 95.5477C80.9319 96.2944 80.9124 96.491 80.6204 96.9429C80.4451 97.2179 80.1726 97.4147 80.0556 97.3756C79.413 97.1791 79.1402 93.4842 79.744 93.1108Z" fill="black"/>
<path d="M54.7572 89.3971C55.0298 89.2399 55.1272 89.3183 55.3219 89.9273C55.8087 91.4994 55.8282 92.2464 55.4193 93.1896C55.0103 94.0936 54.679 94.2705 53.9584 93.9758C53.7054 93.8971 53.7249 93.7398 54.0364 92.8949C54.2507 92.3446 54.4063 91.4208 54.4063 90.7527C54.4063 89.8489 54.4845 89.5543 54.7572 89.3971Z" fill="black"/>
<path d="M53.1015 91.1066C53.2183 91.0477 53.4324 91.0281 53.5882 91.087C53.9192 91.2246 53.8219 92.2463 53.3739 93.3272L53.0821 94.0541H51.5044C50.629 94.0541 49.9286 93.9955 49.9271 93.9366C49.9271 93.7204 51.3098 92.6393 51.894 92.3838C52.1862 92.2659 52.5367 91.9515 52.673 91.696C52.7898 91.4406 53.0041 91.1852 53.1015 91.1066Z" fill="black"/>
<path d="M56.237 92.1287C56.4906 92.129 58.4958 93.1306 58.4963 93.2684C58.4963 93.5631 57.5225 93.8973 56.6461 93.8974C55.6919 93.8974 55.5748 93.6615 55.9642 92.6397C56.0616 92.3646 56.1786 92.1287 56.237 92.1287Z" fill="black"/>
<path fill-rule="evenodd" clip-rule="evenodd" d="M48.6805 83.2652C49.1478 82.2239 49.5373 81.7916 49.5374 82.3023C49.5374 82.4006 49.6349 82.4991 49.7322 82.4991C49.8491 82.4991 50.5504 82.7349 51.3099 83.0297L52.6924 83.58L52.5756 86.4295C52.4977 88.1588 52.5173 89.5343 52.6342 89.9273C52.8484 90.6151 52.5756 91.3225 51.894 91.8728C51.4461 92.2658 51.2901 92.1873 51.2901 91.5585C51.2901 90.6152 50.9592 90.6938 50.706 91.696C50.4334 92.8162 49.5959 93.7987 49.2063 93.4843C49.0701 93.3664 48.9533 93.0914 48.9533 92.8949C48.9533 92.6394 48.7779 92.5215 48.33 92.4822C47.59 92.4036 47.3368 91.932 48.0571 91.932C48.3103 91.932 48.6025 92.0104 48.661 92.1283C48.8948 92.5213 49.109 92.3053 49.6348 91.1262C50.2775 89.6523 50.2189 89.1609 49.0309 86.783C48.5635 85.8398 48.1744 84.9161 48.1744 84.7392C48.1744 84.5622 48.4078 83.894 48.6805 83.2652ZM50.1021 83.7763C50.3553 82.8134 50.2386 82.6759 49.8491 83.462C49.4206 84.2677 49.4597 85.7613 49.9271 86.7243C50.1802 87.2351 50.2774 87.3333 50.2189 87.019C49.9463 85.6826 49.9074 84.4838 50.1021 83.7763Z" fill="black"/>
<path fill-rule="evenodd" clip-rule="evenodd" d="M39.0401 79.8654C39.0985 79.9047 39.2154 80.5141 39.2543 81.2018C39.3712 82.5381 39.8969 83.7368 40.598 84.2282C41.2796 84.6998 40.8902 87.1958 39.7996 89.3575C39.2739 90.4381 37.1521 93.5022 36.9369 93.5039C36.8785 93.5039 36.6056 93.3466 36.333 93.1304C36.0408 92.9339 35.5148 92.6984 35.1838 92.6198C34.619 92.5018 34.2686 92.1283 34.7165 92.1283C35.1839 92.1283 37.6764 88.277 37.6572 87.5692C37.6377 87.4316 37.4041 87.7854 37.1119 88.375C36.4302 89.7505 34.405 91.9512 33.3728 92.423C32.5938 92.7768 32.5157 92.7767 31.2692 92.4426C30.5487 92.2461 29.9253 92.0496 29.8864 92.0103C29.8286 91.9509 30.2376 91.4598 30.7825 90.8903C31.6979 89.947 32.9832 88.1979 32.9832 87.9031C32.9828 87.8446 32.535 88.3357 32.0094 89.0036C31.4641 89.6914 30.5294 90.674 29.9062 91.185C28.9714 91.9907 28.718 92.1283 28.3091 91.9907C28.0364 91.9121 27.1403 91.8335 26.3223 91.8532C25.486 91.8532 24.8049 91.8336 24.8032 91.7944C24.8032 91.7747 25.3682 91.1064 26.0693 90.34C27.9584 88.2569 28.0169 87.8836 26.1473 89.7898C24.0439 91.9121 23.4596 92.2264 22.0379 92.0495C21.4343 91.9709 20.8111 91.7943 20.6357 91.6764C20.3435 91.4603 20.4603 91.3225 21.5702 90.6151C22.2518 90.1632 22.9334 89.5935 23.0699 89.3379C23.2647 88.9645 23.2064 88.984 22.5832 89.5342C21.6874 90.3203 20.246 91.0672 19.2722 91.2637C18.1038 91.4799 18.4351 91.008 20.3826 89.711C21.8042 88.7482 22.2325 88.3354 22.9531 87.2153C23.4205 86.4882 23.888 85.8199 24.0049 85.7413C24.1217 85.6823 24.2191 85.3288 24.2191 84.9947C24.2191 84.641 24.4723 83.8354 24.7838 83.1673L25.3485 81.9684L27.7444 81.8505C30.4904 81.7129 33.6648 81.2018 36.7809 80.3765C37.9685 80.0622 38.981 79.8263 39.0401 79.8654ZM38.9815 82.5187C38.3389 82.5384 37.8714 82.9116 37.6572 83.56C37.4819 84.1299 37.2287 84.3659 36.2744 84.8572C35.0475 85.486 34.9309 85.4073 35.3204 84.3461C35.4371 84.0516 35.4954 83.7768 35.4372 83.7371C35.3983 83.6978 34.9113 83.7173 34.3466 83.7959C33.4313 83.9138 33.1974 84.0514 32.4184 84.8964C31.7368 85.6234 31.3083 85.9185 30.6657 86.056C29.6725 86.2722 29.3411 86.095 29.6527 85.4858C30.0227 84.7981 29.9059 84.6605 29.01 84.6605C28.2701 84.6605 28.0363 84.7786 27.3353 85.4466C26.6731 86.0951 26.3808 86.2328 25.7576 86.2328C24.9203 86.2328 24.9398 86.2917 25.2903 85.0931C25.3682 84.8573 25.3292 84.6605 25.2123 84.6605C24.9786 84.6605 24.7449 85.0143 24.6864 85.4466C24.667 85.6038 24.5893 85.9182 24.5114 86.154C24.3945 86.5274 24.4723 86.5864 25.2317 86.6847C26.2444 86.8222 27.1014 86.4686 27.7052 85.6434C28.0168 85.1914 28.2895 85.0535 28.7764 85.0535H29.4385L29.2243 85.7413C29.1074 86.1147 29.0687 86.4882 29.1466 86.5471C29.2052 86.6257 29.7697 86.6061 30.3929 86.5275C31.425 86.4096 31.6003 86.3114 32.4961 85.3682C33.275 84.5429 33.6453 84.3068 34.21 84.2282L34.9501 84.1498L34.8139 84.9947C34.6776 85.997 34.7945 86.0362 36.0993 85.427C37.1899 84.9358 37.5989 84.5624 38.0663 83.6191C38.2805 83.2261 38.5726 82.8922 38.7284 82.8922C38.8647 82.8922 39.0597 82.7937 39.1181 82.6954C39.1764 82.5775 39.1178 82.499 38.9815 82.5187ZM27.1599 83.2065C26.9456 83.0689 26.5173 83.5602 26.6926 83.7371C26.9263 83.9728 27.3352 83.8745 27.3353 83.5995C27.3353 83.4423 27.2573 83.2654 27.1599 83.2065ZM30.2566 82.6954C29.9645 82.6954 29.8087 83.1082 30.0424 83.344C30.315 83.619 30.7628 83.2458 30.5683 82.9117C30.4904 82.7939 30.354 82.6955 30.2566 82.6954ZM34.0543 82.5187C34.0543 82.2042 33.7038 82.0274 33.509 82.2239C33.2364 82.4991 33.3727 82.9115 33.7233 82.8526C33.8985 82.8132 34.0543 82.6562 34.0543 82.5187ZM36.586 81.5162C36.4303 81.5162 36.2942 81.6541 36.2942 81.8113C36.2942 81.9684 36.4303 82.1059 36.586 82.106C36.7418 82.106 36.8782 81.9684 36.8783 81.8113C36.8783 81.654 36.7418 81.5162 36.586 81.5162Z" fill="black"/>
<path d="M75.6738 83.3048C76.1606 83.0691 76.7446 82.9512 77.0757 83.0101C77.9326 83.128 78.887 83.973 79.4323 85.0735C80.0556 86.292 82.1979 88.6109 83.6391 89.5934C84.5544 90.2223 84.7689 90.4777 84.9832 91.2442C85.1194 91.7353 85.1777 92.1872 85.1388 92.2463C84.944 92.4231 81.9252 90.006 81.0682 88.9644C78.7702 86.1739 78.2249 85.9183 75.8489 86.5275C74.8751 86.783 74.213 86.8421 73.2392 86.7438C72.519 86.6653 71.935 86.5278 71.9343 86.4491C71.9343 86.174 72.5768 84.3664 72.7327 84.1498C72.8301 84.0319 73.3366 83.8744 73.8819 83.8155C74.4077 83.7565 75.2259 83.521 75.6738 83.3048Z" fill="black"/>
<path d="M41.2795 85.7809C41.4158 84.8376 41.416 84.8177 42.0002 84.9356C42.3118 84.9945 43.7529 85.0535 45.194 85.0535H47.8041L48.7581 87.0582C49.8292 89.2591 49.9073 89.8093 49.3426 90.949C48.9142 91.8136 48.6414 91.9121 48.252 91.3817C48.0962 91.1852 47.9986 91.1458 47.9791 91.2833C47.979 91.8532 46.2848 91.5388 43.3831 90.4384C41.7861 89.8292 40.4615 89.318 40.4225 89.2787C40.4037 89.2572 40.5595 88.6685 40.7734 87.9819C40.9876 87.2941 41.221 86.2919 41.2795 85.7809Z" fill="black"/>
<path d="M53.004 86.1544C53.082 86.0758 53.2376 86.3707 53.3739 86.803C53.666 87.825 53.9776 90.5565 53.8218 90.6547C53.5686 90.8117 53.2181 90.399 53.0429 89.7506C52.8092 88.9644 52.7898 86.3706 53.004 86.1544Z" fill="black"/>
<path fill-rule="evenodd" clip-rule="evenodd" d="M58.282 80.2393C62.5861 80.6913 66.8709 81.792 69.2858 83.0497C70.7073 83.7963 70.8437 83.8355 71.0774 83.5212C71.2137 83.3443 71.3892 82.9514 71.4476 82.637C71.5255 82.3424 71.6422 82.1066 71.7395 82.1064C71.9148 82.1064 72.1291 83.0887 72.1292 83.8551C72.1292 84.4051 71.5843 86.2318 71.4282 86.2332C71.1751 86.2332 68.9546 84.5824 67.9224 83.6391C67.1434 82.912 66.9095 82.7746 67.2017 83.1873C67.6496 83.8358 68.7793 84.936 69.6557 85.6042L70.201 86.0169L69.5389 86.1348C69.1689 86.2134 68.2731 86.7047 67.5525 87.2353C66.1503 88.2572 65.2933 88.5913 63.9885 88.5913C63.5405 88.5913 62.8198 88.7682 62.3914 88.9844C61.3592 89.515 60.9891 89.4755 60.2296 88.7681C58.6326 87.2746 58.1069 87.2355 56.7241 88.5325C56.1986 89.0235 55.7311 89.3967 55.7111 89.3579C55.6722 89.3186 55.4384 88.1 55.1853 86.6851L54.7374 84.0714L55.5749 83.1477C56.0422 82.6172 56.4317 82.1849 56.4513 82.1652C56.4708 82.1259 56.8603 82.4993 57.3276 82.9905L58.1846 83.8551L57.0552 84.3857C55.6724 85.0146 55.7502 85.2114 57.1914 84.7004C59.0806 84.0323 59.0611 84.0714 57.7367 82.853L56.5875 81.7525L56.7823 80.9271L56.9966 80.1017L58.282 80.2393ZM64.3389 82.2831C64.339 82.5583 65.4297 83.9339 66.2671 84.7592C67.085 85.5453 67.2408 85.8401 66.8318 85.8401C66.4618 85.8401 64.5925 86.7832 64.9036 86.803C65.1179 86.8227 67.747 86.0761 68.0004 85.9189C68.0199 85.8992 67.2213 85.0541 66.1891 84.0126C65.1764 82.9907 64.3389 82.2045 64.3389 82.2831ZM63.0535 83.1873C61.8655 81.9296 61.4762 81.5952 61.7098 82.0668C61.8851 82.4205 62.3523 83.0888 62.7418 83.5408C63.1313 83.9927 63.5598 84.5035 63.6962 84.6804C63.9299 84.9556 63.7742 85.0934 62.2746 85.8205C61.3403 86.2722 60.6201 86.6845 60.6775 86.7243C60.8138 86.8618 64.6097 85.3102 64.67 85.1131C64.6895 85.0345 63.9688 84.1502 63.0535 83.1873ZM60.5412 83.1477C58.8082 81.1239 58.6911 81.0058 58.6911 81.2414C58.6911 81.5362 59.6647 82.9316 60.4826 83.7963L61.2422 84.6021L59.8205 85.1523C58.3404 85.7222 57.2694 86.4101 58.3988 86.0564C59.879 85.6044 61.5346 84.9951 61.6904 84.8576C61.7682 84.7592 61.2618 83.9926 60.5412 83.1477Z" fill="black"/>
<path d="M53.9972 82.7742C54.0751 82.8331 54.27 83.5603 54.3869 84.4053C54.5232 85.2503 54.718 86.4098 54.8154 86.9994C55.0685 88.5124 55.0296 88.9252 54.6792 89.0628C54.5039 89.1414 54.3285 89.1612 54.2895 89.1416C54.27 89.1022 54.0168 87.9623 53.7442 86.6063C53.2573 84.2875 53.2573 84.0909 53.5299 83.4032C53.7051 83.0103 53.8998 82.7156 53.9972 82.7742Z" fill="black"/>
<path fill-rule="evenodd" clip-rule="evenodd" d="M17.4027 77.1342C18.4738 76.9573 20.285 77.0163 21.2004 77.2718C22.2715 77.5469 23.1285 77.9596 24.8813 79.0405C25.5041 79.4136 26.1076 79.767 26.2249 79.8066C26.3417 79.8459 26.2835 80.1211 26.0499 80.514C25.7772 80.9857 25.5824 81.1233 25.2903 81.0447C25.0761 80.9857 24.4722 80.8681 23.9269 80.8091C23.0505 80.7109 22.8557 80.7499 21.9793 81.3394C20.8497 82.1255 19.7785 83.5996 19.6227 84.6804C19.4279 85.8791 19.0971 85.3682 19.2334 84.091C19.3697 82.8726 19.2918 82.9315 18.4739 84.5037C17.7533 85.8792 16.8379 86.8223 15.7474 87.3333C14.2088 88.0604 13.8777 87.9425 14.8904 87.0386C15.3578 86.6259 15.9615 85.8986 16.2147 85.427L16.6819 84.5625L15.5913 85.6042C13.936 87.1566 12.8453 87.6084 10.5862 87.6084C9.35925 87.6281 8.58007 87.7066 8.24899 87.9031C7.50893 88.3158 7.35342 88.257 7.8403 87.7264C8.32723 87.2155 9.28146 86.744 10.5862 86.4099C11.9105 86.0759 11.1121 85.7811 9.02832 85.8793C7.43132 85.9382 7.25574 85.9775 6.51567 86.5867C5.542 87.3726 5.42506 86.9795 6.32083 85.9381C7.19724 84.9358 7.82075 84.6607 9.59303 84.5821C10.4303 84.5428 11.287 84.4052 11.5014 84.2874C11.7935 84.1105 11.7157 84.0907 11.1509 84.189C10.7614 84.2479 9.57347 84.1499 8.52183 83.973C6.24326 83.58 5.30832 83.6977 4.08141 84.4641C2.99081 85.1715 2.93223 84.9162 3.92539 83.8551C4.3928 83.3245 4.99672 82.9509 5.71732 82.6954L6.78851 82.3223H5.75613C4.56815 82.3026 3.41911 81.7915 2.81538 81.0055C2.58187 80.711 2.44568 80.4361 2.48432 80.3965C2.52327 80.3375 2.93223 80.4946 3.36068 80.7304C4.23708 81.1627 4.60721 81.2019 7.66488 81.0447C10.2746 80.9071 10.2355 80.9269 9.33959 80.7108C8.38534 80.4749 7.54781 79.8655 7.17779 79.158C7.02217 78.844 6.88617 78.5495 6.88593 78.4902C6.88593 78.4313 7.33377 78.6668 7.89852 79.0205C8.73595 79.5511 9.08654 79.6495 10.0797 79.6495C11.0925 79.6495 11.5404 79.5118 13.1179 78.7453C14.9096 77.861 16.3899 77.3111 17.4027 77.1342ZM18.6489 80.4357C19.759 79.8658 19.4476 79.7674 18.279 80.3177C17.5974 80.6321 13.8972 83.7568 13.8972 84.0122C13.8972 84.1498 14.8903 83.4029 16.3315 82.1256C17.0909 81.4575 18.123 80.6912 18.6489 80.4357ZM15.4357 79.4331C15.6691 79.1976 15.221 79.4336 13.9943 80.1605C13.2348 80.6124 12.2808 81.1428 11.8522 81.3394C11.4238 81.5359 11.2094 81.7129 11.3652 81.7129C11.93 81.7129 14.7151 80.1603 15.4357 79.4331Z" fill="black"/>
<path d="M38.631 76.1517C38.631 75.7586 38.6309 75.7585 39.0983 76.1909C39.3515 76.4267 39.8968 76.7212 40.3057 76.8195C40.7147 76.9374 41.26 77.2128 41.4937 77.4289L41.9028 77.822L42.3895 77.1146L42.8572 76.4068L43.5193 77.2522C44.3762 78.3526 45.8565 79.6496 46.8497 80.1605C47.5507 80.5339 47.6287 80.6125 47.5118 81.1431C47.4145 81.6736 47.4728 81.7523 47.9791 81.9488C48.6802 82.1846 48.6997 82.2632 48.0765 83.4816L47.5899 84.4249L46.3044 84.5625C44.8827 84.7197 42.8376 84.5626 41.6886 84.2286C40.2279 83.7962 39.6048 82.3615 39.6048 79.4531C39.6048 78.1561 39.6436 77.9792 39.9552 77.9792C40.2863 77.9792 40.3449 78.215 40.4617 79.787C40.6565 82.5579 40.6758 82.6171 41.7274 83.0297C42.7011 83.4227 45.8758 83.521 46.2264 83.1673C46.3238 83.069 45.6615 82.9905 44.4151 82.9905C42.3312 82.9905 41.299 82.7347 41.0458 82.1452C40.9874 81.9483 40.8706 80.8675 40.8122 79.6887C40.7343 77.6648 40.7148 77.5861 40.2669 77.5861C39.6827 77.5861 38.6312 76.6823 38.631 76.1517Z" fill="black"/>
<path fill-rule="evenodd" clip-rule="evenodd" d="M57.1134 77.3897C57.4447 77.3898 58.5742 77.5273 59.6257 77.6844C64.2803 78.3919 67.6497 78.9617 68.9156 79.2368L70.2786 79.5315L70.7071 79.0205C71.0382 78.6275 71.1551 78.5492 71.233 78.7653C71.272 78.9227 71.4475 79.4926 71.6227 80.0034C71.9148 80.9465 71.9146 80.9662 71.3498 82.106L70.7657 83.2656L69.6557 82.5778C67.8055 81.4577 64.0271 80.4946 59.2166 79.905C56.899 79.6299 56.8406 79.61 56.6263 78.1951C56.49 77.3896 56.5097 77.3897 57.1134 77.3897ZM70.7071 80.9467C70.4734 80.7699 70.3957 80.7894 70.3178 81.0055C70.1815 81.3789 70.532 81.6344 70.7851 81.379C70.902 81.2611 70.8824 81.1039 70.7071 80.9467ZM68.8764 80.4553C68.6622 80.2392 68.4285 80.3374 68.4285 80.6124C68.4285 80.7696 68.5066 80.9465 68.6039 81.0055C68.7987 81.1429 69.0517 80.6321 68.8764 80.4553ZM66.1111 79.787C65.9942 79.7477 65.8968 79.8657 65.8968 80.0426C65.8968 80.2194 65.9942 80.3374 66.1111 80.2981C66.2279 80.2588 66.3253 80.1408 66.3253 80.0426C66.3253 79.9443 66.2279 79.8264 66.1111 79.787ZM63.657 79.1584C63.5012 79.1584 63.3648 79.2959 63.3648 79.4531C63.3648 79.6103 63.5013 79.7478 63.657 79.7479C63.8128 79.7479 63.9492 79.6103 63.9493 79.4531C63.9493 79.2959 63.8128 79.1584 63.657 79.1584ZM60.8719 78.6078C60.6968 78.549 60.6191 78.6473 60.6775 78.8437C60.7359 79.2171 61.1253 79.2761 61.1253 78.9225C61.1253 78.8046 61.0082 78.6667 60.8719 78.6078ZM58.8075 78.3918C58.6323 78.1168 58.3599 78.1168 58.1846 78.3918C58.0288 78.6669 58.535 79.001 58.7687 78.7653C58.8466 78.6867 58.866 78.5098 58.8075 78.3918Z" fill="black"/>
<path d="M56.1202 77.3893C56.5097 78.3326 56.6265 80.1409 56.3539 81.1039C56.12 82.0275 54.9517 83.403 54.6011 83.1869C54.2701 82.9903 54.387 81.9684 54.796 81.2806C55.2439 80.5339 55.3023 79.6692 54.9128 78.9421C54.6207 78.3722 54.7375 78.0183 55.4581 77.2322L55.8672 76.7607L56.1202 77.3893Z" fill="black"/>
<path fill-rule="evenodd" clip-rule="evenodd" d="M43.6365 75.228C43.6949 75.228 44.1624 75.7193 44.7077 76.3088C45.2336 76.8984 46.3439 77.9201 47.1424 78.5686L48.6028 79.7479L49.1675 79.3352C49.479 79.1191 49.7319 78.8441 49.7322 78.7457C49.7322 78.6475 49.8493 78.5686 50.0051 78.5686C50.2778 78.5686 51.6797 80.0229 51.6798 80.3177C51.6798 80.7304 52.3032 80.6713 52.829 80.2193C53.199 79.9049 53.4524 79.8067 53.5303 79.9442C53.9004 80.5534 53.3159 83.2066 52.829 83.1477C52.4005 83.1083 50.4334 82.2239 49.8297 81.8309C49.3819 81.5362 49.3039 81.3789 49.4012 80.8091C49.518 80.082 49.518 80.082 48.33 80.1409C47.142 80.1998 45.5063 79.0991 43.9094 77.1734C43.1303 76.2498 43.0717 76.1318 43.3055 75.6994C43.4612 75.4441 43.5975 75.2281 43.6365 75.228ZM51.797 80.9859C51.6023 80.7697 50.531 80.7306 50.4142 80.9271C50.3559 81.0254 50.5309 81.1628 50.8034 81.2414C51.3292 81.379 52.0109 81.202 51.797 80.9859Z" fill="black"/>
<path d="M48.8167 80.3373C49.1088 80.3373 49.1671 80.4359 49.0697 80.77C49.0113 81.0254 48.9529 81.3398 48.9529 81.4774C48.9528 81.6541 48.758 81.713 48.427 81.6737C47.765 81.595 47.5897 80.9662 48.096 80.5928C48.2907 80.4552 48.6024 80.3373 48.8167 80.3373Z" fill="black"/>
<path d="M34.2298 76.4268C35.8849 76.1911 38.2407 76.1712 38.2417 76.3872C38.2417 76.4658 38.4558 76.8591 38.709 77.2522C39.079 77.8024 39.1763 78.1168 39.0789 78.6474C39.0204 79.06 38.8451 79.3746 38.6504 79.4335C36.6445 80.0231 34.2102 80.593 32.3016 80.9271C29.9061 81.3201 26.1276 81.7325 25.9913 81.5949C25.7972 81.3978 26.751 80.0228 27.6272 79.1976C29.1463 77.8023 31.62 76.7609 34.2298 76.4268Z" fill="black"/>
<path d="M54.2895 78.9617C54.7958 78.9618 54.9709 80.0625 54.5619 80.7896C54.3283 81.2217 54.3283 81.2021 54.1921 80.6324C54.1142 80.2983 54.0555 79.8068 54.036 79.4923C54.0166 79.1583 54.1142 78.9617 54.2895 78.9617Z" fill="black"/>
<path fill-rule="evenodd" clip-rule="evenodd" d="M49.9465 62.1197C52.5756 62.2376 54.9906 62.7094 57.2302 63.5741L58.204 63.9476L58.1454 65.2052C58.048 67.1704 57.3859 70.1968 56.6263 72.0637C55.5552 74.7756 52.9457 78.3521 52.2445 78.0771C51.7381 77.861 50.297 75.7384 49.3232 73.7536C47.921 70.8649 47.5705 69.3124 47.4536 65.3232L47.3364 62.0018L49.9465 62.1197ZM53.5688 63.8884C52.3418 63.7902 51.6602 64.1833 50.7254 65.5195C48.3105 68.88 49.7321 74.0486 53.0429 74.0487C53.8608 74.0487 54.0751 73.9503 54.7568 73.2821C55.7695 72.2799 56.1006 71.2187 55.6917 70.2362C55.3217 69.3322 54.5814 68.8409 54.036 69.1357C53.5104 69.4109 53.4909 70.1182 54.0166 70.1182C54.4062 70.1182 54.7956 70.6489 54.7956 71.1991C54.7955 71.8868 54.1337 72.9084 53.5105 73.2033C52.9263 73.4981 52.8287 73.4982 52.3807 73.1837C51.5239 72.6335 51.2513 71.8278 51.2513 69.8431C51.2513 67.9369 51.4847 66.7575 52.0885 65.5587C52.9259 63.9081 54.5036 64.0655 55.1853 65.8734C55.4384 66.5612 55.2825 67.1114 54.7956 67.2686C54.3089 67.4259 54.5231 67.9564 55.0878 67.9564C55.8669 67.9564 56.159 67.3668 56.159 65.8143C56.159 64.4191 56.1395 64.38 55.7306 64.4782C55.4579 64.5568 55.1658 64.478 54.9516 64.2815C54.7374 64.1046 54.153 63.9277 53.5688 63.8884Z" fill="black"/>
<path fill-rule="evenodd" clip-rule="evenodd" d="M48.2326 60.8821C52.1471 60.9017 55.127 61.4125 58.0678 62.5916L59.2752 63.083V64.2031C59.2752 69.0178 57.1717 74.7168 54.0947 78.1755C53.2767 79.0991 52.5364 79.8853 52.4195 79.9246C51.9714 80.0814 50.102 77.7825 48.6999 75.3263C47.5703 73.3218 46.9081 71.2581 46.5381 68.5855C46.207 66.188 46.0513 61.4917 46.285 61.118C46.4019 60.9608 47.0056 60.8821 48.2326 60.8821ZM47.064 64.8909C47.1613 68.7427 47.6288 70.9831 48.8947 73.7344C49.6542 75.3851 51.0955 77.4485 52.0109 78.2739C52.5172 78.7062 52.5755 78.7062 52.926 78.4114C53.744 77.6843 55.6333 75.0904 56.237 73.8719C56.5876 73.1645 57.0742 72.0049 57.2884 71.2975C57.7753 69.7646 58.4572 66.129 58.5351 64.6158L58.5933 63.5349L56.4513 62.9259C55.2633 62.5722 53.4325 62.1594 52.3613 61.9826C51.2902 61.8253 49.6348 61.6484 48.6805 61.6091L46.9665 61.5307L47.064 64.8909Z" fill="black"/>
<path fill-rule="evenodd" clip-rule="evenodd" d="M46.5187 73.2625C47.1029 73.2625 47.181 73.3411 47.6873 74.5398C47.9794 75.2472 48.5637 76.3087 48.9727 76.8983C49.3816 77.5074 49.7322 78.0577 49.7322 78.1559C49.7322 78.2346 49.5177 78.5095 49.2452 78.7649C48.7777 79.1973 48.6998 79.2172 48.2908 78.9617C47.1222 78.2346 45.4086 76.7211 44.6685 75.7778L43.8504 74.7561L44.3763 74.3042C44.6489 74.0488 44.9994 73.852 45.1358 73.852C45.2916 73.852 45.506 73.7145 45.6423 73.5572C45.7787 73.4001 46.1682 73.2625 46.5187 73.2625ZM46.207 75.719C46.0707 75.5815 45.8371 75.8174 45.8371 76.0925C45.8372 76.2103 45.9345 76.1905 46.0708 76.0529C46.1875 75.935 46.2459 75.7779 46.207 75.719Z" fill="black"/>
<path d="M59.0027 72.28C59.2949 72.6141 59.7818 73.0269 60.0934 73.1841C60.4244 73.361 60.9503 73.7933 61.2814 74.1667C61.593 74.5597 62.4109 75.1294 63.0535 75.4635C63.7156 75.7975 64.4946 76.2693 64.7868 76.5248C65.079 76.7803 65.6439 77.036 66.0529 77.1146C66.4424 77.1932 67.2017 77.4683 67.747 77.704C68.2728 77.9595 69.0909 78.2149 69.5583 78.2935C70.0062 78.3524 70.4347 78.4899 70.4933 78.5882C70.6685 78.9026 70.0648 79.001 69.2858 78.7849C68.6626 78.6277 59.9569 77.193 59.5869 77.193C59.509 77.193 59.47 76.8786 59.47 76.5052C59.47 75.5619 59.0026 74.7168 58.282 74.3238C57.6199 73.9897 57.6197 73.8128 58.204 72.4176L58.5157 71.671L59.0027 72.28Z" fill="black"/>
<path d="M59.2364 69.3324C59.2949 69.3325 59.8402 69.7254 60.4244 70.1774C62.0214 71.4351 63.8327 72.5554 65.9166 73.5576C67.7084 74.4026 70.4932 75.2279 71.5839 75.228C71.9928 75.228 72.1486 75.3458 72.246 75.719C72.4602 76.5836 72.2266 76.8591 71.4282 76.7019C70.7857 76.584 70.7269 76.6232 70.8631 76.9375C71.1942 77.7825 71.1165 77.8809 70.026 77.8416C68.7211 77.7826 68.0589 77.4681 67.5525 76.6623C67.1241 75.955 66.7733 75.8177 66.968 76.4072C67.1237 76.8787 66.7539 76.9178 65.8386 76.5248C65.0986 76.2103 64.4363 75.5227 64.2415 74.8349L64.0859 74.3434L63.9299 74.7957L63.7548 75.2475L62.9953 74.8545C62.1774 74.4221 61.3202 73.5184 61.1253 72.8502C61.0085 72.5359 60.9503 72.4963 60.8335 72.6927C60.4245 73.3215 58.886 71.73 58.8859 70.6885C58.8859 70.433 58.9443 70.0202 59.0027 69.7647C59.0807 69.5289 59.178 69.3324 59.2364 69.3324Z" fill="black"/>
<path fill-rule="evenodd" clip-rule="evenodd" d="M69.7923 58.0325C69.4418 57.6002 69.8508 57.6397 71.5257 58.2292C72.324 58.4846 73.0248 58.6612 73.1224 58.6023C73.4145 58.4255 74.4276 59.0937 74.9729 59.8012L75.4984 60.5086L75.0897 61.2556C74.856 61.6683 74.6612 62.3365 74.6612 62.7295V63.4369H75.5376C76.2192 63.4369 76.414 63.358 76.414 63.1222C76.4139 62.867 76.2775 62.8277 75.7324 62.9259C75.0897 63.0634 75.0505 63.0241 75.0505 62.5328C75.0505 62.2577 75.2453 61.6682 75.479 61.2556C75.8101 60.6464 76.1998 60.3514 77.2709 59.8208C78.0301 59.4672 78.6919 59.1923 78.7314 59.2313C78.9262 59.4082 78.0303 61.4522 77.5434 61.9042L76.9981 62.4148L77.6602 62.8275C78.0107 63.0633 78.5367 63.2402 78.8288 63.2402C79.4326 63.2402 79.491 63.5352 78.9262 63.83C78.5563 64.0462 78.5561 64.0855 78.8482 64.5374C79.1209 64.9501 79.1209 65.0089 78.8482 65.0089C78.6922 65.0088 78.108 64.7929 77.5434 64.5178C76.4333 63.9676 76.3362 63.9477 76.492 64.2031C76.6088 64.38 75.7128 64.6158 74.8949 64.6158H74.4078L74.5444 68.7626C74.6223 71.042 74.7584 73.0856 74.8363 73.3217C74.9531 73.6165 75.3038 73.8129 76.1411 74.0291C77.0759 74.2846 77.2903 74.4223 77.3097 74.7761C77.3292 75.0119 77.3879 75.3458 77.4658 75.5227C77.641 75.9943 75.9076 77.586 75.2259 77.5861C74.6222 77.5861 74.3106 77.0556 74.7781 76.8591C75.0311 76.7608 75.0702 76.5642 74.9729 75.857C74.8366 74.7958 74.5831 74.4418 73.9599 74.4418C73.6483 74.4418 73.4147 74.6385 73.181 75.0512L72.8693 75.6602L72.4408 75.2475C72.1876 75.0117 71.7396 74.8349 71.389 74.8349C70.8634 74.8348 70.3962 74.5403 70.6101 74.3438C70.649 74.2848 71.175 74.3436 71.7593 74.4222C72.8304 74.599 73.2004 74.5401 72.7525 74.265C72.363 74.0292 72.9863 73.5968 73.4926 73.754C73.8042 73.8522 73.8819 73.7934 73.8819 73.4201C73.8819 72.6736 73.2592 66.0948 73.181 66.0114C72.9278 65.7363 72.9277 66.4632 73.2004 69.1357C73.5899 73.1054 73.5898 73.2629 73.103 73.2629C72.6745 73.2628 72.2655 72.575 72.0318 71.4942C71.9539 71.1209 71.6424 70.5115 71.3308 70.1578C70.6687 69.411 70.6297 69.0573 71.1166 68.2516C71.7787 67.1707 71.7593 66.8761 71.0972 67.6425L70.4351 68.4283L70.3178 67.9176C70.1231 67.1905 70.3376 66.2275 70.9023 65.2252C71.2139 64.675 71.2918 64.3997 71.136 64.4586C70.9802 64.4979 70.6688 64.9304 70.4351 65.402C69.8313 66.5614 69.8311 68.4286 70.3959 69.5684L70.8049 70.3741L70.279 70.7868C69.7728 71.1994 69.7533 71.2781 69.8312 72.8698C69.9091 74.8546 70.0842 74.8153 67.046 73.5772C64.6896 72.6143 62.3331 71.2583 60.6192 69.8631C59.5286 68.9591 59.4312 68.8411 59.5481 68.2712C59.8012 67.0528 60.5607 65.8539 62.0797 64.3015C63.9104 62.4739 65.3712 61.6485 67.7082 61.1376C69.0325 60.8428 69.4416 60.8427 70.7269 61.0392C71.5448 61.1768 72.538 61.3341 72.9081 61.3931L73.59 61.4915L73.0641 61.1768C72.363 60.7641 70.0064 60.4694 68.6625 60.607C65.5854 60.9214 62.4109 62.7491 60.5412 65.2448L59.6455 66.4633L59.6649 64.8909C59.6843 64.046 59.6843 63.2011 59.6843 63.0438C59.6648 62.867 59.3726 62.6312 59.0416 62.474L58.3988 62.2185L59.2752 61.845C59.7621 61.6288 60.6385 61.3734 61.2228 61.2948L62.294 61.1572L61.4762 61C61.009 60.9215 60.639 60.784 60.6387 60.6857C60.6387 60.6071 60.9699 60.3711 61.3594 60.1943C61.9241 59.9192 62.3721 59.8797 63.5406 59.9583L65.0209 60.0763L64.1053 59.5852C63.5795 59.3298 63.1703 59.0544 63.1703 58.9954C63.1711 58.9169 63.9696 58.8973 64.9234 58.9562L66.6762 59.035L66.0917 58.6615C65.7801 58.465 65.5076 58.2486 65.5076 58.1896C65.5091 58.0328 67.8446 58.2684 68.3315 58.4452C68.6625 58.5827 68.6822 58.5434 68.4875 58.288C68.3512 58.1309 68.2925 57.9344 68.3703 57.8753C68.5456 57.6985 68.5263 57.6985 69.3441 58.0325C69.9478 58.288 70.0066 58.288 69.7923 58.0325ZM75.7518 75.7194C75.5766 75.2674 75.4789 75.2084 75.401 75.4639C75.2649 75.7784 75.7128 76.6034 75.8881 76.4072C75.9465 76.3483 75.8881 76.0534 75.7518 75.7194ZM76.5696 75.2475C76.297 74.8154 76.1024 74.7368 75.9467 75.0116C75.8298 75.2081 76.5503 75.9354 76.7256 75.7782C76.784 75.6995 76.7059 75.4833 76.5696 75.2475ZM69.2858 66.3845C69.5974 65.4413 69.5973 65.2252 69.2272 65.6575C68.643 66.3847 68.6237 68.7232 69.1884 69.6272C69.4221 70.0202 69.4221 70.0202 69.3053 69.6272C68.9937 68.6839 68.9937 67.2295 69.2858 66.3845ZM72.9861 64.4195C72.9472 64.4195 72.9082 64.498 72.9081 64.6158C72.9081 64.714 73.0056 64.8125 73.1224 64.8125C73.2197 64.8125 73.2588 64.7141 73.2004 64.6158C73.1419 64.498 73.0445 64.4195 72.9861 64.4195ZM76.1803 61.7862C76.4335 61.2163 76.3749 61.1375 76.0243 61.5699C75.9074 61.7271 75.8297 61.9434 75.8687 62.0809C75.9076 62.1987 76.044 62.0809 76.1803 61.7862ZM73.8043 59.3493C73.4537 59.0349 73.4538 59.0349 73.6875 59.4673C73.8043 59.7227 73.96 59.8797 74.0379 59.8208C74.0962 59.7421 73.9989 59.5457 73.8043 59.3493Z" fill="black"/>
<path d="M73.3366 75.4831C73.7261 74.8346 74.1353 74.6578 74.369 75.0312C74.5051 75.2478 74.0962 77.1734 73.8625 77.4681C73.7845 77.5465 73.5508 77.2908 73.3366 76.8783C72.9666 76.1513 72.9666 76.1316 73.3366 75.4831Z" fill="black"/>
<path d="M56.6655 75.6206C57.094 74.8346 57.2498 74.6773 57.5225 74.8345C58.0483 75.1292 58.3208 75.542 58.4377 76.328L58.5545 77.0554L57.5225 76.9179C56.9385 76.8393 56.3933 76.7213 56.3151 76.6819C56.2177 76.623 56.3929 76.1512 56.6655 75.6206Z" fill="black"/>
<path d="M43.4413 73.3413C43.8308 73.0465 44.2982 73.0465 44.4151 73.3609C44.454 73.4789 44.0061 74.1076 43.4219 74.7757C42.8376 75.4635 42.3118 76.1906 42.2339 76.4068C42.0586 76.9374 41.6691 76.7997 41.5911 76.1905C41.5331 75.7186 42.7013 73.9113 43.4413 73.3413Z" fill="black"/>
<path d="M38.8258 75.2084C38.8258 74.6778 39.1763 74.7564 40.1695 75.4835C41.2406 76.2695 41.3771 76.6035 40.6566 76.6036C39.9945 76.6036 38.8261 75.7193 38.8258 75.2084Z" fill="black"/>
<path d="M38.631 72.8306C38.631 71.9267 38.8842 71.8871 39.819 72.6535C40.3838 73.1448 40.5004 73.3415 40.4225 73.8132C40.3836 74.1276 40.4423 74.5795 40.5592 74.8153C40.8512 75.3262 40.6952 75.3262 39.8772 74.8153C38.9815 74.2651 38.631 73.7148 38.631 72.8306Z" fill="black"/>
<path fill-rule="evenodd" clip-rule="evenodd" d="M42.9158 68.9198C43.4804 68.8412 43.6556 68.9003 43.9672 69.2737C44.3372 69.765 45.6422 70.5117 46.0902 70.5117C46.246 70.5117 46.4214 70.7671 46.4798 71.0815C46.5383 71.396 46.6551 71.8677 46.7135 72.1428C46.8303 72.575 46.7717 72.6536 46.207 72.7715C45.8565 72.8501 45.4086 73.0074 45.2138 73.1254C44.9412 73.3022 44.7852 73.2432 44.3763 72.8698L43.8698 72.3784L43.052 73.2629C42.5846 73.7542 42.0391 74.4028 41.8054 74.7369C41.455 75.228 41.3576 75.2673 41.085 75.0512C40.8903 74.894 40.7734 74.4811 40.7734 74.0291C40.7734 73.3611 40.8708 73.1841 41.7666 72.4767C42.3117 72.0445 42.9153 71.6907 43.1102 71.6906C43.3049 71.6906 43.5388 71.5925 43.6167 71.4746C43.8699 71.0423 42.6625 71.4942 41.6498 72.182C41.1239 72.5554 40.6563 72.8108 40.6174 72.7715C40.4229 72.5943 40.7928 71.73 41.3769 71.0423C41.9806 70.2956 42.0003 70.2954 43.0908 70.4329C43.6945 70.4919 44.123 70.4919 44.0258 70.3937C43.9479 70.3151 43.5194 70.1972 43.052 70.1382C42.3315 70.04 42.2339 69.9614 42.2339 69.5292C42.2339 69.1165 42.351 69.018 42.9158 68.9198ZM46.0316 71.9265C45.7591 71.9265 45.6617 71.9659 45.7979 72.0249C45.9148 72.0642 46.1487 72.0642 46.285 72.0249C46.4018 71.9659 46.3042 71.9265 46.0316 71.9265Z" fill="black"/>
<path d="M37.2679 67.1903C37.891 67.1707 38.3973 67.4851 38.1443 67.7209C38.0274 67.8192 36.1577 68.5858 33.9569 69.4112C31.7562 70.2563 27.6663 71.8677 24.8619 72.9878C22.0769 74.1079 19.6423 75.0316 19.4865 75.0316C18.9023 75.0315 18.9413 74.6384 19.5645 74.265C20.2266 73.8523 23.5764 72.4569 31.6197 69.2537C34.4631 68.1139 36.9953 67.1903 37.2679 67.1903Z" fill="black"/>
<path fill-rule="evenodd" clip-rule="evenodd" d="M75.5372 64.9893C77.6211 64.6749 77.9719 64.8125 77.9719 65.913V66.758L83.3275 66.8759L81.5747 67.3278C80.6204 67.5833 79.5102 67.8585 79.1207 67.9764C78.0691 68.2516 77.8354 68.7626 77.5822 71.4154C77.4655 72.6912 77.3488 73.7709 77.3097 73.8128C77.2708 73.8521 76.7448 73.7345 76.1605 73.5576L75.0893 73.2429L74.9725 69.7647C74.8946 67.8585 74.8166 66.0111 74.7971 65.6967C74.7581 65.1465 74.8168 65.1072 75.5372 64.9893ZM76.5696 65.8734C76.4138 65.7752 76.3943 65.9915 76.4722 66.6596C76.589 67.4455 76.5501 67.5831 76.3165 67.485C76.1607 67.426 76.0243 67.4655 76.0243 67.5638C76.0245 67.7996 76.6865 68.1532 77.1149 68.1532C77.4265 68.1532 77.4264 68.1334 77.1343 67.7993C76.9396 67.6027 76.8033 67.1117 76.8032 66.7188C76.8032 66.3258 76.7059 65.952 76.5696 65.8734Z" fill="black"/>
<path d="M44.7271 67.1707C45.584 66.6401 45.8371 66.6796 45.8371 67.3674C45.8372 67.6819 45.9345 68.3892 46.0514 68.9394C46.1682 69.4896 46.2266 70.0005 46.1682 70.0398C46.1098 70.0988 45.6229 69.9219 45.0776 69.6468C44.1234 69.1555 44.0844 69.0966 44.0844 68.3499C44.0844 67.6621 44.1818 67.5047 44.7271 67.1707Z" fill="black"/>
<path d="M40.1695 65.4608C40.8316 65.0088 41.2214 65.0088 42.3899 65.4412C43.052 65.6966 43.052 65.7949 42.2731 66.2861C41.942 66.5023 41.6306 66.8561 41.5915 67.0723C41.5526 67.4064 41.6109 67.3671 41.942 66.9347C42.4289 66.3059 43.5001 66.0308 44.2206 66.3649L44.7271 66.6008L44.2012 67.1315C43.9286 67.4459 43.6947 67.8586 43.6947 68.0944C43.6947 68.4677 43.5582 68.5069 41.5135 68.5855C39.1182 68.7034 38.7871 68.5856 38.787 67.6817C38.787 66.9939 39.41 65.9717 40.1695 65.4608Z" fill="black"/>
<path d="M9.80727 64.9497C9.32037 65.5982 8.34644 66.4235 7.68428 66.7772C6.73001 67.2685 6.04841 67.3472 4.72413 67.1311C3.47769 66.9149 3.3217 66.9344 2.50373 67.3274C1.52991 67.799 -0.573097 67.9562 0.14748 67.5042C0.361898 67.3664 0.984813 66.8556 1.52995 66.3645C2.85429 65.1854 3.28287 65.0873 4.95777 65.6375C6.43787 66.1091 6.36008 66.1288 8.3464 64.9105C8.77487 64.6354 9.37891 64.4191 9.67104 64.4191H10.2163L9.80727 64.9497Z" fill="black"/>
<path fill-rule="evenodd" clip-rule="evenodd" d="M44.6293 54.4163C45.5641 54.1216 46.3821 53.9252 46.4406 53.9841C46.5185 54.043 46.6356 54.6917 46.7135 55.4188L46.8497 56.7549L45.9539 57.1871C45.4671 57.423 45.0578 57.6984 45.0578 57.777C45.0581 57.8556 45.4281 57.9537 45.8953 57.9537C47.4728 57.993 47.8428 58.1699 48.5244 59.1918C48.8554 59.7025 49.1475 60.2133 49.1477 60.3118C49.1477 60.4101 48.5051 60.489 47.7067 60.489C46.0123 60.489 45.5252 60.7838 45.7199 61.7074C45.8172 62.1592 45.759 62.2577 45.4281 62.2577C45.2138 62.2577 44.9995 62.1003 44.9216 61.9038C44.7463 61.4125 43.8697 60.489 43.5581 60.489C43.1493 60.4891 43.2662 60.7639 43.7529 60.98C43.9867 61.098 44.3372 61.4912 44.5125 61.8646C44.7072 62.2379 45.0577 62.5913 45.2914 62.6504C45.6809 62.7486 45.7201 62.8865 45.7785 64.4586C45.8369 66.3844 45.6812 66.6003 44.5517 66.0698C43.7532 65.6964 43.6946 65.3037 44.3957 65.1269C44.7657 65.0286 44.8631 64.9302 44.7073 64.773C44.5515 64.6157 44.2592 64.6945 43.6749 65.0089C42.9157 65.4017 42.8182 65.4018 42.6041 65.1269C42.4873 64.95 42.1561 64.8122 41.864 64.8121C41.533 64.8121 41.3771 64.7337 41.4549 64.5962C41.6302 64.3407 41.007 63.6333 40.598 63.6333C40.3253 63.6333 40.3254 63.6724 40.5786 63.8296C41.0264 64.1047 40.6952 64.2618 40.0915 64.026C39.7994 63.9081 39.5075 63.8495 39.4685 63.9084C39.4296 63.9477 39.6827 64.0852 40.0333 64.2031L40.6566 64.4191L39.9747 64.8909C39.2152 65.4215 38.631 66.1879 38.631 66.6792C38.631 66.9346 38.514 66.9738 38.0077 66.8756C37.0924 66.679 36.4886 66.2467 36.4886 65.7751C36.4887 64.8318 38.0272 62.8472 38.7672 62.8471C38.8841 62.8471 39.0982 62.6702 39.2345 62.4344C39.6046 61.9038 40.2864 62.0807 41.3381 62.9847C41.786 63.358 42.1365 63.574 42.1365 63.4561C42.1363 63.2203 41.669 62.729 41.0458 62.3361C40.6175 62.0413 40.5981 62.0413 40.9876 61.6483C41.377 61.2553 41.3771 61.2553 42.3313 61.7858C42.8571 62.0806 43.3441 62.4738 43.4025 62.6704C43.5388 63.0632 43.8891 63.1811 43.8892 62.8275C43.8892 62.5917 43.013 61.6877 42.4287 61.3339C42.1756 61.1768 42.1171 61.0391 42.2533 60.9409C42.3701 60.8623 42.6622 60.4102 42.9154 59.9779C43.4607 58.9757 43.9478 58.6807 45.1358 58.6807C45.7785 58.6611 46.2071 58.779 46.6161 59.0738C47.2782 59.5847 47.4145 59.6043 47.2782 59.231C47.1222 58.7986 45.973 58.3272 45.0772 58.3272C44.2182 58.3272 44.1833 58.3452 44.5253 57.1856C44.3147 57.4031 44.0516 57.6128 43.8729 57.8526C43.7814 58.1271 43.2989 58.8149 42.721 59.4865C41.6693 60.7245 41.4744 60.8621 40.6566 60.9996C38.9038 61.2551 35.7486 60.941 32.8857 60.2139C27.7052 58.9168 23.9852 58.779 20.7133 59.7812C16.5855 61.0386 15.4556 61.3336 15.3383 61.2356C15.2799 61.157 15.6887 60.4888 16.2341 59.7224C19.7397 54.8488 25.0176 53.2175 32.7883 54.5735C38.2804 55.5364 41.338 55.4972 44.6293 54.4163ZM45.019 59.133C44.7268 59.1133 44.4347 59.1918 44.3763 59.3097C44.2399 59.5455 44.6099 59.5455 45.1552 59.3097C45.5058 59.1525 45.4864 59.133 45.019 59.133Z" fill="black"/>
<path d="M20.1292 60.3122C20.5574 60.2928 17.4609 63.1421 16.3703 63.7512C15.2991 64.3408 13.9358 64.4391 10.8393 64.1443L9.02793 63.9672L7.91793 64.655C6.53516 65.5 6.14553 65.6376 5.67812 65.4804C5.36667 65.3821 5.42512 65.2837 6.08719 64.8121C6.49618 64.4977 7.11957 63.9084 7.45064 63.4761C8.63865 61.9826 9.26173 61.7858 13.1179 61.6483C16.2924 61.5303 16.643 61.4912 18.1816 60.9213C19.097 60.5872 19.9734 60.3122 20.1292 60.3122Z" fill="black"/>
<path fill-rule="evenodd" clip-rule="evenodd" d="M39.488 48.069C40.1501 47.7742 40.598 47.7153 42.039 47.7742C43.7139 47.8528 44.0062 47.9315 45.9147 48.8551C46.0121 48.9141 46.012 48.8355 45.9342 48.698C45.6615 48.246 47.2196 48.639 48.0765 49.2482C48.505 49.543 49.0502 50.152 49.284 50.5646C49.7124 51.331 49.7515 51.3509 50.9979 51.4688C52.7701 51.626 52.887 51.8223 51.8548 52.9228C51.2121 53.5909 50.8032 53.8466 50.2189 53.9449C49.3621 54.0824 49.1478 54.2789 49.1477 54.947C49.1477 55.2417 49.3425 55.517 49.7124 55.7136C50.2188 56.0083 50.2578 56.146 50.2383 57.0304L50.2189 58.0129L51.1927 58.5631C51.738 58.8579 52.0107 59.1134 51.8354 59.1134C51.4459 59.1134 51.3877 59.4474 51.6798 60.2139L51.8742 60.7249L50.7642 60.5874C50.1429 60.509 49.6377 60.4303 49.6154 60.4298C49.6142 60.4082 49.3615 59.957 49.0895 59.4277C48.7974 58.8971 48.6027 58.4254 48.6416 58.3664C48.7007 58.3275 49.0899 58.4651 49.5374 58.7007C50.4137 59.1526 50.5889 58.9363 49.7905 58.3664C49.1283 57.9144 48.0765 57.541 47.4338 57.541C47.0055 57.541 46.9859 57.482 47.1028 56.9908C47.278 56.4013 47.2781 56.303 47.0834 54.849C46.9276 53.5323 47.064 53.0016 47.8041 52.1566L48.3882 51.4688L47.8817 51.3312C47.0832 51.1348 46.0317 51.3902 44.9996 52.0386C43.9285 52.7067 43.1106 52.9424 42.5847 52.746C42.3121 52.6281 42.3508 52.5494 42.8572 52.235C43.8309 51.6454 43.753 51.4885 42.6623 51.8619C42.0976 52.0584 41.416 52.2153 41.1239 52.235C40.8123 52.235 40.5201 52.3923 40.3837 52.6085C40.15 53.0801 39.4684 52.9427 39.3125 52.4121C39.1567 51.9405 39.0399 51.9601 38.4362 52.4317C37.852 52.9032 37.1705 52.9622 37.3456 52.5301C37.4819 52.137 37.4429 52.1565 36.3718 52.7264C35.2812 53.3159 34.1712 53.3553 33.0806 52.8444C32.1068 52.3924 31.6586 51.8813 31.6391 51.2524C31.6391 50.9773 31.5808 50.4469 31.5029 50.054C31.3666 49.2483 31.6783 48.5012 32.1262 48.5012C32.3209 48.5013 32.3791 48.6193 32.3012 48.8747C32.1455 49.4053 32.3794 49.8571 33.0026 50.1716C33.7621 50.5842 34.9307 50.5646 34.9307 50.152C34.9309 49.7196 36.0018 48.698 36.4692 48.698C36.8976 48.698 37.1704 49.2873 36.9757 49.8768C36.8588 50.2305 36.9366 50.2699 37.5986 50.2699C38.027 50.2699 38.5336 50.1325 38.7478 49.9556C39.0984 49.6609 39.0789 49.6606 38.4948 49.7589C38.1442 49.8178 37.8521 49.7983 37.8521 49.7001C37.8521 49.3267 38.7479 48.4227 39.488 48.069ZM51.1539 52.4121C50.9397 52.1959 49.9075 52.0387 49.5374 52.1566C48.7389 52.4513 48.3104 52.7657 48.0377 53.2767C47.843 53.6893 47.8039 53.9056 47.9597 54.0628C48.1155 54.22 48.174 54.1609 48.174 53.8661C48.1741 53.6302 48.4468 53.2175 48.7973 52.9228C49.3425 52.4708 49.557 52.3922 50.375 52.4905C50.881 52.5298 51.2314 52.4906 51.1539 52.4121ZM43.4999 49.5033C41.9614 49.523 42.1561 49.6214 43.9672 49.7393C44.7852 49.7982 45.1942 49.7592 45.0384 49.6609C44.8826 49.5626 44.201 49.5033 43.4999 49.5033Z" fill="black"/>
<path d="M51.8746 59.762C51.8746 59.4476 52.342 59.4277 52.8678 59.7028C53.3352 59.9583 53.374 60.6857 52.9066 60.6857C52.5171 60.6856 51.8747 60.1353 51.8746 59.762Z" fill="black"/>
<path d="M77.6796 51.0365C77.9522 50.7614 78.2638 50.9382 78.3223 51.3704C78.3808 51.7634 76.3749 52.5693 62.6836 57.6394C61.7293 58.0128 59.6062 58.7989 57.9898 59.3885C56.3733 59.9977 54.7569 60.548 54.4063 60.607C53.8417 60.7248 53.8026 60.7052 53.861 60.273C53.9 59.8997 54.1921 59.7226 55.4775 59.2509C58.0093 58.3273 60.2102 57.5021 66.2865 55.2225C69.4415 54.0434 73.2586 52.648 74.7583 52.137C76.2576 51.6261 77.5623 51.1349 77.6796 51.0365Z" fill="black"/>
<path fill-rule="evenodd" clip-rule="evenodd" d="M52.1665 53.2371C52.8287 52.51 53.0042 52.5299 53.5105 53.3946C53.9779 54.2199 53.8414 54.3575 52.0303 54.7898C50.9398 55.0649 50.7645 55.1433 51.2707 55.1629C51.6408 55.1826 52.4978 55.0451 53.1989 54.8682C53.8805 54.6913 54.4647 54.5933 54.5231 54.6523C54.6983 54.8291 54.1146 59.3065 53.9002 59.3881C53.7834 59.4274 52.9845 59.0936 52.1471 58.6219L50.6086 57.7966L50.5504 56.7745C50.5115 56.2245 50.4334 55.7727 50.3556 55.7723C50.2777 55.7723 50.0242 55.615 49.7711 55.4184C49.2064 54.9861 49.3817 54.3967 50.0633 54.3967C50.6865 54.3967 51.4654 53.9642 52.1665 53.2371ZM52.3225 56.8336C52.0693 56.7354 52.0305 56.7548 52.1863 56.9316C52.4395 57.2264 53.6274 57.5605 53.6274 57.3443C53.627 57.2657 53.413 57.1281 53.1601 57.0692C52.9069 57.0102 52.5368 56.8926 52.3225 56.8336ZM51.641 55.8311C51.4463 55.7918 51.2902 55.8313 51.2901 55.9295C51.2901 56.1653 53.6079 56.5584 53.7442 56.3422C53.783 56.2636 53.4129 56.126 52.9066 56.0671C52.3809 55.9885 51.8164 55.8901 51.641 55.8311Z" fill="black"/>
<path d="M60.249 47.0472C60.5216 47.0079 61.924 46.988 63.3652 47.0077C67.3965 47.1059 69.2273 47.9117 71.389 50.5646C71.9924 51.3109 72.4983 51.9984 72.5185 52.0778C72.5379 52.4119 71.8174 52.8248 70.0062 53.493L68.0586 54.2396L66.7344 53.375C65.0011 52.2156 64.2609 51.9402 62.9755 51.9598C61.4954 51.9599 60.1124 52.7461 57.269 55.1829C56.0226 56.2637 54.932 57.1479 54.8736 57.1479C54.7958 57.1472 54.8152 56.4402 54.8736 55.576C55.0099 54.0629 55.01 54.0037 54.6011 54.0037C54.3674 54.0037 54.2311 53.9252 54.2895 53.8269C54.3477 53.7284 53.9973 53.0603 53.5105 52.3137L52.6342 50.9577L53.4519 50.2307C55.1268 48.7765 57.7756 47.5385 60.249 47.0472Z" fill="black"/>
<path d="M86.0543 48.3245C86.4045 48.2853 85.8591 48.6589 83.8145 49.936C81.8865 51.1151 81.6916 51.1937 80.2699 51.3116C79.0624 51.3902 78.7507 51.3704 78.6728 51.1149C78.4781 50.6041 78.5366 50.5058 79.1013 50.3683C79.4129 50.3093 79.9581 49.9555 80.3087 49.5821C80.8929 48.9729 81.0879 48.8944 82.042 48.8747C82.6458 48.8747 83.756 48.7568 84.4961 48.6192C85.2556 48.462 85.9375 48.3441 86.0543 48.3245Z" fill="black"/>
<path d="M38.9669 16.7537C38.7541 16.7537 38.0764 16.5928 36.9338 16.2711C36.4137 16.1309 36.0827 16.0566 35.9409 16.0484C35.9803 16.7 36.0709 17.36 36.2128 18.0281C36.3625 18.787 36.4374 19.4263 36.4374 19.946C36.4374 20.4492 36.3349 20.94 36.13 21.4184L35.9764 21.7154C35.8424 21.9051 35.7084 22 35.5745 22C35.3223 22 35.1017 21.7072 34.9125 21.1215C34.7707 20.7008 34.6998 20.309 34.6998 19.946C34.6998 19.6078 34.7864 18.9933 34.9598 18.1024C35.0938 17.393 35.1805 16.7083 35.2199 16.0484C34.9519 16.0566 34.4161 16.1845 33.6123 16.4319C33.0449 16.6134 32.7139 16.7124 32.6194 16.7289C32.5012 16.7454 32.3633 16.7537 32.2057 16.7537C31.9141 16.7537 31.6225 16.5969 31.331 16.2835C31.1103 16.0442 31 15.8133 31 15.5906C31 15.3348 31.2009 15.0709 31.6028 14.7987C31.8786 14.6007 32.1032 14.5017 32.2766 14.5017C32.3948 14.5017 32.5642 14.5512 32.7849 14.6502C33.6044 15.0296 34.4161 15.2235 35.2199 15.2317C35.2199 13.4994 34.9283 12.0064 34.3452 10.7525C34.9283 9.72141 35.2199 8.39333 35.2199 6.76828C34.4476 6.77653 33.6359 6.97038 32.7849 7.34983C32.5327 7.45707 32.3633 7.51069 32.2766 7.51069C32.0638 7.51069 31.788 7.37045 31.4492 7.08999C31.1497 6.84252 31 6.6198 31 6.42182C31 6.17435 31.1615 5.90214 31.4846 5.60517C31.7526 5.36595 31.9929 5.24634 32.2057 5.24634C32.4815 5.24634 32.9701 5.36595 33.6714 5.60517C34.3176 5.81965 34.8337 5.94751 35.2199 5.98875C35.1805 5.31234 35.0938 4.61117 34.9598 3.88526C34.7864 2.98613 34.6998 2.3757 34.6998 2.05399C34.6998 1.53431 34.8101 1.03525 35.0307 0.556805C35.2041 0.185602 35.3853 0 35.5745 0C35.8345 0 36.0591 0.292838 36.2482 0.878515C36.3743 1.28271 36.4374 1.67454 36.4374 2.05399C36.4374 2.54068 36.3704 3.13048 36.2364 3.8234C36.2364 3.88114 36.2285 3.93476 36.2128 3.98425C36.0709 4.64417 35.9803 5.31234 35.9409 5.98875C36.2325 5.9805 36.7565 5.85264 37.513 5.60517C38.1119 5.39895 38.4192 5.29584 38.435 5.29584C38.5847 5.26284 38.762 5.24634 38.9669 5.24634C39.2033 5.24634 39.4752 5.40307 39.7825 5.71654C40.0032 5.93926 40.1292 6.14548 40.1608 6.33521V6.42182C40.1608 6.64454 39.9756 6.89614 39.6052 7.1766C39.3058 7.39933 39.0654 7.51069 38.8842 7.51069C38.7896 7.51069 38.6478 7.46944 38.4586 7.38695C38.4271 7.3787 38.3956 7.36633 38.3641 7.34983C37.4027 6.99513 36.595 6.80128 35.9409 6.76828C35.9409 8.35208 36.2246 9.67192 36.792 10.7278C36.4768 11.3795 36.2325 12.3446 36.0591 13.6232C35.9803 14.2171 35.9409 14.7533 35.9409 15.2317C36.658 15.1987 37.4657 15.0049 38.3641 14.6502C38.6005 14.5512 38.7738 14.5017 38.8842 14.5017C39.1284 14.5017 39.4161 14.646 39.747 14.9348C40.0229 15.1657 40.1608 15.3843 40.1608 15.5906C40.1608 15.8793 39.9835 16.168 39.6288 16.4567C39.3688 16.6299 39.1481 16.7289 38.9669 16.7537Z" fill="#1B1B1B"/>
<path d="M45.3348 16.7537C45.122 16.7537 44.4443 16.5928 43.3017 16.2711C42.7816 16.1309 42.4506 16.0566 42.3087 16.0484C42.3481 16.7 42.4388 17.36 42.5806 18.0281C42.7303 18.787 42.8052 19.4263 42.8052 19.946C42.8052 20.4492 42.7028 20.94 42.4979 21.4184L42.3442 21.7154C42.2102 21.9051 42.0763 22 41.9423 22C41.6901 22 41.4695 21.7072 41.2804 21.1215C41.1385 20.7008 41.0676 20.309 41.0676 19.946C41.0676 19.6078 41.1543 18.9933 41.3277 18.1024C41.4616 17.393 41.5483 16.7083 41.5877 16.0484C41.3198 16.0566 40.7839 16.1845 39.9801 16.4319C39.4128 16.6134 39.0818 16.7124 38.9872 16.7289C38.869 16.7454 38.7311 16.7537 38.5735 16.7537C38.282 16.7537 37.9904 16.5969 37.6988 16.2835C37.4782 16.0442 37.3678 15.8133 37.3678 15.5906C37.3678 15.3348 37.5688 15.0709 37.9707 14.7987C38.2465 14.6007 38.4711 14.5017 38.6444 14.5017C38.7626 14.5017 38.9321 14.5512 39.1527 14.6502C39.9723 15.0296 40.7839 15.2235 41.5877 15.2317C41.5877 13.4994 41.2961 12.0064 40.713 10.7525C41.2961 9.72141 41.5877 8.39333 41.5877 6.76828C40.8154 6.77653 40.0038 6.97038 39.1527 7.34983C38.9006 7.45707 38.7311 7.51069 38.6444 7.51069C38.4317 7.51069 38.1559 7.37045 37.817 7.08999C37.5176 6.84252 37.3678 6.6198 37.3678 6.42182C37.3678 6.17435 37.5294 5.90214 37.8525 5.60517C38.1204 5.36595 38.3608 5.24634 38.5735 5.24634C38.8493 5.24634 39.3379 5.36595 40.0392 5.60517C40.6854 5.81965 41.2016 5.94751 41.5877 5.98875C41.5483 5.31234 41.4616 4.61117 41.3277 3.88526C41.1543 2.98613 41.0676 2.3757 41.0676 2.05399C41.0676 1.53431 41.1779 1.03525 41.3986 0.556805C41.5719 0.185602 41.7532 0 41.9423 0C42.2024 0 42.4269 0.292838 42.6161 0.878515C42.7422 1.28271 42.8052 1.67454 42.8052 2.05399C42.8052 2.54068 42.7382 3.13048 42.6043 3.8234C42.6043 3.88114 42.5964 3.93476 42.5806 3.98425C42.4388 4.64417 42.3481 5.31234 42.3087 5.98875C42.6003 5.9805 43.1243 5.85264 43.8809 5.60517C44.4797 5.39895 44.7871 5.29584 44.8028 5.29584C44.9526 5.26284 45.1299 5.24634 45.3348 5.24634C45.5712 5.24634 45.843 5.40307 46.1504 5.71654C46.371 5.93926 46.4971 6.14548 46.5286 6.33521V6.42182C46.5286 6.64454 46.3434 6.89614 45.973 7.1766C45.6736 7.39933 45.4333 7.51069 45.252 7.51069C45.1574 7.51069 45.0156 7.46944 44.8265 7.38695C44.795 7.3787 44.7634 7.36633 44.7319 7.34983C43.7705 6.99513 42.9628 6.80128 42.3087 6.76828C42.3087 8.35208 42.5924 9.67192 43.1598 10.7278C42.8446 11.3795 42.6003 12.3446 42.4269 13.6232C42.3481 14.2171 42.3087 14.7533 42.3087 15.2317C43.0258 15.1987 43.8336 15.0049 44.7319 14.6502C44.9683 14.5512 45.1417 14.5017 45.252 14.5017C45.4963 14.5017 45.7839 14.646 46.1149 14.9348C46.3907 15.1657 46.5286 15.3843 46.5286 15.5906C46.5286 15.8793 46.3513 16.168 45.9967 16.4567C45.7366 16.6299 45.516 16.7289 45.3348 16.7537Z" fill="#1B1B1B"/>
<path d="M51.7026 16.7537C51.4898 16.7537 50.8121 16.5928 49.6695 16.2711C49.1494 16.1309 48.8184 16.0566 48.6766 16.0484C48.716 16.7 48.8066 17.36 48.9485 18.0281C49.0982 18.787 49.173 19.4263 49.173 19.946C49.173 20.4492 49.0706 20.94 48.8657 21.4184L48.7121 21.7154C48.5781 21.9051 48.4441 22 48.3102 22C48.058 22 47.8374 21.7072 47.6482 21.1215C47.5064 20.7008 47.4355 20.309 47.4355 19.946C47.4355 19.6078 47.5221 18.9933 47.6955 18.1024C47.8295 17.393 47.9162 16.7083 47.9556 16.0484C47.6876 16.0566 47.1518 16.1845 46.348 16.4319C45.7806 16.6134 45.4496 16.7124 45.3551 16.7289C45.2369 16.7454 45.099 16.7537 44.9414 16.7537C44.6498 16.7537 44.3582 16.5969 44.0667 16.2835C43.846 16.0442 43.7357 15.8133 43.7357 15.5906C43.7357 15.3348 43.9366 15.0709 44.3385 14.7987C44.6143 14.6007 44.8389 14.5017 45.0123 14.5017C45.1305 14.5017 45.2999 14.5512 45.5206 14.6502C46.3401 15.0296 47.1518 15.2235 47.9556 15.2317C47.9556 13.4994 47.664 12.0064 47.0808 10.7525C47.664 9.72141 47.9556 8.39333 47.9556 6.76828C47.1833 6.77653 46.3716 6.97038 45.5206 7.34983C45.2684 7.45707 45.099 7.51069 45.0123 7.51069C44.7995 7.51069 44.5237 7.37045 44.1849 7.08999C43.8854 6.84252 43.7357 6.6198 43.7357 6.42182C43.7357 6.17435 43.8972 5.90214 44.2203 5.60517C44.4883 5.36595 44.7286 5.24634 44.9414 5.24634C45.2172 5.24634 45.7058 5.36595 46.4071 5.60517C47.0533 5.81965 47.5694 5.94751 47.9556 5.98875C47.9162 5.31234 47.8295 4.61117 47.6955 3.88526C47.5221 2.98613 47.4355 2.3757 47.4355 2.05399C47.4355 1.53431 47.5458 1.03525 47.7664 0.556805C47.9398 0.185602 48.121 0 48.3102 0C48.5702 0 48.7948 0.292838 48.9839 0.878515C49.11 1.28271 49.173 1.67454 49.173 2.05399C49.173 2.54068 49.1061 3.13048 48.9721 3.8234C48.9721 3.88114 48.9642 3.93476 48.9485 3.98425C48.8066 4.64417 48.716 5.31234 48.6766 5.98875C48.9682 5.9805 49.4922 5.85264 50.2487 5.60517C50.8476 5.39895 51.1549 5.29584 51.1707 5.29584C51.3204 5.26284 51.4977 5.24634 51.7026 5.24634C51.939 5.24634 52.2109 5.40307 52.5182 5.71654C52.7388 5.93926 52.8649 6.14548 52.8965 6.33521V6.42182C52.8965 6.64454 52.7113 6.89614 52.3409 7.1766C52.0414 7.39933 51.8011 7.51069 51.6199 7.51069C51.5253 7.51069 51.3834 7.46944 51.1943 7.38695C51.1628 7.3787 51.1313 7.36633 51.0998 7.34983C50.1384 6.99513 49.3307 6.80128 48.6766 6.76828C48.6766 8.35208 48.9603 9.67192 49.5277 10.7278C49.2124 11.3795 48.9682 12.3446 48.7948 13.6232C48.716 14.2171 48.6766 14.7533 48.6766 15.2317C49.3937 15.1987 50.2014 15.0049 51.0998 14.6502C51.3362 14.5512 51.5095 14.5017 51.6199 14.5017C51.8641 14.5017 52.1518 14.646 52.4827 14.9348C52.7585 15.1657 52.8965 15.3843 52.8965 15.5906C52.8965 15.8793 52.7191 16.168 52.3645 16.4567C52.1045 16.6299 51.8838 16.7289 51.7026 16.7537Z" fill="#1B1B1B"/>
<path d="M58.0704 16.7537C57.8577 16.7537 57.18 16.5928 56.0374 16.2711C55.5173 16.1309 55.1863 16.0566 55.0444 16.0484C55.0838 16.7 55.1745 17.36 55.3163 18.0281C55.466 18.787 55.5409 19.4263 55.5409 19.946C55.5409 20.4492 55.4385 20.94 55.2336 21.4184L55.0799 21.7154C54.9459 21.9051 54.812 22 54.678 22C54.4258 22 54.2052 21.7072 54.0161 21.1215C53.8742 20.7008 53.8033 20.309 53.8033 19.946C53.8033 19.6078 53.89 18.9933 54.0634 18.1024C54.1973 17.393 54.284 16.7083 54.3234 16.0484C54.0555 16.0566 53.5196 16.1845 52.7158 16.4319C52.1485 16.6134 51.8175 16.7124 51.7229 16.7289C51.6047 16.7454 51.4668 16.7537 51.3092 16.7537C51.0177 16.7537 50.7261 16.5969 50.4345 16.2835C50.2139 16.0442 50.1035 15.8133 50.1035 15.5906C50.1035 15.3348 50.3045 15.0709 50.7064 14.7987C50.9822 14.6007 51.2068 14.5017 51.3801 14.5017C51.4983 14.5017 51.6678 14.5512 51.8884 14.6502C52.708 15.0296 53.5196 15.2235 54.3234 15.2317C54.3234 13.4994 54.0318 12.0064 53.4487 10.7525C54.0318 9.72141 54.3234 8.39333 54.3234 6.76828C53.5511 6.77653 52.7395 6.97038 51.8884 7.34983C51.6362 7.45707 51.4668 7.51069 51.3801 7.51069C51.1674 7.51069 50.8916 7.37045 50.5527 7.08999C50.2533 6.84252 50.1035 6.6198 50.1035 6.42182C50.1035 6.17435 50.2651 5.90214 50.5882 5.60517C50.8561 5.36595 51.0965 5.24634 51.3092 5.24634C51.585 5.24634 52.0736 5.36595 52.7749 5.60517C53.4211 5.81965 53.9373 5.94751 54.3234 5.98875C54.284 5.31234 54.1973 4.61117 54.0634 3.88526C53.89 2.98613 53.8033 2.3757 53.8033 2.05399C53.8033 1.53431 53.9136 1.03525 54.1343 0.556805C54.3076 0.185602 54.4889 0 54.678 0C54.9381 0 55.1626 0.292838 55.3518 0.878515C55.4779 1.28271 55.5409 1.67454 55.5409 2.05399C55.5409 2.54068 55.4739 3.13048 55.34 3.8234C55.34 3.88114 55.3321 3.93476 55.3163 3.98425C55.1745 4.64417 55.0838 5.31234 55.0444 5.98875C55.336 5.9805 55.86 5.85264 56.6165 5.60517C57.2154 5.39895 57.5228 5.29584 57.5385 5.29584C57.6883 5.26284 57.8656 5.24634 58.0704 5.24634C58.3069 5.24634 58.5787 5.40307 58.886 5.71654C59.1067 5.93926 59.2328 6.14548 59.2643 6.33521V6.42182C59.2643 6.64454 59.0791 6.89614 58.7087 7.1766C58.4093 7.39933 58.1689 7.51069 57.9877 7.51069C57.8931 7.51069 57.7513 7.46944 57.5622 7.38695C57.5307 7.3787 57.4991 7.36633 57.4676 7.34983C56.5062 6.99513 55.6985 6.80128 55.0444 6.76828C55.0444 8.35208 55.3281 9.67192 55.8955 10.7278C55.5803 11.3795 55.336 12.3446 55.1626 13.6232C55.0838 14.2171 55.0444 14.7533 55.0444 15.2317C55.7615 15.1987 56.5693 15.0049 57.4676 14.6502C57.704 14.5512 57.8774 14.5017 57.9877 14.5017C58.232 14.5017 58.5196 14.646 58.8506 14.9348C59.1264 15.1657 59.2643 15.3843 59.2643 15.5906C59.2643 15.8793 59.087 16.168 58.7324 16.4567C58.4723 16.6299 58.2517 16.7289 58.0704 16.7537Z" fill="#1B1B1B"/>
<path d="M64.4383 16.7537C64.2255 16.7537 63.5478 16.5928 62.4052 16.2711C61.8851 16.1309 61.5541 16.0566 61.4123 16.0484C61.4517 16.7 61.5423 17.36 61.6842 18.0281C61.8339 18.787 61.9087 19.4263 61.9087 19.946C61.9087 20.4492 61.8063 20.94 61.6014 21.4184L61.4478 21.7154C61.3138 21.9051 61.1798 22 61.0459 22C60.7937 22 60.573 21.7072 60.3839 21.1215C60.2421 20.7008 60.1712 20.309 60.1712 19.946C60.1712 19.6078 60.2578 18.9933 60.4312 18.1024C60.5652 17.393 60.6518 16.7083 60.6913 16.0484C60.4233 16.0566 59.8875 16.1845 59.0837 16.4319C58.5163 16.6134 58.1853 16.7124 58.0908 16.7289C57.9726 16.7454 57.8347 16.7537 57.6771 16.7537C57.3855 16.7537 57.0939 16.5969 56.8024 16.2835C56.5817 16.0442 56.4714 15.8133 56.4714 15.5906C56.4714 15.3348 56.6723 15.0709 57.0742 14.7987C57.35 14.6007 57.5746 14.5017 57.748 14.5017C57.8662 14.5017 58.0356 14.5512 58.2563 14.6502C59.0758 15.0296 59.8875 15.2235 60.6913 15.2317C60.6913 13.4994 60.3997 12.0064 59.8165 10.7525C60.3997 9.72141 60.6913 8.39333 60.6913 6.76828C59.919 6.77653 59.1073 6.97038 58.2563 7.34983C58.0041 7.45707 57.8347 7.51069 57.748 7.51069C57.5352 7.51069 57.2594 7.37045 56.9206 7.08999C56.6211 6.84252 56.4714 6.6198 56.4714 6.42182C56.4714 6.17435 56.6329 5.90214 56.956 5.60517C57.224 5.36595 57.4643 5.24634 57.6771 5.24634C57.9529 5.24634 58.4414 5.36595 59.1428 5.60517C59.789 5.81965 60.3051 5.94751 60.6913 5.98875C60.6518 5.31234 60.5652 4.61117 60.4312 3.88526C60.2578 2.98613 60.1712 2.3757 60.1712 2.05399C60.1712 1.53431 60.2815 1.03525 60.5021 0.556805C60.6755 0.185602 60.8567 0 61.0459 0C61.3059 0 61.5305 0.292838 61.7196 0.878515C61.8457 1.28271 61.9087 1.67454 61.9087 2.05399C61.9087 2.54068 61.8418 3.13048 61.7078 3.8234C61.7078 3.88114 61.6999 3.93476 61.6842 3.98425C61.5423 4.64417 61.4517 5.31234 61.4123 5.98875C61.7039 5.9805 62.2279 5.85264 62.9844 5.60517C63.5833 5.39895 63.8906 5.29584 63.9064 5.29584C64.0561 5.26284 64.2334 5.24634 64.4383 5.24634C64.6747 5.24634 64.9466 5.40307 65.2539 5.71654C65.4745 5.93926 65.6006 6.14548 65.6321 6.33521V6.42182C65.6321 6.64454 65.447 6.89614 65.0766 7.1766C64.7771 7.39933 64.5368 7.51069 64.3556 7.51069C64.261 7.51069 64.1191 7.46944 63.93 7.38695C63.8985 7.3787 63.867 7.36633 63.8355 7.34983C62.8741 6.99513 62.0663 6.80128 61.4123 6.76828C61.4123 8.35208 61.696 9.67192 62.2634 10.7278C61.9481 11.3795 61.7039 12.3446 61.5305 13.6232C61.4517 14.2171 61.4123 14.7533 61.4123 15.2317C62.1294 15.1987 62.9371 15.0049 63.8355 14.6502C64.0719 14.5512 64.2452 14.5017 64.3556 14.5017C64.5998 14.5017 64.8875 14.646 65.2184 14.9348C65.4942 15.1657 65.6321 15.3843 65.6321 15.5906C65.6321 15.8793 65.4548 16.168 65.1002 16.4567C64.8402 16.6299 64.6195 16.7289 64.4383 16.7537Z" fill="#1B1B1B"/>
<path d="M70.8061 16.7537C70.5934 16.7537 69.9157 16.5928 68.773 16.2711C68.253 16.1309 67.922 16.0566 67.7801 16.0484C67.8195 16.7 67.9102 17.36 68.052 18.0281C68.2017 18.787 68.2766 19.4263 68.2766 19.946C68.2766 20.4492 68.1742 20.94 67.9693 21.4184L67.8156 21.7154C67.6816 21.9051 67.5477 22 67.4137 22C67.1615 22 66.9409 21.7072 66.7518 21.1215C66.6099 20.7008 66.539 20.309 66.539 19.946C66.539 19.6078 66.6257 18.9933 66.7991 18.1024C66.933 17.393 67.0197 16.7083 67.0591 16.0484C66.7912 16.0566 66.2553 16.1845 65.4515 16.4319C64.8842 16.6134 64.5532 16.7124 64.4586 16.7289C64.3404 16.7454 64.2025 16.7537 64.0449 16.7537C63.7533 16.7537 63.4618 16.5969 63.1702 16.2835C62.9496 16.0442 62.8392 15.8133 62.8392 15.5906C62.8392 15.3348 63.0402 15.0709 63.4421 14.7987C63.7179 14.6007 63.9425 14.5017 64.1158 14.5017C64.234 14.5017 64.4035 14.5512 64.6241 14.6502C65.4437 15.0296 66.2553 15.2235 67.0591 15.2317C67.0591 13.4994 66.7675 12.0064 66.1844 10.7525C66.7675 9.72141 67.0591 8.39333 67.0591 6.76828C66.2868 6.77653 65.4752 6.97038 64.6241 7.34983C64.3719 7.45707 64.2025 7.51069 64.1158 7.51069C63.9031 7.51069 63.6273 7.37045 63.2884 7.08999C62.989 6.84252 62.8392 6.6198 62.8392 6.42182C62.8392 6.17435 63.0008 5.90214 63.3239 5.60517C63.5918 5.36595 63.8321 5.24634 64.0449 5.24634C64.3207 5.24634 64.8093 5.36595 65.5106 5.60517C66.1568 5.81965 66.673 5.94751 67.0591 5.98875C67.0197 5.31234 66.933 4.61117 66.7991 3.88526C66.6257 2.98613 66.539 2.3757 66.539 2.05399C66.539 1.53431 66.6493 1.03525 66.87 0.556805C67.0433 0.185602 67.2246 0 67.4137 0C67.6738 0 67.8983 0.292838 68.0875 0.878515C68.2136 1.28271 68.2766 1.67454 68.2766 2.05399C68.2766 2.54068 68.2096 3.13048 68.0756 3.8234C68.0756 3.88114 68.0678 3.93476 68.052 3.98425C67.9102 4.64417 67.8195 5.31234 67.7801 5.98875C68.0717 5.9805 68.5957 5.85264 69.3522 5.60517C69.9511 5.39895 70.2585 5.29584 70.2742 5.29584C70.424 5.26284 70.6013 5.24634 70.8061 5.24634C71.0426 5.24634 71.3144 5.40307 71.6217 5.71654C71.8424 5.93926 71.9685 6.14548 72 6.33521V6.42182C72 6.64454 71.8148 6.89614 71.4444 7.1766C71.145 7.39933 70.9046 7.51069 70.7234 7.51069C70.6288 7.51069 70.487 7.46944 70.2979 7.38695C70.2664 7.3787 70.2348 7.36633 70.2033 7.34983C69.2419 6.99513 68.4342 6.80128 67.7801 6.76828C67.7801 8.35208 68.0638 9.67192 68.6312 10.7278C68.316 11.3795 68.0717 12.3446 67.8983 13.6232C67.8195 14.2171 67.7801 14.7533 67.7801 15.2317C68.4972 15.1987 69.305 15.0049 70.2033 14.6502C70.4397 14.5512 70.6131 14.5017 70.7234 14.5017C70.9677 14.5017 71.2553 14.646 71.5863 14.9348C71.8621 15.1657 72 15.3843 72 15.5906C72 15.8793 71.8227 16.168 71.4681 16.4567C71.208 16.6299 70.9874 16.7289 70.8061 16.7537Z" fill="#1B1B1B"/>
</svg>
