<svg width="41" height="22" viewBox="0 0 41 22" fill="none" xmlns="http://www.w3.org/2000/svg">
<path d="M7.9669 16.7537C7.75414 16.7537 7.07644 16.5928 5.93381 16.2711C5.41371 16.1309 5.08274 16.0566 4.9409 16.0484C4.9803 16.7 5.07092 17.36 5.21277 18.0281C5.36249 18.787 5.43735 19.4263 5.43735 19.946C5.43735 20.4492 5.33491 20.94 5.13002 21.4184L4.97636 21.7154C4.8424 21.9051 4.70843 22 4.57447 22C4.3223 22 4.10165 21.7072 3.91253 21.1215C3.77069 20.7008 3.69976 20.309 3.69976 19.946C3.69976 19.6078 3.78645 18.9933 3.95981 18.1024C4.09377 17.393 4.18046 16.7083 4.21986 16.0484C3.95193 16.0566 3.41608 16.1845 2.61229 16.4319C2.04492 16.6134 1.71395 16.7124 1.61939 16.7289C1.50118 16.7454 1.36328 16.7537 1.20567 16.7537C0.914106 16.7537 0.622537 16.5969 0.330969 16.2835C0.110323 16.0442 0 15.8133 0 15.5906C0 15.3348 0.200946 15.0709 0.602837 14.7987C0.878645 14.6007 1.10323 14.5017 1.2766 14.5017C1.3948 14.5017 1.56422 14.5512 1.78487 14.6502C2.60441 15.0296 3.41608 15.2235 4.21986 15.2317C4.21986 13.4994 3.92829 12.0064 3.34515 10.7525C3.92829 9.72141 4.21986 8.39333 4.21986 6.76828C3.4476 6.77653 2.63593 6.97038 1.78487 7.34983C1.5327 7.45707 1.36328 7.51069 1.2766 7.51069C1.06383 7.51069 0.788022 7.37045 0.449173 7.08999C0.149724 6.84252 0 6.6198 0 6.42182C0 6.17435 0.161545 5.90214 0.484634 5.60517C0.752561 5.36595 0.992908 5.24634 1.20567 5.24634C1.48148 5.24634 1.97006 5.36595 2.67139 5.60517C3.31757 5.81965 3.83373 5.94751 4.21986 5.98875C4.18046 5.31234 4.09377 4.61117 3.95981 3.88526C3.78645 2.98613 3.69976 2.3757 3.69976 2.05399C3.69976 1.53431 3.81009 1.03525 4.03073 0.556805C4.2041 0.185602 4.38534 0 4.57447 0C4.83452 0 5.0591 0.292838 5.24823 0.878515C5.37431 1.28271 5.43735 1.67454 5.43735 2.05399C5.43735 2.54068 5.37037 3.13048 5.23641 3.8234C5.23641 3.88114 5.22853 3.93476 5.21277 3.98425C5.07092 4.64417 4.9803 5.31234 4.9409 5.98875C5.23247 5.9805 5.7565 5.85264 6.513 5.60517C7.1119 5.39895 7.41923 5.29584 7.43499 5.29584C7.58471 5.26284 7.76202 5.24634 7.9669 5.24634C8.20331 5.24634 8.47518 5.40307 8.78251 5.71654C9.00315 5.93926 9.12923 6.14548 9.16076 6.33521V6.42182C9.16076 6.64454 8.97557 6.89614 8.6052 7.1766C8.30575 7.39933 8.06541 7.51069 7.88416 7.51069C7.7896 7.51069 7.64775 7.46944 7.45863 7.38695C7.42711 7.3787 7.39559 7.36633 7.36407 7.34983C6.40268 6.99513 5.59496 6.80128 4.9409 6.76828C4.9409 8.35208 5.22459 9.67192 5.79196 10.7278C5.47675 11.3795 5.23247 12.3446 5.0591 13.6232C4.9803 14.2171 4.9409 14.7533 4.9409 15.2317C5.658 15.1987 6.46572 15.0049 7.36407 14.6502C7.60047 14.5512 7.77384 14.5017 7.88416 14.5017C8.12845 14.5017 8.41608 14.646 8.74704 14.9348C9.02285 15.1657 9.16076 15.3843 9.16076 15.5906C9.16076 15.8793 8.98345 16.168 8.62884 16.4567C8.36879 16.6299 8.14815 16.7289 7.9669 16.7537Z" fill="#1B1B1B"/>
<path d="M14.3348 16.7537C14.122 16.7537 13.4443 16.5928 12.3017 16.2711C11.7816 16.1309 11.4506 16.0566 11.3087 16.0484C11.3481 16.7 11.4388 17.36 11.5806 18.0281C11.7303 18.787 11.8052 19.4263 11.8052 19.946C11.8052 20.4492 11.7028 20.94 11.4979 21.4184L11.3442 21.7154C11.2102 21.9051 11.0763 22 10.9423 22C10.6901 22 10.4695 21.7072 10.2804 21.1215C10.1385 20.7008 10.0676 20.309 10.0676 19.946C10.0676 19.6078 10.1543 18.9933 10.3277 18.1024C10.4616 17.393 10.5483 16.7083 10.5877 16.0484C10.3198 16.0566 9.78392 16.1845 8.98014 16.4319C8.41277 16.6134 8.0818 16.7124 7.98723 16.7289C7.86903 16.7454 7.73113 16.7537 7.57352 16.7537C7.28195 16.7537 6.99039 16.5969 6.69882 16.2835C6.47817 16.0442 6.36785 15.8133 6.36785 15.5906C6.36785 15.3348 6.56879 15.0709 6.97069 14.7987C7.24649 14.6007 7.47108 14.5017 7.64444 14.5017C7.76265 14.5017 7.93207 14.5512 8.15272 14.6502C8.97226 15.0296 9.78392 15.2235 10.5877 15.2317C10.5877 13.4994 10.2961 12.0064 9.713 10.7525C10.2961 9.72141 10.5877 8.39333 10.5877 6.76828C9.81544 6.77653 9.00378 6.97038 8.15272 7.34983C7.90055 7.45707 7.73113 7.51069 7.64444 7.51069C7.43168 7.51069 7.15587 7.37045 6.81702 7.08999C6.51757 6.84252 6.36785 6.6198 6.36785 6.42182C6.36785 6.17435 6.52939 5.90214 6.85248 5.60517C7.12041 5.36595 7.36076 5.24634 7.57352 5.24634C7.84933 5.24634 8.3379 5.36595 9.03924 5.60517C9.68542 5.81965 10.2016 5.94751 10.5877 5.98875C10.5483 5.31234 10.4616 4.61117 10.3277 3.88526C10.1543 2.98613 10.0676 2.3757 10.0676 2.05399C10.0676 1.53431 10.1779 1.03525 10.3986 0.556805C10.5719 0.185602 10.7532 0 10.9423 0C11.2024 0 11.4269 0.292838 11.6161 0.878515C11.7422 1.28271 11.8052 1.67454 11.8052 2.05399C11.8052 2.54068 11.7382 3.13048 11.6043 3.8234C11.6043 3.88114 11.5964 3.93476 11.5806 3.98425C11.4388 4.64417 11.3481 5.31234 11.3087 5.98875C11.6003 5.9805 12.1243 5.85264 12.8809 5.60517C13.4797 5.39895 13.7871 5.29584 13.8028 5.29584C13.9526 5.26284 14.1299 5.24634 14.3348 5.24634C14.5712 5.24634 14.843 5.40307 15.1504 5.71654C15.371 5.93926 15.4971 6.14548 15.5286 6.33521V6.42182C15.5286 6.64454 15.3434 6.89614 14.973 7.1766C14.6736 7.39933 14.4333 7.51069 14.252 7.51069C14.1574 7.51069 14.0156 7.46944 13.8265 7.38695C13.795 7.3787 13.7634 7.36633 13.7319 7.34983C12.7705 6.99513 11.9628 6.80128 11.3087 6.76828C11.3087 8.35208 11.5924 9.67192 12.1598 10.7278C11.8446 11.3795 11.6003 12.3446 11.4269 13.6232C11.3481 14.2171 11.3087 14.7533 11.3087 15.2317C12.0258 15.1987 12.8336 15.0049 13.7319 14.6502C13.9683 14.5512 14.1417 14.5017 14.252 14.5017C14.4963 14.5017 14.7839 14.646 15.1149 14.9348C15.3907 15.1657 15.5286 15.3843 15.5286 15.5906C15.5286 15.8793 15.3513 16.168 14.9967 16.4567C14.7366 16.6299 14.516 16.7289 14.3348 16.7537Z" fill="#1B1B1B"/>
<path d="M20.7026 16.7537C20.4898 16.7537 19.8121 16.5928 18.6695 16.2711C18.1494 16.1309 17.8184 16.0566 17.6766 16.0484C17.716 16.7 17.8066 17.36 17.9485 18.0281C18.0982 18.787 18.173 19.4263 18.173 19.946C18.173 20.4492 18.0706 20.94 17.8657 21.4184L17.7121 21.7154C17.5781 21.9051 17.4441 22 17.3102 22C17.058 22 16.8374 21.7072 16.6482 21.1215C16.5064 20.7008 16.4355 20.309 16.4355 19.946C16.4355 19.6078 16.5221 18.9933 16.6955 18.1024C16.8295 17.393 16.9162 16.7083 16.9556 16.0484C16.6876 16.0566 16.1518 16.1845 15.348 16.4319C14.7806 16.6134 14.4496 16.7124 14.3551 16.7289C14.2369 16.7454 14.099 16.7537 13.9414 16.7537C13.6498 16.7537 13.3582 16.5969 13.0667 16.2835C12.846 16.0442 12.7357 15.8133 12.7357 15.5906C12.7357 15.3348 12.9366 15.0709 13.3385 14.7987C13.6143 14.6007 13.8389 14.5017 14.0123 14.5017C14.1305 14.5017 14.2999 14.5512 14.5206 14.6502C15.3401 15.0296 16.1518 15.2235 16.9556 15.2317C16.9556 13.4994 16.664 12.0064 16.0808 10.7525C16.664 9.72141 16.9556 8.39333 16.9556 6.76828C16.1833 6.77653 15.3716 6.97038 14.5206 7.34983C14.2684 7.45707 14.099 7.51069 14.0123 7.51069C13.7995 7.51069 13.5237 7.37045 13.1849 7.08999C12.8854 6.84252 12.7357 6.6198 12.7357 6.42182C12.7357 6.17435 12.8972 5.90214 13.2203 5.60517C13.4883 5.36595 13.7286 5.24634 13.9414 5.24634C14.2172 5.24634 14.7058 5.36595 15.4071 5.60517C16.0533 5.81965 16.5694 5.94751 16.9556 5.98875C16.9162 5.31234 16.8295 4.61117 16.6955 3.88526C16.5221 2.98613 16.4355 2.3757 16.4355 2.05399C16.4355 1.53431 16.5458 1.03525 16.7664 0.556805C16.9398 0.185602 17.121 0 17.3102 0C17.5702 0 17.7948 0.292838 17.9839 0.878515C18.11 1.28271 18.173 1.67454 18.173 2.05399C18.173 2.54068 18.1061 3.13048 17.9721 3.8234C17.9721 3.88114 17.9642 3.93476 17.9485 3.98425C17.8066 4.64417 17.716 5.31234 17.6766 5.98875C17.9682 5.9805 18.4922 5.85264 19.2487 5.60517C19.8476 5.39895 20.1549 5.29584 20.1707 5.29584C20.3204 5.26284 20.4977 5.24634 20.7026 5.24634C20.939 5.24634 21.2109 5.40307 21.5182 5.71654C21.7388 5.93926 21.8649 6.14548 21.8965 6.33521V6.42182C21.8965 6.64454 21.7113 6.89614 21.3409 7.1766C21.0414 7.39933 20.8011 7.51069 20.6199 7.51069C20.5253 7.51069 20.3834 7.46944 20.1943 7.38695C20.1628 7.3787 20.1313 7.36633 20.0998 7.34983C19.1384 6.99513 18.3307 6.80128 17.6766 6.76828C17.6766 8.35208 17.9603 9.67192 18.5277 10.7278C18.2124 11.3795 17.9682 12.3446 17.7948 13.6232C17.716 14.2171 17.6766 14.7533 17.6766 15.2317C18.3937 15.1987 19.2014 15.0049 20.0998 14.6502C20.3362 14.5512 20.5095 14.5017 20.6199 14.5017C20.8641 14.5017 21.1518 14.646 21.4827 14.9348C21.7585 15.1657 21.8965 15.3843 21.8965 15.5906C21.8965 15.8793 21.7191 16.168 21.3645 16.4567C21.1045 16.6299 20.8838 16.7289 20.7026 16.7537Z" fill="#1B1B1B"/>
<path d="M27.0704 16.7537C26.8577 16.7537 26.18 16.5928 25.0374 16.2711C24.5173 16.1309 24.1863 16.0566 24.0444 16.0484C24.0838 16.7 24.1745 17.36 24.3163 18.0281C24.466 18.787 24.5409 19.4263 24.5409 19.946C24.5409 20.4492 24.4385 20.94 24.2336 21.4184L24.0799 21.7154C23.9459 21.9051 23.812 22 23.678 22C23.4258 22 23.2052 21.7072 23.0161 21.1215C22.8742 20.7008 22.8033 20.309 22.8033 19.946C22.8033 19.6078 22.89 18.9933 23.0634 18.1024C23.1973 17.393 23.284 16.7083 23.3234 16.0484C23.0555 16.0566 22.5196 16.1845 21.7158 16.4319C21.1485 16.6134 20.8175 16.7124 20.7229 16.7289C20.6047 16.7454 20.4668 16.7537 20.3092 16.7537C20.0177 16.7537 19.7261 16.5969 19.4345 16.2835C19.2139 16.0442 19.1035 15.8133 19.1035 15.5906C19.1035 15.3348 19.3045 15.0709 19.7064 14.7987C19.9822 14.6007 20.2068 14.5017 20.3801 14.5017C20.4983 14.5017 20.6678 14.5512 20.8884 14.6502C21.708 15.0296 22.5196 15.2235 23.3234 15.2317C23.3234 13.4994 23.0318 12.0064 22.4487 10.7525C23.0318 9.72141 23.3234 8.39333 23.3234 6.76828C22.5511 6.77653 21.7395 6.97038 20.8884 7.34983C20.6362 7.45707 20.4668 7.51069 20.3801 7.51069C20.1674 7.51069 19.8916 7.37045 19.5527 7.08999C19.2533 6.84252 19.1035 6.6198 19.1035 6.42182C19.1035 6.17435 19.2651 5.90214 19.5882 5.60517C19.8561 5.36595 20.0965 5.24634 20.3092 5.24634C20.585 5.24634 21.0736 5.36595 21.7749 5.60517C22.4211 5.81965 22.9373 5.94751 23.3234 5.98875C23.284 5.31234 23.1973 4.61117 23.0634 3.88526C22.89 2.98613 22.8033 2.3757 22.8033 2.05399C22.8033 1.53431 22.9136 1.03525 23.1343 0.556805C23.3076 0.185602 23.4889 0 23.678 0C23.9381 0 24.1626 0.292838 24.3518 0.878515C24.4779 1.28271 24.5409 1.67454 24.5409 2.05399C24.5409 2.54068 24.4739 3.13048 24.34 3.8234C24.34 3.88114 24.3321 3.93476 24.3163 3.98425C24.1745 4.64417 24.0838 5.31234 24.0444 5.98875C24.336 5.9805 24.86 5.85264 25.6165 5.60517C26.2154 5.39895 26.5228 5.29584 26.5385 5.29584C26.6883 5.26284 26.8656 5.24634 27.0704 5.24634C27.3069 5.24634 27.5787 5.40307 27.886 5.71654C28.1067 5.93926 28.2328 6.14548 28.2643 6.33521V6.42182C28.2643 6.64454 28.0791 6.89614 27.7087 7.1766C27.4093 7.39933 27.1689 7.51069 26.9877 7.51069C26.8931 7.51069 26.7513 7.46944 26.5622 7.38695C26.5307 7.3787 26.4991 7.36633 26.4676 7.34983C25.5062 6.99513 24.6985 6.80128 24.0444 6.76828C24.0444 8.35208 24.3281 9.67192 24.8955 10.7278C24.5803 11.3795 24.336 12.3446 24.1626 13.6232C24.0838 14.2171 24.0444 14.7533 24.0444 15.2317C24.7615 15.1987 25.5693 15.0049 26.4676 14.6502C26.704 14.5512 26.8774 14.5017 26.9877 14.5017C27.232 14.5017 27.5196 14.646 27.8506 14.9348C28.1264 15.1657 28.2643 15.3843 28.2643 15.5906C28.2643 15.8793 28.087 16.168 27.7324 16.4567C27.4723 16.6299 27.2517 16.7289 27.0704 16.7537Z" fill="#1B1B1B"/>
<path d="M33.4383 16.7537C33.2255 16.7537 32.5478 16.5928 31.4052 16.2711C30.8851 16.1309 30.5541 16.0566 30.4123 16.0484C30.4517 16.7 30.5423 17.36 30.6842 18.0281C30.8339 18.787 30.9087 19.4263 30.9087 19.946C30.9087 20.4492 30.8063 20.94 30.6014 21.4184L30.4478 21.7154C30.3138 21.9051 30.1798 22 30.0459 22C29.7937 22 29.573 21.7072 29.3839 21.1215C29.2421 20.7008 29.1712 20.309 29.1712 19.946C29.1712 19.6078 29.2578 18.9933 29.4312 18.1024C29.5652 17.393 29.6518 16.7083 29.6913 16.0484C29.4233 16.0566 28.8875 16.1845 28.0837 16.4319C27.5163 16.6134 27.1853 16.7124 27.0908 16.7289C26.9726 16.7454 26.8347 16.7537 26.6771 16.7537C26.3855 16.7537 26.0939 16.5969 25.8024 16.2835C25.5817 16.0442 25.4714 15.8133 25.4714 15.5906C25.4714 15.3348 25.6723 15.0709 26.0742 14.7987C26.35 14.6007 26.5746 14.5017 26.748 14.5017C26.8662 14.5017 27.0356 14.5512 27.2563 14.6502C28.0758 15.0296 28.8875 15.2235 29.6913 15.2317C29.6913 13.4994 29.3997 12.0064 28.8165 10.7525C29.3997 9.72141 29.6913 8.39333 29.6913 6.76828C28.919 6.77653 28.1073 6.97038 27.2563 7.34983C27.0041 7.45707 26.8347 7.51069 26.748 7.51069C26.5352 7.51069 26.2594 7.37045 25.9206 7.08999C25.6211 6.84252 25.4714 6.6198 25.4714 6.42182C25.4714 6.17435 25.6329 5.90214 25.956 5.60517C26.224 5.36595 26.4643 5.24634 26.6771 5.24634C26.9529 5.24634 27.4414 5.36595 28.1428 5.60517C28.789 5.81965 29.3051 5.94751 29.6913 5.98875C29.6518 5.31234 29.5652 4.61117 29.4312 3.88526C29.2578 2.98613 29.1712 2.3757 29.1712 2.05399C29.1712 1.53431 29.2815 1.03525 29.5021 0.556805C29.6755 0.185602 29.8567 0 30.0459 0C30.3059 0 30.5305 0.292838 30.7196 0.878515C30.8457 1.28271 30.9087 1.67454 30.9087 2.05399C30.9087 2.54068 30.8418 3.13048 30.7078 3.8234C30.7078 3.88114 30.6999 3.93476 30.6842 3.98425C30.5423 4.64417 30.4517 5.31234 30.4123 5.98875C30.7039 5.9805 31.2279 5.85264 31.9844 5.60517C32.5833 5.39895 32.8906 5.29584 32.9064 5.29584C33.0561 5.26284 33.2334 5.24634 33.4383 5.24634C33.6747 5.24634 33.9466 5.40307 34.2539 5.71654C34.4745 5.93926 34.6006 6.14548 34.6321 6.33521V6.42182C34.6321 6.64454 34.447 6.89614 34.0766 7.1766C33.7771 7.39933 33.5368 7.51069 33.3556 7.51069C33.261 7.51069 33.1191 7.46944 32.93 7.38695C32.8985 7.3787 32.867 7.36633 32.8355 7.34983C31.8741 6.99513 31.0663 6.80128 30.4123 6.76828C30.4123 8.35208 30.696 9.67192 31.2634 10.7278C30.9481 11.3795 30.7039 12.3446 30.5305 13.6232C30.4517 14.2171 30.4123 14.7533 30.4123 15.2317C31.1294 15.1987 31.9371 15.0049 32.8355 14.6502C33.0719 14.5512 33.2452 14.5017 33.3556 14.5017C33.5998 14.5017 33.8875 14.646 34.2184 14.9348C34.4942 15.1657 34.6321 15.3843 34.6321 15.5906C34.6321 15.8793 34.4548 16.168 34.1002 16.4567C33.8402 16.6299 33.6195 16.7289 33.4383 16.7537Z" fill="#1B1B1B"/>
<path d="M39.8061 16.7537C39.5934 16.7537 38.9157 16.5928 37.773 16.2711C37.253 16.1309 36.922 16.0566 36.7801 16.0484C36.8195 16.7 36.9102 17.36 37.052 18.0281C37.2017 18.787 37.2766 19.4263 37.2766 19.946C37.2766 20.4492 37.1742 20.94 36.9693 21.4184L36.8156 21.7154C36.6816 21.9051 36.5477 22 36.4137 22C36.1615 22 35.9409 21.7072 35.7518 21.1215C35.6099 20.7008 35.539 20.309 35.539 19.946C35.539 19.6078 35.6257 18.9933 35.7991 18.1024C35.933 17.393 36.0197 16.7083 36.0591 16.0484C35.7912 16.0566 35.2553 16.1845 34.4515 16.4319C33.8842 16.6134 33.5532 16.7124 33.4586 16.7289C33.3404 16.7454 33.2025 16.7537 33.0449 16.7537C32.7533 16.7537 32.4618 16.5969 32.1702 16.2835C31.9496 16.0442 31.8392 15.8133 31.8392 15.5906C31.8392 15.3348 32.0402 15.0709 32.4421 14.7987C32.7179 14.6007 32.9425 14.5017 33.1158 14.5017C33.234 14.5017 33.4035 14.5512 33.6241 14.6502C34.4437 15.0296 35.2553 15.2235 36.0591 15.2317C36.0591 13.4994 35.7675 12.0064 35.1844 10.7525C35.7675 9.72141 36.0591 8.39333 36.0591 6.76828C35.2868 6.77653 34.4752 6.97038 33.6241 7.34983C33.3719 7.45707 33.2025 7.51069 33.1158 7.51069C32.9031 7.51069 32.6273 7.37045 32.2884 7.08999C31.989 6.84252 31.8392 6.6198 31.8392 6.42182C31.8392 6.17435 32.0008 5.90214 32.3239 5.60517C32.5918 5.36595 32.8321 5.24634 33.0449 5.24634C33.3207 5.24634 33.8093 5.36595 34.5106 5.60517C35.1568 5.81965 35.673 5.94751 36.0591 5.98875C36.0197 5.31234 35.933 4.61117 35.7991 3.88526C35.6257 2.98613 35.539 2.3757 35.539 2.05399C35.539 1.53431 35.6493 1.03525 35.87 0.556805C36.0433 0.185602 36.2246 0 36.4137 0C36.6738 0 36.8983 0.292838 37.0875 0.878515C37.2136 1.28271 37.2766 1.67454 37.2766 2.05399C37.2766 2.54068 37.2096 3.13048 37.0756 3.8234C37.0756 3.88114 37.0678 3.93476 37.052 3.98425C36.9102 4.64417 36.8195 5.31234 36.7801 5.98875C37.0717 5.9805 37.5957 5.85264 38.3522 5.60517C38.9511 5.39895 39.2585 5.29584 39.2742 5.29584C39.424 5.26284 39.6013 5.24634 39.8061 5.24634C40.0426 5.24634 40.3144 5.40307 40.6217 5.71654C40.8424 5.93926 40.9685 6.14548 41 6.33521V6.42182C41 6.64454 40.8148 6.89614 40.4444 7.1766C40.145 7.39933 39.9046 7.51069 39.7234 7.51069C39.6288 7.51069 39.487 7.46944 39.2979 7.38695C39.2664 7.3787 39.2348 7.36633 39.2033 7.34983C38.2419 6.99513 37.4342 6.80128 36.7801 6.76828C36.7801 8.35208 37.0638 9.67192 37.6312 10.7278C37.316 11.3795 37.0717 12.3446 36.8983 13.6232C36.8195 14.2171 36.7801 14.7533 36.7801 15.2317C37.4972 15.1987 38.305 15.0049 39.2033 14.6502C39.4397 14.5512 39.6131 14.5017 39.7234 14.5017C39.9677 14.5017 40.2553 14.646 40.5863 14.9348C40.8621 15.1657 41 15.3843 41 15.5906C41 15.8793 40.8227 16.168 40.4681 16.4567C40.208 16.6299 39.9874 16.7289 39.8061 16.7537Z" fill="#1B1B1B"/>
</svg>
