<svg width="333" height="232" viewBox="0 0 333 232" fill="none" xmlns="http://www.w3.org/2000/svg">
<path d="M155.981 163.601C160.305 163.602 171.56 167.252 170.144 168.145C169.547 168.518 168.056 168.816 166.789 168.816C165.522 168.816 162.093 170.008 159.186 171.423C154.714 173.732 153.595 174.7 150.912 178.797C146.738 185.202 145.024 186.618 139.955 187.959C137.57 188.555 132.277 190.789 128.252 192.875L121.021 196.674L112.599 196.748C101.567 196.822 100.001 197.642 91.7275 207.698C88.2988 211.944 84.4971 216.859 83.3789 218.722C79.5773 224.755 77.0424 226.915 73.9863 226.915C72.1229 226.915 70.4828 227.585 68.5449 229.075C65.8614 231.235 65.5635 231.31 57.8115 231.161C51.1775 231.012 49.8359 230.788 49.6123 229.82C49.2396 227.809 55.5004 219.244 58.7802 217.456C62.2836 215.445 62.8798 215.37 62.8798 216.785C62.8798 217.902 64.8921 218.945 65.8613 218.349C66.2339 218.126 66.6813 218.275 66.9794 218.722C67.2031 219.094 68.1729 219.467 69.0673 219.392C70.7067 219.392 70.6321 219.392 68.9179 218.647C67.4271 218.051 67.3529 217.828 68.1728 216.785C68.9925 215.817 68.9175 215.519 67.874 214.923C66.0108 213.88 66.2344 211.795 68.0976 212.39C70.1847 213.061 75.4773 210.454 78.6826 207.177C80.1734 205.687 83.2299 201.367 85.3916 197.642L89.2675 190.938L99.4052 191.386C109.021 191.832 109.692 191.757 113.94 189.97C116.624 188.852 120.5 187.884 123.631 187.661C130.041 187.214 131.607 186.245 134.514 181.031C136.377 177.754 137.197 177.01 138.24 177.307C139.06 177.531 140.253 177.978 140.998 178.201C142.042 178.499 143.458 176.935 147.483 171.125L152.627 163.601H155.981ZM61.0908 224.159C60.718 223.788 59.8982 226.021 59.9726 227.139C59.9726 227.66 60.346 227.213 60.7187 226.245C61.0914 225.277 61.3144 224.308 61.0908 224.159ZM92.3232 172.54C94.783 172.167 99.3305 172.093 102.387 172.242C105.443 172.465 109.915 172.689 112.226 172.838C114.76 172.912 118.04 173.731 120.276 174.774C123.407 176.264 124.302 176.339 125.867 175.669C126.911 175.147 129.296 174.774 131.085 174.774C133.992 174.774 134.438 174.998 134.438 176.264C134.438 178.201 131.979 183.117 130.265 184.532C129.594 185.053 126.612 185.724 123.705 186.022C120.649 186.246 116.325 187.289 113.567 188.406L108.647 190.343L93.5166 189.523C79.7269 188.853 78.0866 188.853 74.956 190.045C67.4274 192.875 64.7433 195.631 55.2021 210.156C51.6244 215.742 51.0277 216.19 47.3007 217.456C45.0646 218.201 41.934 219.914 40.4433 221.329C35.822 225.426 34.8529 225.723 30.9023 224.233C29.0388 223.488 25.6101 222.893 23.374 222.893C19.4233 222.819 19.2744 222.744 19.498 220.956C19.7965 217.753 23.6722 212.465 27.4736 209.932C31.6477 207.251 32.3183 207.102 32.3183 208.666C32.3183 209.336 32.9148 210.007 33.6601 210.23C34.3309 210.454 36.0453 211.199 37.3125 211.869C39.2505 212.837 39.9216 212.912 40.6669 212.167C41.3378 211.496 41.1889 211.273 39.9218 211.273C37.9838 211.273 36.8656 209.188 38.3564 208.294C39.1763 207.772 39.1017 207.325 37.9091 206.134C36.4183 204.42 36.8656 203.08 38.58 204.495C39.4 205.24 40.5183 204.941 44.0214 203.005C52.0716 198.536 54.4568 195.854 56.9912 188.331C57.8109 186.022 58.9289 183.714 59.5253 183.266C60.1962 182.82 61.4639 180.957 62.3584 179.244C64.6691 174.849 65.7876 174.254 69.9619 175.371C74.8813 176.712 78.7575 176.488 83.6025 174.7C85.9132 173.806 89.8634 172.838 92.3232 172.54ZM32.0947 214.476C31.6474 214.104 31.1262 214.923 30.1572 217.53C29.1137 220.212 29.7839 219.988 31.2002 217.157C31.8707 215.891 32.2434 214.7 32.0947 214.476ZM87.9257 200.622C91.131 194.589 89.5652 196.078 85.7636 202.558C83.8257 205.91 83.0808 207.698 84.0498 206.431C85.0933 205.24 86.8077 202.633 87.9257 200.622ZM261.977 152.578C266.972 149.152 268.09 149.077 274.873 151.386C278.824 152.801 287.843 152.727 291.347 151.237C293.657 150.269 294.701 150.269 298.204 151.014C301.857 151.833 302.602 152.355 305.435 156.079C309.385 161.218 313.56 165.091 321.014 170.603C324.293 173.061 326.902 175.52 327.126 176.488C327.35 177.382 327.871 179.765 328.244 181.85C328.691 183.861 329.735 186.692 330.555 188.033C331.524 189.672 331.971 191.907 331.971 194.737C331.971 197.046 332.269 200.174 332.642 201.59C333.312 204.644 333.014 206.059 331.523 206.059C329.362 206.059 323.325 202.409 320.269 199.206C317.66 196.525 317.212 195.557 317.212 193.024C317.286 191.311 317.882 189.448 318.628 188.555C319.522 187.586 319.821 186.394 319.522 185.351C319.15 183.713 319.001 183.788 317.212 186.394C315.497 188.927 315.273 189.076 314.379 187.885C313.857 187.065 313.037 186.767 312.516 187.139C311.845 187.512 311.696 186.916 312.068 184.607C312.366 181.852 312.292 181.478 311.025 181.478C309.907 181.478 309.608 180.957 309.608 178.648C309.608 173.136 305.211 168.666 296.639 165.538L291.495 163.751L286.054 165.092C283.072 165.837 279.196 167.252 277.407 168.145C274.724 169.635 272.935 169.859 266.003 170.008C261.53 170.008 256.834 170.454 255.716 170.975C252.734 172.167 250.126 172.019 248.858 170.455C245.131 166.135 244.684 165.837 242.075 165.837C240.51 165.837 236.261 166.804 232.534 167.996C219.564 172.167 215.837 171.795 214.271 166.135C213.526 163.528 213.601 163.378 217.402 159.803C222.545 155.036 224.185 155.036 229.03 159.878C233.279 164.124 234.249 164.197 239.988 160.92C243.491 158.834 245.653 158.686 246.995 160.25C247.517 160.846 248.188 161.367 248.561 161.367C248.933 161.367 249.008 160.846 248.784 160.25C248.486 159.431 248.858 159.133 250.051 159.133C251.989 159.133 254.673 157.643 261.977 152.578ZM58.9296 192.949C58.706 192.726 57.9605 193.545 57.3642 194.737C56.6934 196.003 54.2335 199.131 51.9228 201.664C49.5375 204.196 48.1214 206.133 48.7177 205.91C49.7621 205.611 55.6504 198.908 58.1845 195.035C58.8553 194.141 59.1532 193.173 58.9296 192.949ZM325.263 192.651C322.58 191.162 321.535 190.864 321.535 191.608C321.535 192.055 326.379 194.141 327.274 194.141C327.573 194.067 326.679 193.47 325.263 192.651ZM305.211 174.774C306.776 173.806 308.118 175.371 308.118 178.201C308.118 179.616 308.491 182.223 309.013 184.011C309.758 186.841 309.683 187.587 308.565 189.3C307.895 190.342 306.851 191.087 306.403 190.938C303.944 190.193 302.9 176.189 305.211 174.774ZM69.5888 180.063C67.949 179.989 66.011 181.329 65.0419 183.191C64.222 184.681 64.3706 184.681 66.3085 182.893C67.5012 181.776 68.9925 180.734 69.5888 180.511C70.5578 180.138 70.5577 180.138 69.5888 180.063ZM209.576 160.697C210.62 160.101 210.992 160.399 211.737 162.708C213.601 168.667 213.676 171.498 212.11 175.073C210.545 178.499 209.277 179.17 206.519 178.053C205.55 177.755 205.625 177.158 206.817 173.955C207.637 171.869 208.234 168.369 208.234 165.837C208.234 162.41 208.533 161.293 209.576 160.697ZM203.239 167.177C203.686 166.953 204.507 166.879 205.103 167.102C206.37 167.624 205.997 171.497 204.283 175.594L203.165 178.35H197.127C193.773 178.35 191.09 178.127 191.09 177.903C191.09 177.084 196.382 172.987 198.618 172.018C199.736 171.571 201.078 170.38 201.6 169.412C202.047 168.444 202.867 167.475 203.239 167.177ZM215.24 171.051C216.209 171.051 223.888 174.85 223.888 175.371C223.887 176.488 220.16 177.754 216.806 177.754C213.153 177.754 212.706 176.86 214.197 172.987C214.57 171.945 215.016 171.052 215.24 171.051ZM186.319 137.457C188.108 133.509 189.599 131.871 189.599 133.807C189.599 134.18 189.971 134.551 190.344 134.552C190.791 134.552 193.475 135.446 196.382 136.563L201.674 138.648L201.227 149.449C200.928 156.004 201.003 161.218 201.45 162.708C202.27 165.315 201.227 167.996 198.618 170.082C196.904 171.572 196.308 171.274 196.308 168.89C196.308 165.315 195.04 165.613 194.071 169.412C193.028 173.657 189.823 177.381 188.332 176.19C187.81 175.743 187.362 174.7 187.362 173.955C187.362 172.987 186.691 172.54 184.977 172.391C182.145 172.094 181.176 170.306 183.934 170.306C184.903 170.306 186.02 170.604 186.244 171.051C187.139 172.54 187.959 171.721 189.972 167.252C192.431 161.665 192.208 159.803 187.661 150.79C185.872 147.215 184.381 143.715 184.381 143.044C184.381 142.373 185.276 139.84 186.319 137.457ZM140.774 126.508C145.321 125.316 149.198 124.422 149.422 124.571C149.646 124.722 150.092 127.03 150.241 129.636C150.688 134.701 152.701 139.245 155.385 141.107C157.993 142.895 156.502 152.354 152.328 160.548C150.315 164.645 142.191 176.264 141.371 176.264C141.147 176.264 140.104 175.669 139.061 174.849C137.942 174.105 135.929 173.211 134.662 172.913C132.501 172.466 131.16 171.051 132.874 171.051C134.664 171.048 144.203 156.451 144.129 153.769C144.054 153.249 143.16 154.589 142.042 156.823C139.433 162.037 131.681 170.38 127.73 172.168C124.749 173.509 124.45 173.508 119.68 172.242C116.922 171.497 114.537 170.752 114.388 170.603C114.164 170.38 115.729 168.518 117.816 166.358C121.32 162.783 126.239 156.154 126.239 155.036C126.239 154.813 124.525 156.674 122.513 159.207C120.426 161.814 116.847 165.539 114.462 167.475C110.884 170.529 109.915 171.051 108.35 170.529C107.306 170.231 103.877 169.933 100.747 170.008C97.5418 170.008 94.9326 169.933 94.9326 169.784C94.9347 169.707 97.0953 167.176 99.7773 164.272C107.008 156.377 107.232 154.961 100.076 162.186C92.0258 170.231 89.7891 171.423 84.3476 170.753C82.0369 170.455 79.6513 169.784 78.9804 169.337C77.863 168.518 78.3106 167.996 82.5585 165.315C85.1675 163.602 87.777 161.442 88.2988 160.473C89.0442 159.058 88.8198 159.133 86.4345 161.219C83.0056 164.198 77.4895 167.028 73.7627 167.773C69.2907 168.592 70.5579 166.804 78.0117 161.889C83.4531 158.239 85.0935 156.674 87.8515 152.429C89.6399 149.674 91.428 147.142 91.8759 146.843C92.3232 146.619 92.6962 145.278 92.6962 144.012C92.6964 142.671 93.6658 139.617 94.8584 137.085L97.0195 132.541L106.188 132.094C116.698 131.572 128.848 129.636 140.774 126.508ZM308.863 168.517C305.211 164.719 302.155 162.262 302.154 163.08C302.154 163.229 304.615 165.539 307.597 168.071L312.963 172.764L308.863 168.517ZM289.632 137.606C291.495 136.712 293.732 136.266 294.999 136.489C298.279 136.936 301.931 140.138 304.019 144.309C306.404 148.928 314.603 157.717 320.119 161.441C323.622 163.825 324.443 164.793 325.263 167.698C325.784 169.56 326.007 171.273 325.858 171.497C325.113 172.167 313.559 163.006 310.279 159.058C301.483 148.481 299.397 147.513 290.303 149.822C286.576 150.79 284.041 151.014 280.314 150.641C277.558 150.344 275.323 149.822 275.32 149.524C275.32 148.481 277.78 141.628 278.376 140.808C278.749 140.362 280.687 139.766 282.774 139.543C284.787 139.319 287.917 138.426 289.632 137.606ZM157.994 146.991C158.516 143.416 158.516 143.341 160.752 143.788C161.945 144.011 167.461 144.235 172.977 144.235H182.965L186.617 151.833C190.717 160.175 191.015 162.261 188.853 166.581C187.214 169.858 186.169 170.231 184.679 168.22C184.083 167.475 183.71 167.326 183.636 167.848C183.636 170.008 177.15 168.816 166.044 164.644C159.932 162.335 154.863 160.399 154.714 160.25C154.639 160.175 155.236 157.941 156.056 155.334C156.876 152.727 157.77 148.928 157.994 146.991ZM284.936 160.176C285.532 159.58 283.892 159.952 278.004 161.814C274.724 162.783 269.432 163.825 266.227 164.049C257.729 164.794 257.729 166.209 266.151 165.613C271.295 165.315 274.351 164.645 278.749 162.857C281.952 161.592 284.784 160.4 284.936 160.176ZM202.867 148.406C203.165 148.109 203.762 149.226 204.283 150.864C205.401 154.737 206.594 165.088 205.998 165.464C205.029 166.06 203.687 164.496 203.017 162.038C202.122 159.058 202.047 149.225 202.867 148.406ZM223.067 125.986C239.541 127.699 255.94 131.87 265.183 136.638C270.623 139.468 271.146 139.617 272.04 138.426C272.562 137.755 273.233 136.265 273.457 135.073C273.755 133.956 274.202 133.062 274.575 133.062C275.246 133.064 276.065 136.787 276.065 139.691C276.065 141.777 273.978 148.705 273.382 148.705C272.411 148.703 263.915 142.447 259.965 138.872C256.983 136.116 256.089 135.595 257.207 137.159C258.921 139.617 263.244 143.789 266.599 146.321L268.686 147.885L266.151 148.332C264.735 148.63 261.306 150.492 258.549 152.503C253.182 156.376 249.902 157.642 244.908 157.642C243.194 157.642 240.436 158.313 238.796 159.133C234.845 161.144 233.428 160.995 230.521 158.313C224.409 152.652 222.397 152.504 217.104 157.42C215.092 159.282 213.304 160.696 213.228 160.548C213.079 160.399 212.185 155.781 211.216 150.418L209.501 140.511L212.706 137.01C214.494 135 215.984 133.363 216.061 133.286C216.135 133.137 217.626 134.552 219.415 136.414L222.694 139.691L218.371 141.703C213.079 144.086 213.378 144.831 218.894 142.894C226.124 140.362 226.049 140.511 220.98 135.892L216.582 131.722L217.328 128.593L218.147 125.465L223.067 125.986ZM204.88 137.978C205.551 136.489 206.296 135.371 206.669 135.595C206.967 135.819 207.712 138.575 208.159 141.777C208.681 144.98 209.426 149.375 209.799 151.609C210.768 157.345 210.619 158.909 209.277 159.431C208.607 159.728 207.937 159.803 207.787 159.728C207.713 159.579 206.743 155.259 205.699 150.12C203.836 141.331 203.836 140.585 204.88 137.978ZM66.6074 114.218C70.7071 113.547 77.6392 113.771 81.1425 114.739C85.2421 115.782 88.522 117.346 95.2304 121.442C97.6157 122.857 99.9267 124.199 100.374 124.348C100.821 124.497 100.598 125.54 99.7031 127.029C98.6596 128.817 97.9139 129.338 96.7959 129.04C95.9758 128.816 93.6651 128.37 91.5781 128.146C88.2238 127.774 87.4783 127.922 84.124 130.157C79.8006 133.137 75.7008 138.723 75.1044 142.82C74.3591 147.363 73.0925 145.427 73.6142 140.586C74.136 135.968 73.8375 136.191 70.707 142.149C67.949 147.363 64.4456 150.939 60.2714 152.876C54.3829 155.632 53.1154 155.185 56.9912 151.759C58.7801 150.194 61.0915 147.438 62.0605 145.65L63.8496 142.373L59.6748 146.321C53.3391 152.205 49.1648 153.919 40.5185 153.919C35.8225 153.993 32.8404 154.291 31.5732 155.036C28.7407 156.6 28.1443 156.376 30.0078 154.365C31.8713 152.428 35.5244 150.641 40.5185 149.375C45.5866 148.109 42.5302 146.992 34.5546 147.364C28.4428 147.588 27.7716 147.736 24.9394 150.045C21.2124 153.024 20.7645 151.535 24.1933 147.587C27.5476 143.788 29.9336 142.745 36.7168 142.447C39.9219 142.298 43.2015 141.777 44.0214 141.33C45.1393 140.66 44.8412 140.585 42.6796 140.958C41.1888 141.181 36.6422 140.809 32.6171 140.139C23.8961 138.649 20.3179 139.096 15.622 142.001C11.4478 144.682 11.2238 143.714 15.0253 139.691C16.8143 137.68 19.1249 136.265 21.8828 135.297L25.9824 133.882H22.0322C17.4853 133.807 13.0871 131.871 10.7763 128.891C9.88184 127.774 9.36064 126.731 9.50972 126.582C9.65993 126.359 11.2241 126.955 12.8632 127.848C16.2175 129.487 17.6341 129.636 29.3369 129.04C39.3253 128.518 39.1759 128.593 35.747 127.773C32.0948 126.879 28.8898 124.571 27.4736 121.889C26.8777 120.699 26.3562 119.582 26.3554 119.357C26.3554 119.134 28.0697 120.027 30.2314 121.368C33.4366 123.379 34.7785 123.752 38.58 123.752C42.456 123.752 44.1704 123.23 50.208 120.325C57.0657 116.973 62.7313 114.888 66.6074 114.218ZM191.761 139.393C192.73 135.744 192.282 135.223 190.791 138.202C189.151 141.256 189.301 146.917 191.09 150.566C192.059 152.503 192.432 152.875 192.208 151.683C191.164 146.619 191.015 142.075 191.761 139.393ZM246.249 133.732C246.249 134.775 250.424 139.99 253.629 143.118C256.759 146.097 257.356 147.215 255.791 147.215C254.375 147.215 247.219 150.79 248.411 150.864C249.231 150.939 259.292 148.109 260.263 147.513C260.337 147.438 257.281 144.236 253.331 140.288C249.457 136.416 246.252 133.437 246.249 133.732ZM241.33 137.159C236.783 132.392 235.292 131.126 236.186 132.913C236.857 134.254 238.646 136.787 240.137 138.5C241.627 140.213 243.268 142.15 243.79 142.82C244.684 143.863 244.087 144.385 238.349 147.14C234.771 148.854 232.013 150.417 232.236 150.566C232.759 151.087 247.291 145.204 247.517 144.459C247.591 144.161 244.833 140.809 241.33 137.159ZM149.72 135.297C149.943 134.85 149.72 134.552 149.198 134.627C146.738 134.701 144.949 136.116 144.129 138.574C143.458 140.734 142.489 141.628 138.837 143.49C134.141 145.874 133.694 145.576 135.185 141.554C135.631 140.437 135.855 139.395 135.632 139.245C135.483 139.096 133.619 139.171 131.457 139.469C127.954 139.916 127.06 140.437 124.078 143.639C121.469 146.395 119.829 147.513 117.369 148.034C113.568 148.853 112.3 148.183 113.493 145.874C114.909 143.267 114.462 142.746 111.033 142.746C108.201 142.746 107.306 143.193 104.623 145.725C102.089 148.183 100.97 148.705 98.5849 148.705C95.3798 148.705 95.4542 148.928 96.7959 144.385C97.094 143.491 96.9451 142.746 96.498 142.746C95.6035 142.746 94.7089 144.087 94.4853 145.725C94.4107 146.321 94.1125 147.513 93.8144 148.406C93.3672 149.821 93.6653 150.045 96.5722 150.418C100.448 150.939 103.728 149.598 106.039 146.47C107.232 144.757 108.275 144.235 110.139 144.235H112.673L111.853 146.843C111.406 148.258 111.257 149.672 111.555 149.896C111.778 150.194 113.94 150.12 116.325 149.822C120.276 149.375 120.947 149.002 124.376 145.427C127.357 142.298 128.774 141.405 130.936 141.107L133.768 140.808L133.246 144.012C132.724 147.81 133.172 147.959 138.166 145.65C142.34 143.788 143.905 142.373 145.694 138.798C146.514 137.308 147.632 136.042 148.228 136.042C148.75 136.042 149.496 135.669 149.72 135.297ZM231.714 137.01C225.08 129.338 224.633 128.891 224.633 129.785C224.633 130.903 228.36 136.191 231.49 139.469L234.397 142.522L228.956 144.607C223.291 146.767 219.191 149.375 223.515 148.034C229.18 146.321 235.516 144.011 236.112 143.49C236.409 143.116 234.471 140.212 231.714 137.01ZM147.856 110.493C147.856 109.003 147.856 109.003 149.645 110.641C150.614 111.535 152.701 112.653 154.267 113.025C155.832 113.472 157.919 114.515 158.813 115.335L160.379 116.824L162.242 114.142L164.031 111.461L166.565 114.664C169.845 118.835 175.511 123.752 179.312 125.688C181.995 127.103 182.294 127.401 181.847 129.412C181.474 131.423 181.698 131.722 183.636 132.467C186.319 133.36 186.393 133.658 184.008 138.276L182.144 141.851L177.225 142.373C171.783 142.969 163.956 142.374 159.559 141.107C153.968 139.468 151.583 134.03 151.583 123.007C151.583 118.091 151.732 117.42 152.925 117.42C154.192 117.42 154.416 118.314 154.863 124.273C155.609 134.775 155.683 134.999 159.708 136.563C163.435 138.053 175.584 138.425 176.927 137.085C177.299 136.712 174.765 136.414 169.995 136.414C162.019 136.414 158.069 135.445 157.1 133.211C156.876 132.465 156.429 128.369 156.205 123.9C155.907 116.228 155.832 115.931 154.117 115.931C151.881 115.93 147.857 112.504 147.856 110.493ZM71.3779 126.731C75.6266 124.571 74.434 124.199 69.9619 126.284C67.353 127.476 53.1894 139.32 53.1894 140.288C53.1916 140.807 56.9934 137.977 62.5078 133.137C65.4148 130.604 69.3654 127.7 71.3779 126.731ZM103.952 137.233C103.132 136.712 101.492 138.575 102.163 139.245C103.058 140.138 104.623 139.766 104.623 138.723C104.623 138.128 104.325 137.457 103.952 137.233ZM115.804 135.297C114.686 135.297 114.089 136.861 114.983 137.755C116.027 138.798 117.741 137.382 116.996 136.116C116.698 135.669 116.176 135.297 115.804 135.297ZM218.595 115.185C219.862 115.185 224.186 115.707 228.211 116.303C246.026 118.984 258.921 121.145 263.767 122.187L268.984 123.305L270.624 121.368C271.891 119.878 272.339 119.58 272.637 120.399C272.786 120.995 273.457 123.156 274.128 125.093C275.246 128.667 275.246 128.742 273.084 133.062L270.848 137.457L266.599 134.85C259.517 130.605 245.057 126.954 226.645 124.72C217.775 123.677 217.551 123.602 216.731 118.239C216.21 115.186 216.284 115.185 218.595 115.185ZM214.793 115.185C216.284 118.761 216.731 125.614 215.687 129.264C214.793 132.764 210.321 137.978 208.979 137.159C207.712 136.414 208.159 132.54 209.725 129.933C211.439 127.103 211.663 123.826 210.172 121.07C209.054 118.91 209.501 117.569 212.259 114.59L213.824 112.802L214.793 115.185ZM167.013 106.992C167.236 106.992 169.025 108.854 171.112 111.089C173.125 113.323 177.374 117.197 180.431 119.655L186.02 124.124L188.183 122.559C189.375 121.74 190.344 120.697 190.344 120.325C190.344 119.953 190.791 119.655 191.388 119.655C192.431 119.655 197.798 125.167 197.798 126.284C197.798 127.848 200.184 127.625 202.196 125.912C203.613 124.72 204.582 124.348 204.88 124.869C206.296 127.179 204.06 137.232 202.196 137.01C200.556 136.861 193.028 133.509 190.717 132.019C189.002 130.902 188.704 130.306 189.077 128.146C189.524 125.39 189.524 125.391 184.977 125.614C180.431 125.838 174.169 121.666 168.057 114.366C165.075 110.865 164.852 110.419 165.746 108.78C166.342 107.813 166.863 106.993 167.013 106.992ZM130.339 134.627C130.339 133.435 128.997 132.765 128.252 133.51C127.209 134.552 127.731 136.116 129.072 135.892C129.743 135.743 130.339 135.148 130.339 134.627ZM140.029 130.828C139.433 130.828 138.911 131.349 138.911 131.945C138.911 132.541 139.433 133.062 140.029 133.062C140.626 133.062 141.147 132.541 141.147 131.945C141.147 131.349 140.626 130.828 140.029 130.828ZM59.0791 122.932C59.9734 122.039 58.2584 122.932 53.5625 125.688C50.6555 127.401 47.0032 129.412 45.3632 130.157C43.7233 130.902 42.9036 131.572 43.5 131.572C45.6623 131.572 56.3212 125.688 59.0791 122.932ZM186.841 126.358C187.959 126.358 188.182 126.731 187.81 127.997C187.586 128.965 187.362 130.157 187.362 130.679C187.362 131.349 186.617 131.573 185.35 131.424C182.815 131.126 182.145 128.742 184.083 127.327C184.828 126.806 186.021 126.358 186.841 126.358ZM131.01 111.536C137.345 110.642 146.364 110.567 146.365 111.387C146.365 111.684 147.185 113.174 148.154 114.664C149.571 116.75 149.943 117.942 149.57 119.953C149.347 121.517 148.676 122.709 147.931 122.932C140.253 125.167 130.936 127.326 123.631 128.593C114.463 130.082 100.003 131.647 99.4794 131.126C98.734 130.381 102.387 125.166 105.741 122.038C111.555 116.75 121.022 112.802 131.01 111.536ZM270.624 128.668C269.729 127.997 269.431 128.072 269.133 128.891C268.612 130.306 269.953 131.274 270.922 130.306C271.369 129.86 271.295 129.264 270.624 128.668ZM198.245 128.816C197.499 127.997 193.401 127.848 192.953 128.593C192.729 128.965 193.401 129.487 194.444 129.785C196.457 130.306 199.065 129.636 198.245 128.816ZM207.787 121.144C209.725 121.145 210.395 125.316 208.83 128.072C207.936 129.71 207.936 129.635 207.414 127.475C207.116 126.209 206.892 124.347 206.817 123.155C206.743 121.889 207.116 121.144 207.787 121.144ZM263.617 126.806C262.797 125.986 261.903 126.358 261.903 127.401C261.903 127.997 262.201 128.668 262.573 128.891C263.319 129.413 264.288 127.476 263.617 126.806ZM253.032 124.273C252.585 124.124 252.213 124.571 252.213 125.241C252.213 125.911 252.585 126.358 253.032 126.21C253.479 126.061 253.852 125.613 253.852 125.241C253.852 124.869 253.479 124.422 253.032 124.273ZM184.604 52.617C199.587 52.6915 210.992 54.6284 222.247 59.0975L226.869 60.9598V65.2049C226.869 83.4541 218.818 105.055 207.041 118.165C203.91 121.666 201.078 124.646 200.631 124.795C198.916 125.39 191.76 116.675 186.394 107.364C182.07 99.7666 179.535 91.9453 178.119 81.8153C176.852 72.7278 176.256 54.9258 177.15 53.5106C177.598 52.9147 179.909 52.617 184.604 52.617ZM243.641 121.889C243.044 121.889 242.522 122.411 242.522 123.007C242.522 123.603 243.044 124.124 243.641 124.124C244.237 124.124 244.759 123.602 244.759 123.007C244.759 122.411 244.237 121.89 243.641 121.889ZM232.981 119.804C232.311 119.58 232.012 119.953 232.235 120.697C232.459 122.112 233.95 122.336 233.95 120.996C233.95 120.549 233.503 120.027 232.981 119.804ZM178.045 99.5438C180.281 99.5438 180.58 99.8412 182.518 104.385C183.636 107.066 185.872 111.088 187.437 113.323C189.003 115.632 190.344 117.718 190.344 118.091C190.343 118.389 189.524 119.431 188.48 120.399C186.691 122.038 186.393 122.113 184.828 121.144C180.356 118.388 173.796 112.653 170.964 109.078L167.833 105.204L169.846 103.491C170.889 102.523 172.231 101.778 172.753 101.778C173.349 101.778 174.169 101.257 174.69 100.661C175.212 100.065 176.703 99.5438 178.045 99.5438ZM225.825 95.8192C226.943 97.0855 228.807 98.6491 230 99.245C231.267 99.9154 233.28 101.554 234.547 102.97C235.739 104.459 238.87 106.619 241.33 107.886C243.864 109.152 246.846 110.94 247.964 111.908C249.082 112.876 251.243 113.844 252.809 114.142C254.299 114.44 257.207 115.484 259.294 116.378C261.306 117.346 264.438 118.314 266.227 118.612C267.941 118.836 269.581 119.357 269.805 119.729C270.475 120.921 268.164 121.294 265.183 120.474C262.797 119.879 229.478 114.44 228.061 114.44C227.763 114.44 227.614 113.249 227.614 111.834C227.614 108.258 225.825 105.055 223.067 103.565C220.533 102.299 220.533 101.629 222.769 96.3407L223.962 93.5096L225.825 95.8192ZM225.08 118.984C224.409 117.941 223.365 117.941 222.694 118.984C222.098 120.027 224.036 121.293 224.931 120.399C225.229 120.101 225.304 119.431 225.08 118.984ZM180.132 67.8123C180.505 82.4115 182.294 90.9029 187.139 101.331C190.046 107.588 195.562 115.408 199.065 118.537C201.003 120.176 201.227 120.176 202.568 119.058C205.699 116.302 212.929 106.471 215.24 101.852C216.582 99.1709 218.446 94.7761 219.266 92.0946C221.129 86.2846 223.738 72.5048 224.036 66.7694L224.26 62.6727L216.061 60.3631C211.514 59.0224 204.507 57.4583 200.407 56.7879C196.308 56.1921 189.972 55.5219 186.319 55.3729L179.76 55.075L180.132 67.8123ZM191.164 57.3094C201.227 57.7563 210.47 59.5438 219.042 62.8211L222.769 64.2372L222.546 69.0038C222.173 76.4524 219.638 87.9236 216.731 94.9998C212.632 105.279 202.644 118.835 199.96 117.793C198.022 116.973 192.505 108.928 188.778 101.405C183.412 90.456 182.07 84.5714 181.623 69.451L181.176 56.8631L191.164 57.3094ZM226.72 84.6463C226.943 84.6463 229.03 86.1363 231.267 87.8495C237.379 92.6166 244.311 96.8622 252.287 100.661C259.145 103.864 269.804 106.992 273.978 106.992C275.544 106.992 276.14 107.439 276.513 108.854C277.333 112.132 276.438 113.175 273.382 112.579C270.922 112.132 270.699 112.281 271.221 113.473C272.488 116.675 272.189 117.047 268.016 116.898C263.021 116.675 260.487 115.483 258.549 112.43C256.909 109.748 255.567 109.227 256.312 111.461C256.909 113.248 255.492 113.398 251.989 111.908C249.157 110.716 246.622 108.109 245.877 105.502L245.28 103.64L244.684 105.353L244.014 107.066L241.106 105.577C237.976 103.938 234.696 100.512 233.95 97.9793C233.503 96.7876 233.279 96.6388 232.832 97.3836C231.266 99.7663 225.378 93.7336 225.378 89.786C225.378 88.8177 225.602 87.2533 225.825 86.285C226.123 85.3913 226.496 84.6466 226.72 84.6463ZM267.121 41.8163C265.779 40.1776 267.344 40.3268 273.755 42.5614C276.811 43.5297 279.494 44.1999 279.867 43.9764C280.985 43.3063 284.861 45.8389 286.948 48.5204L288.961 51.202L287.395 54.0321C286.501 55.5963 285.756 58.1293 285.756 59.619V62.2997H289.11C291.719 62.2996 292.465 62.0021 292.465 61.1082C292.465 60.14 291.942 59.9907 289.855 60.3631C287.396 60.8845 287.246 60.7359 287.246 58.8739C287.246 57.8311 287.992 55.5963 288.887 54.0321C290.154 51.7231 291.644 50.6057 295.744 48.5946C298.651 47.2538 301.186 46.2112 301.335 46.3602C302.079 47.032 298.651 54.7766 296.788 56.4901L294.7 58.4266L297.235 59.9911C298.577 60.8847 300.589 61.5554 301.707 61.5555C304.018 61.5555 304.242 62.6726 302.08 63.7899C300.664 64.6092 300.664 64.7583 301.782 66.4715C302.825 68.0354 302.825 68.2586 301.782 68.2586C301.186 68.2586 298.95 67.44 296.788 66.3973C292.539 64.3117 292.166 64.2367 292.763 65.2049C293.21 65.8753 289.781 66.7693 286.65 66.7694H284.787L285.309 82.4862C285.607 91.1256 286.129 98.8713 286.427 99.7664C286.874 100.884 288.216 101.629 291.421 102.448C294.999 103.416 295.819 103.938 295.894 105.279C295.968 106.173 296.191 107.439 296.489 108.109C297.16 109.897 290.526 115.931 287.917 115.931C285.606 115.93 284.414 113.919 286.203 113.175C287.172 112.802 287.321 112.057 286.948 109.376C286.426 105.354 285.458 104.013 283.072 104.013C281.88 104.013 280.985 104.757 280.091 106.321L278.898 108.631L277.258 107.066C276.289 106.173 274.575 105.502 273.233 105.502C271.221 105.502 269.432 104.385 270.251 103.64C270.4 103.417 272.413 103.64 274.649 103.938C278.749 104.609 280.165 104.385 278.451 103.343C276.96 102.449 279.345 100.809 281.283 101.405C282.476 101.778 282.774 101.555 282.774 100.139C282.774 97.309 280.389 72.3554 280.091 72.0575C279.122 71.015 279.121 73.7715 280.165 83.9012C281.656 98.9463 281.656 99.5437 279.793 99.5438C278.153 99.5438 276.587 96.9364 275.692 92.8397C275.394 91.4245 274.202 89.115 273.01 87.7743C270.475 84.9438 270.326 83.6034 272.189 80.5497C274.724 76.453 274.649 75.3354 272.115 78.2401L269.58 81.2196L269.133 79.283C268.387 76.5271 269.207 72.8767 271.369 69.078C272.562 66.9925 272.86 65.9502 272.264 66.1737C271.667 66.3232 270.474 67.9615 269.58 69.7489C267.269 74.1436 267.27 81.2198 269.432 85.5399L270.997 88.5936L268.984 90.158C267.046 91.7223 266.971 92.0202 267.269 98.0536C267.568 105.577 268.239 105.428 256.61 100.735C247.591 97.0854 238.571 91.9456 232.012 86.6571C227.838 83.231 227.465 82.7838 227.912 80.6239C228.881 76.0058 231.789 71.4623 237.602 65.578C244.609 58.6508 250.2 55.5215 259.144 53.5848C264.213 52.4675 265.779 52.4679 270.698 53.2127C273.829 53.7341 277.63 54.3301 279.047 54.5536L281.656 54.9256L279.644 53.7342C276.96 52.17 267.94 51.0527 262.797 51.5741C251.02 52.766 238.87 59.6935 231.714 69.1532L228.285 73.7713L228.359 67.8123C228.434 64.6094 228.435 61.4063 228.435 60.8104C228.36 60.14 227.242 59.2461 225.975 58.6502L223.515 57.6815L226.869 56.2664C228.733 55.4471 232.087 54.4794 234.323 54.1815L238.423 53.66L235.292 53.0633C233.503 52.7654 232.087 52.2443 232.087 51.8719C232.087 51.5739 233.354 50.6799 234.845 50.0096C237.006 48.9669 238.721 48.8181 243.193 49.1161L248.858 49.5633L245.354 47.701C243.343 46.7334 241.779 45.6911 241.777 45.4666C241.777 45.1687 244.833 45.0938 248.485 45.3172L255.194 45.6151L252.958 44.2C251.765 43.4552 250.722 42.6354 250.722 42.412C250.724 41.8166 259.667 42.7104 261.53 43.3807C262.797 43.902 262.871 43.7533 262.126 42.785C261.604 42.1891 261.381 41.444 261.68 41.2205C262.35 40.5504 262.276 40.5501 265.406 41.8163C267.717 42.7845 267.941 42.7844 267.121 41.8163ZM280.687 107.961C282.178 105.503 283.743 104.832 284.638 106.247C285.159 107.066 283.594 114.366 282.699 115.483C282.401 115.781 281.507 114.813 280.687 113.249C279.271 110.493 279.271 110.419 280.687 107.961ZM216.881 108.481C218.52 105.502 219.117 104.907 220.16 105.503C222.173 106.62 223.217 108.184 223.664 111.163L224.111 113.919L220.16 113.398C217.924 113.1 215.838 112.653 215.539 112.504C215.166 112.28 215.837 110.492 216.881 108.481ZM166.268 99.8416C167.758 98.7244 169.547 98.7242 169.994 99.9159C170.143 100.363 168.43 102.747 166.193 105.279C163.958 107.886 161.945 110.641 161.646 111.461C160.976 113.472 159.485 112.951 159.186 110.641C158.964 108.853 163.435 102.002 166.268 99.8416ZM148.602 106.918C148.602 104.907 149.944 105.205 153.745 107.961C157.844 110.94 158.366 112.206 155.608 112.206C153.074 112.206 148.602 108.855 148.602 106.918ZM289.93 108.854C289.259 107.141 288.886 106.917 288.588 107.886C288.066 109.077 289.781 112.206 290.452 111.461C290.675 111.236 290.451 110.12 289.93 108.854ZM176.852 108.854C176.331 108.333 175.437 109.227 175.436 110.269C175.436 110.716 175.809 110.641 176.331 110.12C176.778 109.673 177.001 109.078 176.852 108.854ZM293.061 107.066C292.017 105.428 291.272 105.13 290.676 106.173C290.229 106.918 292.986 109.674 293.657 109.078C293.881 108.78 293.582 107.96 293.061 107.066ZM147.856 97.9051C147.856 94.4787 148.825 94.3292 152.403 97.2342C154.565 99.0963 155.012 99.8413 154.714 101.629C154.565 102.82 154.788 104.534 155.235 105.428C156.353 107.364 155.758 107.364 152.627 105.428C149.198 103.342 147.857 101.257 147.856 97.9051ZM164.255 83.0819C166.417 82.7839 167.088 83.0075 168.28 84.4227C169.697 86.2849 174.691 89.1151 176.405 89.1151C177.001 89.1152 177.672 90.0836 177.895 91.2752C178.119 92.467 178.566 94.2549 178.79 95.2977C179.237 96.9364 179.014 97.2346 176.852 97.6815C175.511 97.9794 173.796 98.5754 173.051 99.0223C172.007 99.6925 171.411 99.4687 169.846 98.0536L167.907 96.1913L164.776 99.5438C162.987 101.406 160.9 103.864 160.006 105.13C158.664 106.992 158.291 107.141 157.248 106.322C156.503 105.726 156.056 104.161 156.056 102.448C156.056 99.9158 156.429 99.2457 159.857 96.5643C161.944 94.9259 164.254 93.5854 165 93.5848C165.745 93.5848 166.64 93.2123 166.938 92.7655C167.907 91.1268 163.286 92.8392 159.41 95.4461C157.398 96.8614 155.608 97.8305 155.459 97.6815C154.714 97.0111 156.13 93.7337 158.366 91.1268C160.677 88.2964 160.752 88.2958 164.926 88.8172C167.236 89.0406 168.876 89.041 168.504 88.6688C168.206 88.3708 166.565 87.9235 164.776 87.7C162.019 87.3276 161.646 87.0291 161.646 85.3905C161.647 83.8267 162.094 83.4543 164.255 83.0819ZM142.639 76.5272C145.024 76.4528 146.962 77.6441 145.993 78.5379C145.546 78.9104 138.39 81.8158 129.967 84.9442C121.544 88.1471 105.89 94.2541 95.1562 98.4998C84.4969 102.746 75.1793 106.247 74.583 106.247C72.347 106.247 72.4958 104.757 74.8808 103.342C77.4152 101.777 90.2364 96.4888 121.021 84.3475C131.904 80.0273 141.595 76.5272 142.639 76.5272ZM205.028 64.0135C200.332 63.6412 197.723 65.1311 194.145 70.1961C184.903 82.9332 190.344 102.523 203.016 102.523C206.146 102.523 206.966 102.15 209.575 99.618C213.451 95.8192 214.719 91.7964 213.153 88.0721C211.737 84.646 208.904 82.784 206.817 83.9012C204.805 84.9441 204.731 87.6258 206.743 87.6258C208.234 87.626 209.725 89.637 209.725 91.7225C209.724 94.3295 207.19 98.2029 204.805 99.3202C202.569 100.437 202.196 100.437 200.481 99.245C197.202 97.1594 196.158 94.1056 196.158 86.5829C196.158 79.3577 197.052 74.8882 199.363 70.3446C202.568 64.0877 208.607 64.6842 211.216 71.537C212.185 74.1437 211.588 76.2292 209.725 76.825C207.861 77.4209 208.681 79.4325 210.843 79.4325C213.824 79.4324 214.942 77.1975 214.942 71.3133C214.942 66.025 214.868 65.8755 213.303 66.2479C212.259 66.5458 211.141 66.2476 210.321 65.5028C209.501 64.8324 207.264 64.1625 205.028 64.0135ZM289.11 68.1844C297.086 66.9927 298.428 67.5143 298.428 71.6854V74.8885L308.714 75.1122L318.926 75.3358L312.218 77.0487C308.565 78.017 304.316 79.0598 302.825 79.5067C298.8 80.5495 297.905 82.4864 296.936 92.5418C296.49 97.3801 296.043 101.475 295.894 101.629C295.744 101.778 293.731 101.331 291.495 100.661L287.395 99.4686L286.948 86.285C286.65 79.0598 286.352 72.0578 286.277 70.8661C286.128 68.7805 286.352 68.6313 289.11 68.1844ZM176.182 94.4784C175.138 94.4784 174.765 94.627 175.287 94.8504C175.734 94.9994 176.629 94.9994 177.15 94.8504C177.598 94.627 177.225 94.4784 176.182 94.4784ZM171.187 76.453C174.467 74.4419 175.436 74.5904 175.436 77.1971C175.436 78.3888 175.809 81.0705 176.256 83.1561C176.703 85.2417 176.927 87.179 176.703 87.328C176.478 87.5505 174.615 86.88 172.529 85.8377C168.877 83.9756 168.727 83.7522 168.727 80.9217C168.727 78.3148 169.1 77.7192 171.187 76.453ZM265.183 73.4735C266.375 69.8983 266.375 69.0783 264.959 70.7166C262.723 73.4726 262.648 82.3371 264.81 85.7635C265.704 87.2532 265.704 87.2532 265.257 85.7635C264.064 82.1883 264.065 76.6764 265.183 73.4735ZM153.745 69.9725C156.279 68.2594 157.77 68.2588 162.242 69.8973C164.777 70.8656 164.776 71.2383 161.795 73.1004C160.528 73.9197 159.336 75.2606 159.186 76.0799C159.037 77.3462 159.261 77.1971 160.528 75.5584C162.392 73.1752 166.491 72.1323 169.249 73.3983L171.187 74.2928L169.175 76.3036C168.131 77.4951 167.237 79.0591 167.236 79.953C167.236 81.3682 166.714 81.5173 158.888 81.8153C149.72 82.2621 148.452 81.8156 148.452 78.3895C148.452 75.7825 150.838 71.9092 153.745 69.9725ZM293.061 71.537C292.464 71.1645 292.39 71.9839 292.688 74.5164C293.136 77.4953 292.986 78.0167 292.092 77.6444C291.495 77.4209 290.974 77.5699 290.974 77.9422C290.974 78.836 293.508 80.1764 295.147 80.1766C296.34 80.1766 296.341 80.1021 295.223 78.8358C294.477 78.0909 293.955 76.2288 293.955 74.7391C293.955 73.2496 293.582 71.835 293.061 71.537ZM37.5361 68.036C35.6725 70.494 31.9453 73.6221 29.4111 74.9627C25.7588 76.8248 23.1496 77.1229 18.081 76.3036C13.3108 75.4843 12.7145 75.559 9.58394 77.0487C5.85692 78.8363 -2.19358 79.4318 0.564408 77.7186C1.38447 77.1971 3.76939 75.2603 5.8564 73.3983C10.9251 68.9292 12.5654 68.5569 18.9755 70.6424C24.6406 72.4301 24.3431 72.5047 31.9462 67.8866C33.5861 66.8438 35.8966 66.0243 37.0146 66.0243H39.1015L37.5361 68.036ZM170.814 28.1112C174.392 26.9939 177.523 26.249 177.747 26.4725C178.045 26.6976 178.492 29.1551 178.79 31.91L179.312 36.9745L175.884 38.6131C174.02 39.507 172.454 40.5505 172.454 40.8485C172.455 41.1463 173.872 41.5184 175.66 41.5184C181.697 41.6674 183.114 42.3377 185.723 46.2108C186.99 48.1474 188.108 50.0844 188.108 50.4569C188.108 50.8293 185.648 51.1268 182.592 51.1268C176.107 51.1268 174.244 52.2443 174.989 55.745C175.362 57.458 175.138 57.8308 173.871 57.8309C173.051 57.8309 172.231 57.2349 171.933 56.4901C171.262 54.6279 167.907 51.1268 166.715 51.1268C165.15 51.1268 165.597 52.1698 167.46 52.9891C168.354 53.436 169.696 54.9264 170.367 56.3416C171.113 57.7567 172.454 59.0976 173.349 59.3211C174.839 59.6936 174.989 60.2148 175.213 66.1737C175.436 73.4731 174.84 74.2922 170.517 72.2811C167.46 70.8659 167.237 69.3763 169.92 68.7059C171.336 68.3335 171.709 67.961 171.112 67.3651C170.516 66.7696 169.398 67.0671 167.162 68.2586C164.255 69.7484 163.882 69.7487 163.062 68.7059C162.615 68.0355 161.348 67.5145 160.229 67.5145C158.963 67.5144 158.366 67.2163 158.664 66.6952C159.335 65.7268 156.95 63.0448 155.385 63.0448C154.341 63.0448 154.341 63.194 155.311 63.7899C157.024 64.8326 155.757 65.4288 153.446 64.535C152.328 64.0882 151.211 63.8645 151.061 64.0877C150.912 64.2367 151.881 64.758 153.223 65.2049L155.608 66.0243L152.999 67.8123C150.092 69.8235 147.856 72.7286 147.856 74.5907C147.856 75.5587 147.409 75.7072 145.471 75.3348C141.967 74.5899 139.656 72.9515 139.656 71.1639C139.656 67.5885 145.545 60.0653 148.378 60.0653C148.825 60.0653 149.645 59.3955 150.167 58.5018C151.583 56.4907 154.192 57.1606 158.217 60.5868C159.931 62.0018 161.273 62.8212 161.273 62.3748C161.273 61.481 159.485 59.6185 157.1 58.1288C155.46 57.0115 155.385 57.012 156.876 55.5223C158.367 54.0326 158.366 54.0319 162.019 56.0428C164.031 57.1601 165.894 58.6505 166.118 59.3954C166.64 60.885 167.982 61.3318 167.982 59.9911C167.982 59.0972 164.628 55.6707 162.392 54.3299C161.423 53.7341 161.199 53.2131 161.721 52.8407C162.168 52.5427 163.286 50.829 164.255 49.1903C166.342 45.3916 168.206 44.2743 172.753 44.2743C175.213 44.1998 176.853 44.6472 178.418 45.7645C180.952 47.7008 181.474 47.7752 180.952 46.3602C180.356 44.7215 175.958 42.9335 172.529 42.9334C169.241 42.9334 169.107 43.0025 170.416 38.6082C169.611 39.4318 168.604 40.2247 167.92 41.1327C167.572 42.1715 165.724 44.7804 163.51 47.328C159.485 52.0205 158.739 52.5419 155.608 53.0633C148.9 54.0316 136.824 52.8407 125.867 50.0848C106.04 45.1688 91.8019 44.6465 79.2793 48.4452C63.4792 53.2115 59.1544 54.3297 58.706 53.9579C58.4824 53.6599 60.0477 51.1274 62.1347 48.2225C75.552 29.7499 95.7525 23.5673 125.494 28.7069C146.514 32.3567 158.217 32.2079 170.814 28.1112ZM77.0429 50.4569C78.6821 50.3829 66.8304 61.183 62.6562 63.492C58.5565 65.7265 53.3388 66.0985 41.4873 64.9813L34.5546 64.3114L30.3056 66.9188C25.0141 70.1212 23.5231 70.6424 21.7343 70.0467C20.5417 69.6743 20.7648 69.3019 23.2988 67.5145C24.8641 66.3228 27.2493 64.0878 28.5166 62.4491C33.0635 56.7881 35.4493 56.0437 50.208 55.5223C62.358 55.0754 63.7001 54.9256 69.5888 52.7655C73.0922 51.4992 76.4466 50.4569 77.0429 50.4569ZM279.346 66.0243C279.197 66.0243 279.047 66.3225 279.047 66.7694C279.047 67.1418 279.42 67.5145 279.867 67.5145C280.24 67.5144 280.389 67.1418 280.165 66.7694C279.942 66.3228 279.569 66.0246 279.346 66.0243ZM291.57 56.0428C292.539 53.8833 292.315 53.5852 290.974 55.2235C290.526 55.8194 290.228 56.6396 290.377 57.161C290.526 57.6074 291.049 57.1599 291.57 56.0428ZM151.136 4.0516C153.67 2.93433 155.385 2.71098 160.9 2.93442C167.311 3.23236 168.429 3.53023 175.734 7.0311C176.107 7.25452 176.107 6.95678 175.809 6.43539C174.765 4.7223 180.728 6.21231 184.008 8.52133C185.648 9.63863 187.735 11.9474 188.63 13.5116C190.27 16.4165 190.419 16.4914 195.189 16.9383C201.972 17.5342 202.419 18.2788 198.469 22.45C196.009 24.9823 194.444 25.9506 192.208 26.3231C188.928 26.8445 188.108 27.5895 188.108 30.1219C188.108 31.2392 188.853 32.2823 190.269 33.0272C192.207 34.1445 192.357 34.6657 192.282 38.0174L192.208 41.742L195.935 43.828C198.022 44.9452 199.065 45.9129 198.394 45.9129C196.904 45.9129 196.68 47.1798 197.798 50.0848L198.544 52.0213L194.295 51.4998C191.91 51.2019 189.971 50.9041 189.896 50.9041C189.896 50.8297 188.928 49.1162 187.885 47.1053C186.767 45.0945 186.021 43.3068 186.17 43.0829C186.393 42.9339 187.884 43.4547 189.599 44.3485C192.953 46.0617 193.623 45.243 190.567 43.0829C188.033 41.3698 184.009 39.9541 181.549 39.9539C179.909 39.9539 179.834 39.7308 180.281 37.869C180.952 35.6344 180.952 35.2616 180.207 29.7498C179.611 24.7593 180.132 22.7477 182.965 19.5448L185.201 16.9383L183.263 16.4168C180.207 15.672 176.181 16.6404 172.23 19.0985C168.131 21.6307 165.001 22.5238 162.988 21.7791C161.945 21.3322 162.093 21.0344 164.031 19.8426C167.758 17.608 167.46 17.0124 163.286 18.4276C161.125 19.1724 158.516 19.7681 157.397 19.8426C156.205 19.8426 155.086 20.4384 154.564 21.2577C153.67 23.0453 151.061 22.5245 150.465 20.5135C149.868 18.7258 149.421 18.8001 147.11 20.5877C144.874 22.3752 142.266 22.5985 142.936 20.9598C143.458 19.4705 143.309 19.5452 139.21 21.7049C135.036 23.9395 130.786 24.0887 126.612 22.1522C122.885 20.4391 121.17 18.5024 121.096 16.119C121.096 15.0762 120.872 13.0648 120.574 11.575C120.052 8.5211 121.245 5.69028 122.96 5.69028C123.705 5.69039 123.929 6.13743 123.631 7.10532C123.034 9.11645 123.929 10.8305 126.314 12.0223C129.221 13.5862 133.693 13.5112 133.693 11.9471C133.694 10.3083 137.793 6.43561 139.582 6.43539C141.222 6.43539 142.266 8.66969 141.52 10.9041C141.073 12.2449 141.371 12.3944 143.905 12.3944C145.545 12.3944 147.484 11.8724 148.304 11.202C149.645 10.085 149.57 10.0855 147.334 10.4579C145.992 10.6812 144.875 10.6065 144.875 10.2342C144.875 8.81899 148.303 5.39239 151.136 4.0516ZM198.544 48.3709C198.544 47.1795 200.332 47.1049 202.345 48.1473C204.134 49.1156 204.283 51.8719 202.494 51.8719C201.003 51.8718 198.544 49.7861 198.544 48.3709ZM297.31 15.2997C298.353 14.2569 299.546 14.9267 299.769 16.5653C299.993 18.055 292.315 21.1095 239.913 40.327C236.26 41.7423 228.136 44.7214 221.949 46.9559C215.763 49.2647 209.577 51.3502 208.234 51.5741C206.073 52.021 205.923 51.9462 206.146 50.3075C206.296 48.8925 207.415 48.2219 212.334 46.4344C222.024 42.9336 230.447 39.8051 253.703 31.1649C265.779 26.6957 280.389 21.4072 286.129 19.4705C291.867 17.5343 296.861 15.6726 297.31 15.2997ZM282.476 46.8065C281.134 45.6152 281.134 45.6155 282.028 47.2538C282.475 48.2219 283.072 48.8176 283.37 48.5946C283.594 48.2966 283.221 47.5514 282.476 46.8065ZM172.306 45.9872C171.188 45.9127 170.069 46.2111 169.846 46.658C169.324 47.5519 170.74 47.5519 172.827 46.658C174.169 46.0622 174.094 45.9872 172.306 45.9872ZM199.662 23.6414C202.196 20.8859 202.867 20.9603 204.805 24.2372C206.594 27.3656 206.072 27.8875 199.14 29.5262C194.966 30.5689 194.295 30.8667 196.232 30.9413C197.649 31.0157 200.929 30.4944 203.612 29.8241C206.221 29.1539 208.456 28.7816 208.681 29.0047C209.351 29.6751 207.116 46.6562 206.296 46.9559C205.849 47.1049 202.792 45.8383 199.587 44.0506L193.698 40.9227L193.475 37.0497C193.325 34.9642 193.028 33.2511 192.729 33.2508C192.431 33.2508 191.462 32.6548 190.493 31.91C188.331 30.2713 189.002 28.036 191.611 28.036C193.997 28.036 196.979 26.3974 199.662 23.6414ZM200.258 37.2723C199.289 36.9 199.14 36.975 199.736 37.6454C200.705 38.7624 205.25 40.0281 205.252 39.2098C205.252 38.9119 204.432 38.3903 203.463 38.1668C202.494 37.9434 201.078 37.4957 200.258 37.2723ZM230.596 0.178558C231.639 0.0295847 237.006 -0.0453429 242.522 0.0291435C257.952 0.401584 264.959 3.45591 273.233 13.5116C275.544 16.342 277.482 18.949 277.557 19.2469C277.631 20.5132 274.873 22.0777 267.94 24.6102L260.486 27.4403L255.418 24.1629C248.784 19.7682 245.951 18.7252 241.031 18.7997C235.366 18.7998 230.074 21.7795 219.191 31.0155C214.421 35.1122 210.246 38.4647 210.022 38.4647C209.725 38.4628 209.799 35.7819 210.022 32.5057C210.544 26.7706 210.545 26.5467 208.979 26.5467C208.085 26.5467 207.562 26.2483 207.786 25.8758C208.009 25.5029 206.668 22.9706 204.805 20.1405L201.45 15.0008L204.581 12.245C210.991 6.73301 221.129 2.04075 230.596 0.178558ZM197.649 33.4735C196.904 33.3245 196.308 33.4741 196.308 33.8465C196.309 34.7402 205.175 36.2293 205.699 35.411C205.848 35.113 204.432 34.5915 202.494 34.368C200.482 34.0701 198.32 33.6969 197.649 33.4735ZM195.785 20.5135C194.965 19.6942 191.015 19.0979 189.599 19.5448C186.542 20.6621 184.903 21.8542 183.859 23.7909C183.114 25.3549 182.964 26.1745 183.561 26.7704C184.157 27.3662 184.381 27.1425 184.381 26.0252C184.381 25.1314 185.425 23.5673 186.767 22.45C188.854 20.737 189.673 20.439 192.804 20.8114C194.742 20.9603 196.083 20.8115 195.785 20.5135ZM329.362 5.02035C330.703 4.87158 328.616 6.28655 320.79 11.1278C313.411 15.5969 312.665 15.8947 307.224 16.3416C302.603 16.6396 301.41 16.5655 301.111 15.5975C300.366 13.6609 300.589 13.2878 302.751 12.7664C303.944 12.543 306.031 11.2022 307.373 9.78696C309.609 7.47819 310.354 7.1798 314.007 7.10532C316.317 7.1053 320.566 6.65891 323.398 6.13754C326.305 5.54165 328.915 5.09484 329.362 5.02035ZM166.491 9.4891C160.603 9.56359 161.348 9.93574 168.28 10.3827C171.411 10.6061 172.976 10.4572 172.38 10.0848C171.783 9.71245 169.174 9.4891 166.491 9.4891Z" fill="black"/>
</svg>
