<svg width="728" height="728" viewBox="0 0 728 728" fill="none" xmlns="http://www.w3.org/2000/svg">
<path fill-rule="evenodd" clip-rule="evenodd" d="M364 56C193.896 56 56 193.896 56 364C56 534.102 193.896 671.999 364 671.999C534.102 671.999 671.999 534.102 671.999 364C671.999 193.896 534.102 56 364 56ZM0 364C0 162.968 162.968 0 364 0C565.033 0 728 162.968 728 364C728 565.033 565.033 728 364 728C162.968 728 0 565.033 0 364ZM364 336C379.464 336 392 348.536 392 364V494.667C392 510.132 379.464 522.668 364 522.668C348.536 522.668 336 510.132 336 494.667V364C336 348.536 348.536 336 364 336ZM364 214.667C343.381 214.667 326.667 231.382 326.667 252C326.667 272.618 343.381 289.333 364 289.333H364.374C384.992 289.333 401.707 272.618 401.707 252C401.707 231.382 384.992 214.667 364.374 214.667H364Z" fill="#E4AF0A"/>
</svg>
