<svg width="10" height="11" viewBox="0 0 10 11" fill="none" xmlns="http://www.w3.org/2000/svg">
<path d="M3.73418 1.34902C3.99373 -0.0553863 6.00624 -0.0553864 6.2658 1.34902C6.40969 2.1276 7.2157 2.59295 7.96191 2.32827C9.30794 1.85085 10.3142 3.59373 9.22772 4.52072C8.6254 5.03462 8.6254 5.96532 9.22772 6.47922C10.3142 7.40621 9.30794 9.14909 7.96191 8.67167C7.2157 8.407 6.40969 8.87234 6.2658 9.65092C6.00624 11.0553 3.99373 11.0553 3.73418 9.65092C3.59029 8.87234 2.78428 8.407 2.03806 8.67167C0.692034 9.14909 -0.314219 7.40621 0.772254 6.47922C1.37458 5.96532 1.37458 5.03462 0.772255 4.52072C-0.314219 3.59373 0.692034 1.85085 2.03806 2.32827C2.78428 2.59295 3.59029 2.1276 3.73418 1.34902Z" fill="black"/>
</svg>
