<svg width="711" height="559" viewBox="0 0 711 559" fill="none" xmlns="http://www.w3.org/2000/svg">
<path d="M119.5 0.5C135.83 0.5 151.429 8.23892 165.663 22.3203C179.899 36.4038 192.742 56.8078 203.539 82.0605C225.132 132.564 238.5 202.369 238.5 279.5C238.5 356.631 225.132 426.436 203.539 476.939C192.742 502.192 179.899 522.596 165.663 536.68C151.429 550.761 135.83 558.5 119.5 558.5C103.17 558.5 87.5709 550.761 73.3369 536.68C59.1008 522.596 46.2577 502.192 35.4609 476.939C13.8681 426.436 0.5 356.631 0.5 279.5C0.5 202.369 13.8681 132.564 35.4609 82.0605C46.2577 56.8078 59.1008 36.4038 73.3369 22.3203C87.5709 8.23892 103.17 0.5 119.5 0.5Z" stroke="#BEBAB3" stroke-opacity="0.3"/>
<path d="M237.5 0.5C253.83 0.5 269.429 8.23892 283.663 22.3203C297.899 36.4038 310.742 56.8078 321.539 82.0605C343.132 132.564 356.5 202.369 356.5 279.5C356.5 356.631 343.132 426.436 321.539 476.939C310.742 502.192 297.899 522.596 283.663 536.68C269.429 550.761 253.83 558.5 237.5 558.5C221.17 558.5 205.571 550.761 191.337 536.68C177.101 522.596 164.258 502.192 153.461 476.939C131.868 426.436 118.5 356.631 118.5 279.5C118.5 202.369 131.868 132.564 153.461 82.0605C164.258 56.8078 177.101 36.4038 191.337 22.3203C205.571 8.23892 221.17 0.5 237.5 0.5Z" stroke="#BEBAB3" stroke-opacity="0.3"/>
<path d="M355.5 0.5C371.83 0.5 387.429 8.23892 401.663 22.3203C415.899 36.4038 428.742 56.8078 439.539 82.0605C461.132 132.564 474.5 202.369 474.5 279.5C474.5 356.631 461.132 426.436 439.539 476.939C428.742 502.192 415.899 522.596 401.663 536.68C387.429 550.761 371.83 558.5 355.5 558.5C339.17 558.5 323.571 550.761 309.337 536.68C295.101 522.596 282.258 502.192 271.461 476.939C249.868 426.436 236.5 356.631 236.5 279.5C236.5 202.369 249.868 132.564 271.461 82.0605C282.258 56.8078 295.101 36.4038 309.337 22.3203C323.571 8.23892 339.17 0.5 355.5 0.5Z" stroke="#BEBAB3" stroke-opacity="0.3"/>
<path d="M473.5 0.5C489.83 0.5 505.429 8.23892 519.663 22.3203C533.899 36.4038 546.742 56.8078 557.539 82.0605C579.132 132.564 592.5 202.369 592.5 279.5C592.5 356.631 579.132 426.436 557.539 476.939C546.742 502.192 533.899 522.596 519.663 536.68C505.429 550.761 489.83 558.5 473.5 558.5C457.17 558.5 441.571 550.761 427.337 536.68C413.101 522.596 400.258 502.192 389.461 476.939C367.868 426.436 354.5 356.631 354.5 279.5C354.5 202.369 367.868 132.564 389.461 82.0605C400.258 56.8078 413.101 36.4038 427.337 22.3203C441.571 8.23892 457.17 0.5 473.5 0.5Z" stroke="#BEBAB3" stroke-opacity="0.3"/>
<path d="M591.5 0.5C607.83 0.5 623.429 8.23892 637.663 22.3203C651.899 36.4038 664.742 56.8078 675.539 82.0605C697.132 132.564 710.5 202.369 710.5 279.5C710.5 356.631 697.132 426.436 675.539 476.939C664.742 502.192 651.899 522.596 637.663 536.68C623.429 550.761 607.83 558.5 591.5 558.5C575.17 558.5 559.571 550.761 545.337 536.68C531.101 522.596 518.258 502.192 507.461 476.939C485.868 426.436 472.5 356.631 472.5 279.5C472.5 202.369 485.868 132.564 507.461 82.0605C518.258 56.8078 531.101 36.4038 545.337 22.3203C559.571 8.23892 575.17 0.5 591.5 0.5Z" stroke="#BEBAB3" stroke-opacity="0.3"/>
</svg>
