<svg width="275" height="285" viewBox="0 0 275 285" fill="none" xmlns="http://www.w3.org/2000/svg">
<path d="M0 0.59181C0 1.2494 12.53 27.4873 24.4005 51.6209C35.4796 74.242 55.3957 115.605 55.3957 116.065C55.3957 116.131 59.1547 123.89 63.705 133.294C73.4652 153.219 77.9496 162.557 85.4017 178.207C88.3693 184.52 93.9089 195.896 97.6019 203.524C101.295 211.087 108.022 225.159 112.572 234.694C117.056 244.295 122.002 254.488 123.453 257.381C124.97 260.34 128.465 267.705 131.301 273.887C134.137 280.002 136.709 285 136.972 285C137.236 284.934 141.721 276.057 146.865 265.272C152.008 254.422 158.867 240.152 162.164 233.445C179.508 197.869 189.005 178.207 197.644 159.795C201.799 150.917 205.426 143.355 205.755 143.026C206.349 142.171 227.518 98.3099 227.518 97.8496C227.518 97.5865 231.475 89.3666 236.355 79.437C241.169 69.5731 247.434 56.7501 250.27 50.9633C253.04 45.1765 259.371 32.2877 264.251 22.3581C269.197 12.4285 273.615 3.28795 274.077 2.10428L275 -7.15256e-06H137.5C61.8585 -7.15256e-06 0 0.263015 0 0.59181ZM267.746 4.80039C267.746 4.86615 265.108 10.3242 261.876 16.7686C258.711 23.2787 254.49 31.8274 252.578 35.8387C244.928 51.8182 240.576 60.6957 235.102 72.0062C231.936 78.5164 226.595 89.6297 223.231 96.6659C219.868 103.702 215.186 113.5 212.812 118.366C210.438 123.233 204.766 135.069 200.282 144.67C183.927 179.522 179.772 188.071 179.442 188.071C179.245 188.071 178.981 185.769 178.915 182.942C178.783 180.18 178.453 173.407 178.189 167.949L177.596 158.085L170.869 143.289C164.077 128.296 163.153 126.784 155.767 118.366C152.866 115.144 150.623 111.593 148.711 107.45L145.809 101.269H143.369C141.984 101.269 140.336 101.729 139.676 102.387C138.489 103.439 138.423 103.045 138.687 86.7363C138.885 77.53 139.215 68.9155 139.478 67.5346C139.742 66.2194 139.676 65.1015 139.412 65.1015C139.083 65.1015 138.819 63.1945 138.819 60.8272V56.5528H142.776C152.074 56.4871 158.471 49.5166 156.888 41.1652C155.899 35.9045 152.602 31.3671 149.173 30.5122C148.315 30.2492 147.59 29.4601 147.326 28.3422C145.875 21.7662 144.556 19.5962 140.665 17.2946C135.653 14.4012 128.201 15.3876 124.508 19.5304C122.926 21.2402 121.343 25.2515 121.343 27.5531C121.343 29.197 120.815 29.7889 117.782 31.4328C113.363 33.9317 111.451 37.4169 111.451 42.8092C111.517 51.3578 117.122 56.5528 126.421 56.5528C129.652 56.5528 129.916 56.6843 129.323 57.8022C128.927 58.4598 128.795 61.3533 128.993 64.5097C129.191 67.5346 129.52 78.1218 129.652 87.9857L129.982 105.872L127.476 104.557C123.981 102.716 122.2 102.913 119.628 105.478C115.737 109.357 116.661 113.697 122.926 120.339C127.872 125.6 129.916 128.493 129.916 130.203V131.715L128.465 130.4C124.706 127.047 121.739 125.6 118.441 125.6C115.54 125.6 114.946 125.863 112.374 128.493C109.802 130.992 109.472 131.715 109.472 134.28C109.472 136.384 110 137.963 111.121 139.672C112.044 140.988 112.77 142.237 112.77 142.368C112.77 142.566 111.847 142.697 110.725 142.697C106.439 142.697 102.218 147.103 102.218 151.575C102.218 152.495 102.68 154.205 103.273 155.323C104.329 157.362 104.329 157.427 102.614 158.677C98.3933 161.702 97.9976 165.976 100.899 174.919C102.218 178.931 102.878 182.284 102.878 184.98C102.878 189.123 102.746 188.86 112.308 206.484C115.144 211.81 116.397 213.388 122.992 220.359C129.454 227.066 132.62 232.524 138.555 246.925C140.006 250.542 141.984 254.948 142.908 256.724L144.556 259.946L140.863 267.377C138.885 271.519 137.038 274.873 136.841 274.873C136.577 274.873 134.532 270.928 132.224 266.127C121.607 243.901 118.177 236.733 108.483 216.676C104.065 207.602 97.536 193.989 94.3046 187.085C92.9197 184.191 89.8861 177.747 87.446 172.749C85.0719 167.751 83.0935 163.543 83.0935 163.477C83.0935 163.214 74.3225 144.933 67.2662 130.532C62.7158 121.128 56.5168 108.371 41.6127 77.3985C39.0408 72.072 36.9305 67.5346 36.9305 67.4031C36.9305 67.2058 32.512 58.131 13.783 19.8592C9.82614 11.8366 6.59472 5.06343 6.59472 4.93192C6.59472 4.73464 65.3537 4.60313 137.17 4.60313C208.987 4.60313 267.746 4.66887 267.746 4.80039ZM133.213 17.6234C133.213 17.9522 132.092 18.544 130.641 18.9386C127.608 19.8592 124.838 23.476 124.376 27.2243C123.981 30.1834 123.519 30.841 122.926 29.3286C122.332 27.8161 123.123 24.3309 124.64 21.832C126.289 19.1359 133.213 15.7164 133.213 17.6234ZM140.27 20.1223C141.061 20.9114 141.523 21.7662 141.325 21.9635C141.061 22.1608 140.534 21.7662 140.006 21.0429C139.478 20.3195 137.896 19.3989 136.511 19.0044C135.06 18.5441 133.873 17.9522 133.873 17.6892C133.873 16.8343 138.819 18.6756 140.27 20.1223ZM131.894 20.0565C131.894 20.2538 131.763 20.3853 131.565 20.3853C131.367 20.3853 131.235 20.2538 131.235 20.0565C131.235 19.8592 131.367 19.7277 131.565 19.7277C131.763 19.7277 131.894 19.8592 131.894 20.0565ZM129.916 21.3717C129.916 21.569 129.784 21.7005 129.586 21.7005C129.388 21.7005 129.257 21.569 129.257 21.3717C129.257 21.1744 129.388 21.0429 129.586 21.0429C129.784 21.0429 129.916 21.1744 129.916 21.3717ZM138.951 23.3445C141.127 25.7776 141.457 28.0134 140.27 31.6301C139.742 33.4056 139.478 34.9838 139.742 35.1153C140.006 35.3126 141.787 35.3784 143.699 35.3784C146.733 35.3126 147.392 35.5099 149.107 37.2854C151.679 39.85 152.272 43.5983 150.689 46.952C149.305 49.7796 146.799 51.2921 143.369 51.2921C141.457 51.2921 140.468 50.766 137.962 48.3329C136.313 46.6889 134.73 45.3738 134.466 45.3738C134.137 45.3738 133.411 46.0971 132.818 47.0178C130.114 51.0948 123.849 52.6073 120.42 49.9112C118.705 48.5302 116.727 44.8477 116.727 42.9407C116.727 41.0337 118.771 37.7457 120.618 36.6278C121.673 36.036 123.849 35.5099 125.432 35.5099C127.08 35.5099 128.531 35.3126 128.795 35.1153C128.993 34.8523 128.795 33.6687 128.267 32.4192C127.74 31.1041 127.278 29.197 127.278 28.1449C127.278 22.2266 135.126 19.0044 138.951 23.3445ZM143.501 24.4624C143.765 25.646 143.897 27.553 143.831 28.6709C143.699 30.9068 145.084 31.9589 148.909 32.485C150.162 32.6165 151.349 33.0111 151.547 33.2741C151.811 33.5371 151.415 33.5371 150.755 33.2741C149.766 32.9453 149.898 33.2083 151.217 34.5893C152.932 36.299 153.459 37.4827 152.536 37.4827C152.338 37.4827 151.349 36.6278 150.36 35.5757C148.118 33.0111 145.612 32.0904 143.369 32.8796C141.721 33.5371 141.721 33.4714 142.182 31.4328C142.71 29.1313 142.71 26.2379 142.116 23.8048C141.918 23.0157 142.05 22.3581 142.38 22.3581C142.71 22.3581 143.237 23.3445 143.501 24.4624ZM145.546 27.4215C145.282 27.6188 145.084 27.4215 145.084 26.9612C145.084 26.5009 145.282 26.3036 145.546 26.5009C145.743 26.764 145.743 27.1585 145.546 27.4215ZM125.168 32.1562C125.366 32.748 125.036 32.8795 124.113 32.6165C123.255 32.3535 122.662 32.5508 122.398 33.2083C122.2 33.8002 121.739 34.129 121.409 33.9317C120.42 33.2741 116.397 35.9702 115.342 37.943C114.814 38.8636 114.418 41.4282 114.418 43.5325C114.484 46.8862 114.353 47.2808 113.627 46.2944C111.385 43.2037 113.825 35.1811 117.584 33.3399C120.222 32.0247 123.453 30.9725 124.245 31.1698C124.64 31.2356 125.036 31.6959 125.168 32.1562ZM126.619 31.8932C126.619 32.0904 126.487 32.2219 126.289 32.2219C126.091 32.2219 125.959 32.0904 125.959 31.8932C125.959 31.6959 126.091 31.5644 126.289 31.5644C126.487 31.5644 126.619 31.6959 126.619 31.8932ZM127.278 33.2083C127.278 33.4056 127.146 33.5371 126.948 33.5371C126.751 33.5371 126.619 33.4056 126.619 33.2083C126.619 33.0111 126.751 32.8796 126.948 32.8796C127.146 32.8796 127.278 33.0111 127.278 33.2083ZM153.921 39.3239C154.778 41.8886 154.514 45.9656 153.393 47.6753C152.734 48.6617 152.404 49.8454 152.602 50.3715C152.8 50.8975 152.734 51.1606 152.404 50.9633C152.074 50.766 151.613 50.8976 151.349 51.2921C150.821 52.2127 146.535 53.9225 144.227 54.2513C141.721 54.5801 137.104 52.8703 135.719 51.0948L134.598 49.6481L133.543 51.0948C132.29 52.8703 126.685 54.58 123.255 54.317C121.145 54.1197 116.99 52.147 117.584 51.5551C117.65 51.4236 119.233 51.7524 121.013 52.3442C125.695 53.7252 128.795 53.0676 131.96 49.9112C134.796 47.0835 135.192 46.8862 135.192 48.3329C135.192 49.8454 138.357 52.8046 139.478 52.3442C140.006 52.147 140.468 52.2785 140.468 52.673C140.468 53.2649 142.446 53.1333 146.93 52.2127C148.645 51.8839 152.206 48.3329 153.064 46.1629C153.921 43.9928 153.789 39.85 152.866 38.9294C152.272 38.3375 152.272 38.1403 152.8 38.1403C153.261 38.1403 153.723 38.6664 153.921 39.3239ZM117.056 50.503C116.661 51.0291 114.748 49.7139 114.748 48.9248C114.748 48.2014 115.012 48.2672 115.935 49.1221C116.595 49.7796 117.122 50.3715 117.056 50.503ZM135.39 54.7116C135.258 55.0404 134.994 55.2376 134.796 55.1719C134.532 55.1719 134.071 55.5007 133.807 56.0267C133.411 56.6186 133.213 56.6843 133.213 56.0925C133.213 55.6322 132.752 55.4349 132.224 55.6322C131.037 56.0925 130.905 54.8431 132.092 54.317C133.213 53.8567 135.588 54.1197 135.39 54.7116ZM136.511 56.224C136.511 56.4213 136.379 56.5528 136.181 56.5528C135.983 56.5528 135.851 56.4213 135.851 56.224C135.851 56.0268 135.983 55.8952 136.181 55.8952C136.379 55.8952 136.511 56.0268 136.511 56.224ZM136.115 59.249C136.643 59.8408 136.577 59.9065 135.653 59.6435C134.928 59.3805 134.335 59.5778 134.137 60.1696C133.873 60.6957 133.016 61.156 132.158 61.156C130.905 61.156 130.576 60.8272 130.576 59.4462C130.576 57.8022 130.707 57.7365 133.016 58.0653C134.335 58.3283 135.719 58.8544 136.115 59.249ZM135.522 67.0743C133.675 67.8634 130.707 67.8634 130.246 67.0743C129.982 66.6797 131.169 66.4167 133.345 66.4825C135.917 66.4825 136.511 66.6797 135.522 67.0743ZM133.016 71.6774C132.818 72.4008 132.95 72.8611 133.279 72.5981C133.609 72.4008 133.873 73.9132 133.873 75.886C133.873 78.3849 134.137 79.5685 134.73 79.5685C135.192 79.5685 135.258 79.7658 134.862 80.0946C134.532 80.3576 134.203 81.1467 134.137 81.8701C134.071 82.5934 134.005 83.7771 133.873 84.5004C133.807 85.2238 133.741 86.9993 133.807 88.446C133.873 90.4188 134.071 90.8133 134.532 90.09C135.06 89.3009 135.192 89.4981 135.192 90.8791C135.192 91.8655 134.928 92.7861 134.598 92.9834C134.269 93.2464 133.939 95.3507 133.939 97.8496C133.873 100.283 133.807 103.11 133.675 104.228C133.609 105.28 133.741 107.187 133.939 108.305C134.203 109.555 134.137 110.278 133.807 110.081C133.477 109.883 133.213 110.081 133.213 110.41C133.213 110.804 133.543 111.133 133.939 111.133C134.466 111.133 134.466 111.396 134.071 111.922C133.741 112.382 133.477 115.013 133.543 117.709C133.807 126.521 133.807 126.718 134.532 125.6C134.994 124.877 135.192 124.811 135.192 125.468C135.192 125.929 134.73 126.784 134.203 127.31C133.675 127.901 133.213 128.691 133.279 129.085C133.279 129.677 133.411 129.611 133.675 129.019C133.807 128.625 134.269 128.23 134.664 128.23C135.06 128.23 134.928 128.756 134.335 129.414C133.082 130.795 132.884 132.242 133.939 131.979C134.335 131.913 134.73 132.505 134.862 133.294C134.928 134.149 134.664 134.543 134.137 134.346C133.609 134.149 133.411 134.477 133.543 135.266C133.675 135.924 133.807 136.91 133.873 137.437C133.939 137.963 134.269 137.7 134.532 136.779C135.06 135.201 135.06 135.266 135.126 137.305C135.192 140.001 134.269 139.541 132.752 136.253C131.565 133.491 131.169 128.296 132.092 127.047C132.488 126.521 132.422 126.257 131.96 126.257C131.565 126.257 131.235 125.731 131.235 125.074C131.235 124.153 131.367 124.087 131.894 124.942C132.422 125.731 132.554 125.6 132.554 124.416C132.554 123.561 132.29 123.035 131.96 123.233C131.631 123.496 131.433 123.101 131.565 122.509C131.697 121.852 131.829 121.326 131.96 121.326C132.026 121.326 132.158 119.616 132.158 117.577C132.224 115.539 132.026 114.026 131.697 114.224C130.971 114.684 131.367 100.414 132.158 99.8223C132.554 99.5593 132.488 98.9675 131.894 98.3099C131.169 97.455 131.169 96.9289 131.763 95.9425C132.224 95.2849 132.29 94.6931 131.96 94.6931C131.631 94.6931 131.433 93.9698 131.499 93.0491C131.499 92.1285 131.894 91.4052 132.224 91.4052C132.686 91.4052 132.686 91.2079 132.224 90.8791C131.367 90.2873 131.301 85.9471 132.158 85.3553C132.62 85.0265 132.62 84.8292 132.092 84.8292C131.235 84.8292 131.235 83.1195 132.092 81.6728C132.422 81.2782 132.356 80.8837 132.026 80.8837C131.631 80.8837 131.433 79.0424 131.565 76.7409C131.829 70.5595 131.829 70.3622 132.62 70.3622C133.016 70.3622 133.213 70.9541 133.016 71.6774ZM135.192 77.9245C135.192 78.1218 135.06 78.2533 134.862 78.2533C134.664 78.2533 134.532 78.1218 134.532 77.9245C134.532 77.7273 134.664 77.5957 134.862 77.5957C135.06 77.5957 135.192 77.7273 135.192 77.9245ZM137.17 79.8973C137.17 80.0946 137.038 80.2261 136.841 80.2261C136.643 80.2261 136.511 80.0946 136.511 79.8973C136.511 79.7 136.643 79.5685 136.841 79.5685C137.038 79.5685 137.17 79.7 137.17 79.8973ZM135.192 84.5004C135.192 84.6977 135.06 84.8292 134.862 84.8292C134.664 84.8292 134.532 84.6977 134.532 84.5004C134.532 84.3032 134.664 84.1717 134.862 84.1717C135.06 84.1717 135.192 84.3032 135.192 84.5004ZM135.192 86.4732C135.192 86.9993 135.06 87.4596 134.928 87.4596C134.796 87.4596 134.532 86.9993 134.269 86.4732C134.071 85.9471 134.203 85.4868 134.532 85.4868C134.928 85.4868 135.192 85.9471 135.192 86.4732ZM137.17 87.1308C137.17 87.3281 137.038 87.4596 136.841 87.4596C136.643 87.4596 136.511 87.3281 136.511 87.1308C136.511 86.9335 136.643 86.802 136.841 86.802C137.038 86.802 137.17 86.9335 137.17 87.1308ZM136.972 89.8927C136.709 90.09 136.511 89.8927 136.511 89.4324C136.511 88.9721 136.709 88.7748 136.972 88.9721C137.17 89.2351 137.17 89.6297 136.972 89.8927ZM137.17 91.734C137.17 91.9312 137.038 92.0627 136.841 92.0627C136.643 92.0627 136.511 91.9312 136.511 91.734C136.511 91.5367 136.643 91.4052 136.841 91.4052C137.038 91.4052 137.17 91.5367 137.17 91.734ZM137.17 95.1534C137.17 96.7317 136.972 97.3235 136.577 96.7974C136.115 96.0083 136.313 92.7203 136.906 92.7203C137.038 92.7203 137.17 93.8383 137.17 95.1534ZM134.994 98.1126C134.796 98.6387 134.598 98.4414 134.598 97.718C134.532 96.9947 134.73 96.6001 134.928 96.8632C135.126 97.0604 135.192 97.6523 134.994 98.1126ZM131.894 98.9675C131.894 99.1647 131.763 99.2963 131.565 99.2963C131.367 99.2963 131.235 99.1647 131.235 98.9675C131.235 98.7702 131.367 98.6387 131.565 98.6387C131.763 98.6387 131.894 98.7702 131.894 98.9675ZM135.192 99.6251C135.192 99.8223 135.06 99.9538 134.862 99.9538C134.664 99.9538 134.532 99.8223 134.532 99.6251C134.532 99.4278 134.664 99.2963 134.862 99.2963C135.06 99.2963 135.192 99.4278 135.192 99.6251ZM142.776 103.045C141.721 105.609 141.787 108.831 142.908 111.527C143.831 113.829 144.49 114.421 146.205 114.75C147.392 114.947 148.381 115.407 148.381 115.736C148.381 116.131 148.843 116.394 149.371 116.394C150.36 116.394 150.623 116.985 150.426 119.353C150.294 120.471 150.426 120.471 150.953 119.682C151.613 118.827 151.679 118.827 151.679 119.682C151.679 120.536 151.745 120.536 152.404 119.682C152.932 118.892 152.998 118.958 152.866 120.01C152.734 120.799 152.998 121.26 153.525 121.128C153.921 121.063 154.317 121.326 154.317 121.654C154.317 121.983 154.778 122.312 155.306 122.312C155.833 122.312 156.295 122.772 156.295 123.298C156.295 123.824 156.757 124.285 157.35 124.285C157.878 124.285 158.141 124.548 157.944 124.942C157.746 125.271 157.878 125.6 158.207 125.6C158.603 125.6 158.933 125.929 158.933 126.323C158.933 126.652 158.603 126.784 158.141 126.521C157.68 126.257 157.614 126.323 157.878 126.849C158.141 127.244 158.669 127.441 158.999 127.178C159.79 126.718 161.703 128.165 161.175 128.954C160.977 129.282 161.175 130.137 161.571 130.861C162.164 131.913 162.098 132.044 161.241 131.781C160.713 131.518 160.252 131.058 160.252 130.663C160.252 130.269 160.12 130.137 159.922 130.335C159.46 130.729 161.109 134.149 161.769 134.149C162.098 134.149 162.098 134.477 161.835 134.938C161.505 135.398 161.703 135.53 162.362 135.266C163.153 135.003 163.285 135.201 163.088 136.187C162.89 136.845 162.494 137.305 162.23 137.108C161.9 136.91 161.439 137.108 161.175 137.502C160.911 138.028 160.977 138.094 161.439 137.831C161.9 137.568 162.23 137.765 162.23 138.489C162.23 139.409 162.428 139.409 163.219 138.752C163.813 138.291 164.406 138.094 164.67 138.357C164.868 138.554 164.736 138.752 164.341 138.752C163.879 138.752 163.549 139.146 163.549 139.672C163.549 140.264 164.011 140.527 164.802 140.396C165.725 140.198 165.989 140.461 165.725 141.119C165.528 141.645 165.594 142.04 165.923 141.974C166.253 141.908 166.978 141.908 167.506 141.974C168.297 142.04 168.297 142.237 167.374 142.763C166.715 143.092 166.187 143.749 166.187 144.21C166.187 144.67 166.451 144.604 166.847 144.012C167.374 143.158 167.506 143.223 167.506 144.21C167.506 144.933 167.836 145.196 168.231 144.933C168.693 144.67 168.825 144.933 168.561 145.788C168.297 146.577 168.495 147.432 169.155 147.958C169.946 148.616 170.144 148.616 170.144 147.695C170.144 147.037 169.946 146.709 169.682 146.84C169.353 147.037 169.155 146.314 169.155 145.328C169.155 143.092 169.484 143.289 170.474 146.314C171.133 148.024 171.133 148.616 170.474 148.879C170.012 149.01 169.484 149.931 169.353 150.851C169.155 151.772 169.287 152.364 169.616 152.167C169.946 151.969 170.012 152.627 169.814 153.679C169.484 155.455 169.484 155.455 170.144 153.942C170.54 153.021 170.737 151.969 170.54 151.575C170.408 151.18 170.803 150.851 171.463 150.851C172.518 150.851 172.584 150.983 171.727 152.167C170.671 153.679 170.474 154.797 171.397 154.271C171.727 154.074 172.188 154.337 172.386 154.928C172.65 155.718 172.518 155.915 171.793 155.652C171.265 155.389 170.671 155.586 170.408 155.981C170.144 156.375 170.21 156.507 170.606 156.309C171.001 156.046 171.859 156.375 172.518 156.901C173.177 157.493 173.441 157.756 173.046 157.559C172.584 157.362 172.056 157.625 171.859 158.216C171.661 158.742 171.727 159.006 172.122 158.808C173.177 158.151 172.914 159.269 171.661 160.715C170.803 161.702 171.001 161.636 172.32 160.518L174.101 158.94V160.65C174.101 161.767 173.639 162.491 172.848 162.754C171.199 163.28 170.342 165.647 171.529 166.436C172.782 167.225 173.177 167.16 174.365 165.976C174.958 165.45 175.42 165.253 175.42 165.647C175.42 166.765 173.112 167.686 171.199 167.291C170.21 167.16 168.891 167.291 168.297 167.686C167.308 168.343 167.374 168.343 168.561 168.015C170.144 167.62 172.122 168.212 172.122 169.132C172.122 169.461 171.859 169.527 171.463 169.33C171.133 169.132 170.803 169.264 170.803 169.593C170.803 169.987 171.463 170.382 172.32 170.382L173.771 170.513L172.32 170.776C171.463 170.908 170.803 171.434 170.803 171.829C170.869 173.209 172.584 174.985 174.035 175.117C174.826 175.182 175.42 175.445 175.42 175.708C175.42 175.971 174.562 176.037 173.441 175.906C171.133 175.643 170.342 176.497 171.529 177.944C172.188 178.799 172.188 179.062 171.529 179.522C170.869 179.917 171.001 180.18 172.122 180.509C172.914 180.772 173.309 181.166 172.914 181.429C171.793 182.153 171.661 184.389 172.782 185.309C173.639 186.033 173.639 186.033 172.65 185.704C171.793 185.441 171.265 185.769 170.803 187.085C169.946 189.255 169.946 189.584 170.803 189.057C171.199 188.86 171.463 188.992 171.463 189.32C171.463 189.715 171.199 190.044 170.803 190.044C170.474 190.044 170.342 190.438 170.54 190.964C170.737 191.425 170.408 192.017 169.814 192.28C169.089 192.543 168.891 192.411 169.221 191.885C169.88 190.899 169.946 187.348 169.353 187.019C169.089 186.822 168.561 187.348 168.165 188.137C167.638 189.123 167.572 189.386 168.1 189.123C169.155 188.466 169.023 190.504 167.836 192.28C166.912 193.661 166.912 193.792 168.297 193.726C169.287 193.661 169.748 193.989 169.616 194.581C169.484 195.107 169.814 195.765 170.276 196.094C170.935 196.554 170.935 196.686 170.144 196.422C169.616 196.291 169.221 195.633 169.221 195.042C169.353 194.187 169.023 194.055 167.902 194.384C167.176 194.581 166.253 195.107 165.857 195.502C165.396 195.962 165.594 196.028 166.451 195.699C167.44 195.37 167.572 195.436 166.978 196.159C166.517 196.686 166.451 197.277 166.715 197.606C166.978 197.869 166.517 197.738 165.659 197.343C164.604 196.751 163.879 196.751 163.022 197.277C162.032 197.935 162.098 197.935 163.351 197.606C164.143 197.409 164.934 197.54 165.198 197.869C165.396 198.329 165.198 198.395 164.538 198.198C163.813 197.869 163.615 198.066 163.945 198.856C164.143 199.447 164.604 199.776 164.868 199.579C165.659 199.053 167.572 199.973 167.11 200.631C166.912 200.96 166.451 201.223 166.121 201.223C165.725 201.223 165.659 200.894 165.857 200.565C166.055 200.171 165.989 199.908 165.594 199.908C164.406 199.908 164.209 201.091 165.198 202.144C166.121 202.998 165.989 203.13 164.406 202.998C163.088 202.933 162.626 203.13 162.692 203.853C162.824 204.379 161.769 205.563 160.384 206.418C158.933 207.404 158.273 208.128 158.801 208.325C159.329 208.456 158.735 209.245 157.284 210.232C155.965 211.153 155.042 212.007 155.24 212.205C155.372 212.402 156.954 211.547 158.669 210.363C160.384 209.245 161.571 208.522 161.373 208.917C161.109 209.311 158.867 210.955 156.361 212.665C153.855 214.375 151.283 216.347 150.623 217.137C149.041 218.912 150.426 218.189 153.987 215.361C155.438 214.177 157.812 212.665 159.263 211.876C160.713 211.153 162.56 209.969 163.285 209.245L164.736 207.93V209.509C164.736 210.363 164.472 211.284 164.143 211.481C163.813 211.679 163.747 211.35 163.945 210.824C164.472 209.509 163.747 209.443 162.494 210.692C161.966 211.284 161.835 211.744 162.23 211.942C162.626 212.139 162.56 212.205 162.098 212.139C161.241 211.942 158.076 213.323 156.691 214.44C153.393 217.137 145.677 222.266 145.216 222.003C144.952 221.871 143.567 222.595 142.182 223.647C140.731 224.699 140.006 225.554 140.534 225.62C141.193 225.62 141.193 225.751 140.6 226.014C140.204 226.146 140.006 226.672 140.27 227.066C140.468 227.527 140.402 227.658 140.138 227.329C139.808 227.066 138.951 227.395 138.225 227.987C137.236 228.842 137.302 228.579 138.489 227.263C139.742 225.817 139.874 225.422 139.017 225.751C137.17 226.409 137.566 225.948 141.787 222.726C145.809 219.57 147.194 218.846 145.743 220.622C145.282 221.148 145.216 221.608 145.612 221.608C146.667 221.608 147.92 219.833 147.062 219.504C146.667 219.372 147.656 218.32 149.371 217.071C151.019 215.887 152.272 214.704 152.074 214.572C151.876 214.375 151.283 214.572 150.689 215.032C150.096 215.493 149.436 215.624 149.173 215.361C148.909 215.098 149.107 214.704 149.568 214.572C150.03 214.375 150.821 213.849 151.283 213.323C152.536 212.073 153.064 212.139 152.536 213.454C152.206 214.375 152.338 214.44 153.723 213.651C154.778 213.125 154.976 212.731 154.448 212.533C153.855 212.336 154.317 211.613 155.767 210.363L157.944 208.456L155.965 209.245C154.91 209.706 153.855 210.232 153.657 210.429C152.272 211.81 147.062 215.69 147.062 215.23C147.128 214.44 149.239 212.073 150.689 211.218C151.613 210.692 151.745 210.495 151.019 210.429C149.7 210.429 145.677 214.046 146.271 214.704C146.535 215.032 146.403 215.032 146.007 214.835C145.15 214.375 143.567 215.887 144.095 216.545C144.293 216.808 144.293 216.874 144.095 216.808C143.699 216.479 137.83 221.805 137.83 222.463C137.83 223.252 144.952 217.728 145.348 216.611C145.875 215.295 146.93 215.427 146.799 216.808C146.799 217.465 145.677 218.781 144.293 219.767C142.974 220.753 141.721 221.805 141.457 222.2C141.259 222.595 140.731 222.923 140.402 222.923C140.006 222.923 139.94 222.595 140.204 222.134C140.468 221.674 140.402 221.608 139.874 221.871C139.478 222.134 139.281 222.595 139.478 222.923C139.676 223.186 139.347 223.581 138.819 223.844C138.291 224.041 137.83 223.91 137.83 223.515C137.83 223.121 137.302 222.989 136.709 223.186C136.049 223.449 136.972 222.134 138.819 220.293C141.523 217.531 141.918 216.874 141.127 216.347C140.6 216.019 139.676 215.69 139.149 215.69C138.291 215.756 138.291 215.821 139.215 216.545C140.072 217.202 139.94 217.597 138.028 219.372C136.841 220.49 135.719 221.279 135.522 221.082C135.324 220.885 135.192 221.214 135.192 221.805C135.192 222.463 134.862 222.726 134.203 222.529C133.675 222.266 133.213 222.463 133.213 222.923C133.213 223.318 132.884 223.449 132.488 223.186C131.96 222.858 131.96 222.595 132.554 222.266C133.147 221.937 133.147 221.674 132.62 221.345C132.224 221.082 131.631 221.016 131.301 221.214C130.444 221.74 128.531 220.951 128.993 220.227C129.191 219.898 128.993 219.635 128.531 219.635C128.135 219.635 128.465 219.044 129.323 218.32C130.18 217.663 130.576 217.071 130.114 217.005C129.652 217.005 129.454 216.545 129.718 215.887C130.048 214.901 129.916 214.835 129.191 215.493C128.135 216.545 127.014 216.611 127.674 215.624C127.938 215.164 127.212 215.361 126.091 216.084C124.64 216.874 124.245 217.4 124.838 217.794C125.3 218.123 125.366 218.32 124.904 218.32C123.519 218.32 123.321 217.4 124.442 216.15C125.102 215.427 125.234 215.032 124.838 215.295C124.376 215.558 123.981 215.493 123.981 215.23C123.981 214.901 124.376 214.243 124.838 213.783C125.498 213.06 125.366 213.06 124.179 213.651C122.398 214.572 121.343 214.572 122.662 213.651C123.387 213.125 123.453 212.862 122.794 212.599C122.332 212.468 121.541 211.876 121.079 211.35C120.486 210.824 119.628 210.626 118.903 210.889C117.782 211.284 117.782 211.218 119.035 209.837L120.288 208.391L118.375 209.114L116.397 209.772L118.046 208.456C119.035 207.667 119.233 207.273 118.573 207.536C117.386 207.93 115.144 206.286 115.869 205.563C116.133 205.366 115.54 205.168 114.682 205.103H113.1L114.616 204.511C115.408 204.182 116.067 203.722 116.067 203.59C116.067 203.393 115.606 203.393 115.078 203.59C114.55 203.853 114.023 203.656 114.023 203.261C113.759 201.157 113.627 200.894 112.968 201.026C112.572 201.091 112.044 200.763 111.847 200.171C111.583 199.513 111.715 199.316 112.308 199.645C112.902 199.973 112.902 199.908 112.308 199.184C111.847 198.724 111.451 197.738 111.385 196.949C111.319 195.699 111.319 195.699 110.923 197.08C110.594 198.198 110.198 198.395 109.472 197.935C108.813 197.54 108.747 197.277 109.341 197.277C109.736 197.277 110.132 196.949 110.132 196.554C110.132 196.225 109.736 196.094 109.341 196.291C108.879 196.554 109.077 196.225 109.802 195.568C111.121 194.515 111.121 194.515 109.538 194.844C108.351 195.107 108.153 195.042 108.747 194.45C109.868 193.332 109.604 192.74 108.022 193.135C106.703 193.398 106.769 193.266 108.351 192.345C109.341 191.819 110.132 191.162 110.132 191.03C110.132 190.504 108.483 190.964 108.022 191.688C107.758 192.017 107.362 192.082 107.098 191.819C106.835 191.622 107.032 190.899 107.56 190.307C108.285 189.386 108.285 189.123 107.626 188.86C106.966 188.663 106.966 188.4 107.56 187.611C109.077 185.835 115.408 183.797 114.418 185.441C114.221 185.769 113.561 186.098 113.034 186.098C112.44 186.098 111.583 186.559 111.055 187.085C109.538 188.531 111.319 188.334 113.957 186.756C116.463 185.243 116.99 185.112 116.265 186.23C115.474 187.545 115.474 188.531 116.331 188.531C118.573 188.466 119.43 188.794 118.969 189.518C118.639 190.044 118.837 190.11 119.694 189.781C120.749 189.386 120.749 189.518 119.958 190.504C119.167 191.491 119.167 191.556 120.024 191.03C120.552 190.767 121.541 190.044 122.2 189.518C123.453 188.4 123.783 189.32 122.53 190.57C121.936 191.162 121.936 191.359 122.662 191.359C123.255 191.359 122.992 191.951 121.936 193.069C120.354 194.778 120.354 194.778 121.87 194.055C122.662 193.661 123.783 192.543 124.376 191.622C124.97 190.767 125.629 190.175 125.761 190.307C125.959 190.504 125.498 191.491 124.706 192.543C122.53 195.633 123.058 195.831 125.629 192.937C126.882 191.556 127.938 190.701 127.938 191.096C127.938 191.425 127.41 192.345 126.751 193.069C125.827 194.055 125.695 194.581 126.223 195.042C126.751 195.568 127.278 195.436 127.938 194.778C128.729 193.924 128.927 193.924 129.586 194.91C130.048 195.502 130.839 195.831 131.433 195.568C132.092 195.37 132.554 195.633 132.752 196.422C132.95 197.08 133.082 196.488 133.147 195.173C133.147 193.858 133.543 192.543 133.873 192.345C134.269 192.082 134.4 191.688 134.203 191.359C134.005 191.096 134.137 190.11 134.466 189.255C135.06 187.874 135.126 187.94 135.126 190.044C135.192 192.806 136.313 197.08 137.104 197.54C137.434 197.738 137.302 196.817 136.775 195.436C136.313 194.121 135.917 192.082 135.917 191.03C135.917 189.584 136.445 190.438 137.764 194.187C138.687 197.014 139.742 199.119 140.006 198.856C140.27 198.593 140.204 198.066 139.874 197.672C139.149 196.686 137.566 190.767 137.962 190.307C138.291 190.044 140.863 195.962 140.665 196.62C140.6 196.817 140.995 197.343 141.523 197.803C142.644 198.856 142.644 198.658 141.523 195.896C139.874 191.819 139.676 190.241 141.193 193.003C143.303 196.817 143.501 194.778 141.457 190.044C140.534 187.808 139.874 185.835 140.072 185.638C140.27 185.441 140.6 186.033 140.863 187.019C141.061 187.94 141.523 188.729 141.918 188.729C142.248 188.729 142.38 188.992 142.116 189.32C141.918 189.649 142.116 190.175 142.512 190.438C143.106 190.767 143.171 190.175 142.842 188.334L142.446 185.769L143.765 188.071C145.282 190.833 145.48 190.241 144.095 187.019C143.567 185.769 143.303 184.389 143.501 183.862C143.699 183.402 143.501 182.284 143.171 181.298C142.644 179.917 142.71 179.654 143.435 179.983C143.963 180.18 144.227 180.575 144.029 180.903C143.831 181.298 144.029 181.955 144.424 182.482C144.886 183.008 145.084 184.06 144.886 184.717C144.688 185.506 144.952 186.164 145.546 186.361C146.073 186.559 146.337 187.019 146.073 187.348C145.875 187.677 146.007 188.137 146.337 188.334C146.996 188.794 146.93 187.479 146.205 186.361C146.007 185.967 145.677 184.717 145.612 183.534C145.546 182.416 145.216 181.495 144.886 181.495C144.622 181.495 144.556 181.166 144.82 180.772C145.018 180.377 144.886 179.785 144.359 179.457C143.237 178.799 143.04 174.262 144.095 172.749C144.754 171.829 145.018 171.763 145.282 172.42C145.48 172.881 145.677 172.683 145.677 171.96C145.743 171.171 146.073 170.25 146.469 169.856C146.996 169.33 146.996 169.001 146.469 168.672C146.073 168.475 145.743 168.475 145.809 168.804C146.073 170.382 145.612 170.448 144.82 168.935C143.897 167.16 144.095 163.477 145.084 164.069C145.414 164.266 145.48 164.99 145.282 165.647C145.018 166.634 145.282 166.897 146.205 166.765C146.93 166.634 148.249 164.924 149.634 162.359C150.953 159.795 151.745 158.874 151.547 159.926C151.349 160.913 151.415 161.57 151.745 161.439C152.008 161.241 152.404 161.504 152.536 161.899C152.734 162.359 152.734 161.702 152.536 160.452C152.338 158.808 152.404 158.414 152.866 159.071C153.393 159.795 153.459 159.203 153.261 157.099C152.998 154.928 153.064 154.468 153.591 155.191C153.987 155.718 154.317 156.967 154.317 157.888C154.317 158.874 154.712 159.597 155.24 159.597C155.965 159.597 156.031 159.203 155.57 158.019C155.042 156.638 155.767 155.783 156.493 156.967C156.625 157.296 156.625 157.033 156.427 156.507C156.295 155.981 156.097 155.191 156.097 154.731C156.097 154.271 155.833 154.008 155.504 154.074C154.58 154.271 153.129 150.391 153.657 149.01C153.921 148.155 153.657 147.3 152.866 146.511C151.942 145.591 151.679 144.341 151.745 141.185C151.745 137.634 151.876 137.305 152.47 138.752C153.064 140.133 153.261 140.198 153.459 139.212C153.657 138.62 154.053 138.094 154.382 138.094C154.778 138.094 154.844 137.765 154.646 137.371C154.382 136.976 153.987 136.845 153.789 137.042C153.261 137.634 151.613 136.056 152.074 135.398C152.272 135.069 151.613 134.806 150.558 134.74L148.711 134.675L150.36 134.149C151.876 133.688 151.876 133.623 149.766 133.557C148.052 133.491 147.656 133.294 147.986 132.439C148.381 131.452 148.249 131.452 147.26 132.242C146.271 133.096 146.205 133.031 146.535 131.715C146.799 130.795 146.535 129.94 145.809 129.414C144.886 128.691 144.886 128.691 145.546 129.611C146.007 130.203 146.205 130.861 145.941 131.058C145.348 131.65 143.567 129.019 144.029 128.296C144.293 127.967 143.765 127.836 142.974 128.099C142.116 128.296 141.721 128.165 141.984 127.704C142.248 127.375 141.984 126.06 141.325 124.811C140.731 123.627 139.808 121.852 139.347 120.865C138.819 119.879 138.423 118.892 138.489 118.695C138.621 116.92 138.423 115.736 137.962 115.999C137.368 116.328 137.434 110.41 138.094 107.056C138.357 105.543 139.215 104.162 140.336 103.308C142.512 101.664 143.369 101.598 142.776 103.045ZM145.941 104.162C146.205 104.886 146.007 105.017 145.282 104.754C144.49 104.425 144.424 104.623 144.886 105.609C145.216 106.267 145.48 107.845 145.48 108.963C145.414 110.147 145.612 111.133 145.809 111.133C146.073 111.133 146.403 111.593 146.667 112.119C146.93 112.974 146.799 113.04 145.743 112.448C143.963 111.527 142.974 109.423 142.974 106.661C142.974 103.834 145.15 101.992 145.941 104.162ZM127.344 106.267C128.004 106.859 128.267 107.845 128.07 108.963C127.806 110.278 127.938 110.541 128.663 110.147C129.191 109.818 129.388 109.883 129.059 110.147C128.07 111.264 125.959 111.133 125.959 109.949C125.959 109.029 126.091 108.963 126.619 109.818C127.146 110.673 127.278 110.673 127.278 109.686C127.278 108.042 125.893 107.45 124.97 108.7C124.047 110.015 123.255 109.489 123.717 107.976C124.047 107.056 123.981 107.056 123.321 108.042C122.926 108.634 122.794 109.489 122.992 109.818C123.189 110.212 122.926 110.475 122.398 110.475C121.87 110.475 121.013 111.067 120.486 111.79C119.365 113.369 118.705 112.843 118.705 110.41C118.705 107.648 122.002 104.491 124.442 104.952C125.432 105.149 126.751 105.741 127.344 106.267ZM147.062 106.859C147.062 107.056 146.93 107.187 146.733 107.187C146.535 107.187 146.403 107.056 146.403 106.859C146.403 106.661 146.535 106.53 146.733 106.53C146.93 106.53 147.062 106.661 147.062 106.859ZM147.062 109.489C147.062 109.686 146.93 109.818 146.733 109.818C146.535 109.818 146.403 109.686 146.403 109.489C146.403 109.292 146.535 109.16 146.733 109.16C146.93 109.16 147.062 109.292 147.062 109.489ZM122.2 112.448C122.002 113.171 121.541 113.961 121.145 114.224C120.683 114.487 120.618 114.224 120.881 113.5C121.145 112.843 121.343 112.054 121.343 111.725C121.343 111.396 121.607 111.133 121.936 111.133C122.266 111.133 122.398 111.725 122.2 112.448ZM123.981 112.119C123.981 112.317 123.849 112.448 123.651 112.448C123.453 112.448 123.321 112.317 123.321 112.119C123.321 111.922 123.453 111.79 123.651 111.79C123.849 111.79 123.981 111.922 123.981 112.119ZM125.3 112.119C125.3 112.317 125.168 112.448 124.97 112.448C124.772 112.448 124.64 112.317 124.64 112.119C124.64 111.922 124.772 111.79 124.97 111.79C125.168 111.79 125.3 111.922 125.3 112.119ZM127.938 112.119C127.938 112.317 127.806 112.448 127.608 112.448C127.41 112.448 127.278 112.317 127.278 112.119C127.278 111.922 127.41 111.79 127.608 111.79C127.806 111.79 127.938 111.922 127.938 112.119ZM127.278 113.961C127.278 114.421 127.014 114.355 126.619 113.763C126.091 112.908 125.959 112.974 125.959 113.961C125.959 114.618 125.695 115.013 125.366 114.75C125.036 114.552 124.574 114.684 124.311 115.078C124.047 115.473 123.585 115.605 123.255 115.407C122.926 115.144 122.662 115.341 122.662 115.802C122.662 116.262 122.464 116.459 122.266 116.196C122.068 115.999 122.068 115.21 122.332 114.421C122.662 113.369 122.992 113.237 123.651 113.763C124.245 114.224 124.706 114.158 125.3 113.434C126.157 112.382 127.278 112.711 127.278 113.961ZM148.381 113.434C148.381 113.632 148.249 113.763 148.052 113.763C147.854 113.763 147.722 113.632 147.722 113.434C147.722 113.237 147.854 113.106 148.052 113.106C148.249 113.106 148.381 113.237 148.381 113.434ZM129.257 114.092C129.257 114.289 129.125 114.421 128.927 114.421C128.729 114.421 128.597 114.289 128.597 114.092C128.597 113.895 128.729 113.763 128.927 113.763C129.125 113.763 129.257 113.895 129.257 114.092ZM121.343 115.407C121.343 115.605 121.211 115.736 121.013 115.736C120.815 115.736 120.683 115.605 120.683 115.407C120.683 115.21 120.815 115.078 121.013 115.078C121.211 115.078 121.343 115.21 121.343 115.407ZM150.162 115.539C149.898 115.736 149.502 115.736 149.239 115.539C149.041 115.276 149.239 115.078 149.7 115.078C150.162 115.078 150.36 115.276 150.162 115.539ZM152.998 116.722C152.998 116.92 152.866 117.051 152.668 117.051C152.47 117.051 152.338 116.92 152.338 116.722C152.338 116.525 152.47 116.394 152.668 116.394C152.866 116.394 152.998 116.525 152.998 116.722ZM139.61 122.772C139.347 122.97 139.149 122.772 139.149 122.312C139.149 121.852 139.347 121.654 139.61 121.852C139.808 122.115 139.808 122.509 139.61 122.772ZM135.192 123.298C135.192 123.496 135.06 123.627 134.862 123.627C134.664 123.627 134.532 123.496 134.532 123.298C134.532 123.101 134.664 122.97 134.862 122.97C135.06 122.97 135.192 123.101 135.192 123.298ZM140.468 128.296C141.787 130.861 141.787 130.926 140.6 130.269C139.281 129.545 138.489 128.165 138.489 126.521C138.489 125.008 139.083 125.468 140.468 128.296ZM141.787 126.586C141.787 126.784 141.655 126.915 141.457 126.915C141.259 126.915 141.127 126.784 141.127 126.586C141.127 126.389 141.259 126.257 141.457 126.257C141.655 126.257 141.787 126.389 141.787 126.586ZM122.662 128.23C123.387 128.954 123.981 129.414 123.981 129.151C123.981 128.954 124.706 129.611 125.629 130.598L127.278 132.373L125.827 133.951C125.036 134.74 124.64 135.661 124.838 135.924C125.102 136.121 125.3 135.99 125.3 135.53C125.3 135.069 125.629 134.938 125.959 135.135C126.355 135.332 126.619 135.266 126.619 134.938C126.619 134.543 127.014 134.149 127.476 133.951C128.004 133.754 128.267 134.346 128.333 135.727C128.399 136.845 128.333 137.239 128.135 136.647C127.938 135.99 127.476 135.661 126.882 135.924C126.025 136.253 126.025 136.384 126.751 136.845C127.344 137.239 126.948 137.634 125.3 138.226C124.047 138.686 122.728 138.949 122.332 138.817C122.002 138.752 121.87 138.817 122.134 139.081C122.332 139.344 122.068 140.067 121.475 140.79C120.815 141.579 120.486 142.895 120.618 144.21L120.815 146.314L119.101 144.473C118.177 143.486 117.386 142.5 117.386 142.303C117.386 142.105 118.177 141.251 119.101 140.396C120.683 138.949 120.749 138.752 119.562 138.752C118.903 138.752 117.98 139.081 117.518 139.541C116.595 140.461 114.616 140.856 115.144 140.001C115.342 139.672 115.803 139.607 116.199 139.804C116.661 140.067 116.727 139.935 116.463 139.541C116.199 139.081 116.331 138.752 116.793 138.752C117.254 138.752 117.386 138.554 117.188 138.357C116.924 138.094 116.331 138.226 115.803 138.686C115.276 139.146 114.155 139.278 113.165 139.015C111.781 138.686 111.451 138.226 111.451 136.45C111.451 135.266 111.319 133.82 111.121 133.359C110.791 132.505 111.912 130.729 114.484 128.033C116.133 126.389 120.947 126.521 122.662 128.23ZM163.549 131.189C163.549 131.387 163.417 131.518 163.219 131.518C163.022 131.518 162.89 131.387 162.89 131.189C162.89 130.992 163.022 130.861 163.219 130.861C163.417 130.861 163.549 130.992 163.549 131.189ZM139.149 133.162C139.149 133.359 139.017 133.491 138.819 133.491C138.621 133.491 138.489 133.359 138.489 133.162C138.489 132.965 138.621 132.833 138.819 132.833C139.017 132.833 139.149 132.965 139.149 133.162ZM162.23 133.162C162.23 133.359 162.098 133.491 161.9 133.491C161.703 133.491 161.571 133.359 161.571 133.162C161.571 132.965 161.703 132.833 161.9 132.833C162.098 132.833 162.23 132.965 162.23 133.162ZM163.549 133.162C163.549 133.359 163.417 133.491 163.219 133.491C163.022 133.491 162.89 133.359 162.89 133.162C162.89 132.965 163.022 132.833 163.219 132.833C163.417 132.833 163.549 132.965 163.549 133.162ZM164.868 133.162C164.868 133.359 164.736 133.491 164.538 133.491C164.341 133.491 164.209 133.359 164.209 133.162C164.209 132.965 164.341 132.833 164.538 132.833C164.736 132.833 164.868 132.965 164.868 133.162ZM141.127 135.135C142.05 136.384 142.05 136.384 140.995 135.53C140.336 135.069 139.808 134.346 139.808 133.951C139.808 133.557 139.874 133.425 140.006 133.557C140.072 133.688 140.6 134.412 141.127 135.135ZM141.787 133.82C141.787 134.017 141.655 134.149 141.457 134.149C141.259 134.149 141.127 134.017 141.127 133.82C141.127 133.623 141.259 133.491 141.457 133.491C141.655 133.491 141.787 133.623 141.787 133.82ZM144.424 136.45C144.424 136.647 144.293 136.779 144.095 136.779C143.897 136.779 143.765 136.647 143.765 136.45C143.765 136.253 143.897 136.121 144.095 136.121C144.293 136.121 144.424 136.253 144.424 136.45ZM164.011 137.239C163.747 137.437 163.549 137.239 163.549 136.779C163.549 136.319 163.747 136.121 164.011 136.319C164.209 136.582 164.209 136.976 164.011 137.239ZM131.235 138.489C131.235 138.62 130.773 138.752 130.246 138.752C129.718 138.752 129.257 138.489 129.257 138.094C129.257 137.765 129.718 137.634 130.246 137.831C130.773 138.094 131.235 138.357 131.235 138.489ZM150.821 139.212C150.558 139.409 150.36 139.212 150.36 138.752C150.36 138.291 150.558 138.094 150.821 138.291C151.019 138.554 151.019 138.949 150.821 139.212ZM128.465 139.87C129.323 141.579 128.993 146.38 128.07 146.117C127.608 146.051 127.278 146.446 127.278 147.037C127.278 147.563 127.014 147.892 126.685 147.695C126.355 147.432 125.959 147.629 125.827 148.09C125.432 149.273 122.002 146.972 121.936 145.459C121.739 142.829 122.2 141.645 123.849 140.264C125.959 138.489 127.674 138.357 128.465 139.87ZM145.084 139.081C145.084 139.278 144.952 139.409 144.754 139.409C144.556 139.409 144.424 139.278 144.424 139.081C144.424 138.883 144.556 138.752 144.754 138.752C144.952 138.752 145.084 138.883 145.084 139.081ZM166.187 139.081C166.187 139.278 166.055 139.409 165.857 139.409C165.659 139.409 165.528 139.278 165.528 139.081C165.528 138.883 165.659 138.752 165.857 138.752C166.055 138.752 166.187 138.883 166.187 139.081ZM118.507 140.527C118.243 140.724 118.046 140.527 118.046 140.067C118.046 139.607 118.243 139.409 118.507 139.607C118.705 139.87 118.705 140.264 118.507 140.527ZM146.073 140.724C146.271 141.053 146.337 141.382 146.139 141.382C145.941 141.382 145.612 141.053 145.414 140.724C145.216 140.33 145.15 140.067 145.348 140.067C145.546 140.067 145.875 140.33 146.073 140.724ZM150.821 142.171C150.623 142.632 150.492 142.303 150.492 141.382C150.492 140.461 150.623 140.133 150.821 140.527C150.953 140.988 150.953 141.777 150.821 142.171ZM114.88 145.393C115.474 146.117 116.265 146.643 116.529 146.577C116.793 146.511 117.386 147.169 117.848 147.958C118.243 148.813 119.167 149.602 119.826 149.668C120.42 149.799 121.343 150.391 121.805 151.049C122.266 151.706 123.123 152.758 123.717 153.35C124.376 154.074 124.574 154.534 124.113 154.534C123.651 154.534 123.321 154.863 123.321 155.323C123.321 155.718 123.519 155.849 123.783 155.652C124.245 155.126 125.959 156.375 125.959 157.296C125.959 157.625 125.629 157.69 125.234 157.427C124.772 157.164 124.574 157.362 124.772 157.888C125.168 158.874 125.498 158.874 127.608 158.085C128.795 157.69 128.729 157.822 127.344 159.334C126.421 160.321 125.3 161.11 124.838 161.11C124.311 161.11 124.047 161.373 124.245 161.702C124.706 162.425 122.992 163.872 122.398 163.28C122.134 163.017 121.673 163.214 121.343 163.74C120.815 164.595 120.683 164.529 120.683 163.543C120.683 162.951 120.947 162.425 121.277 162.425C121.607 162.425 122.332 161.57 122.86 160.452C123.849 158.611 123.783 158.545 122.662 159.137C122.002 159.532 121.211 160.123 121.013 160.518C120.683 160.978 120.222 160.913 119.628 160.386C119.035 159.926 118.705 159.86 118.771 160.189C119.035 161.57 118.639 162.491 118.046 162.096C117.716 161.899 117.386 161.965 117.386 162.359C117.386 162.754 116.924 162.885 116.397 162.688C115.869 162.425 115.606 162.03 115.803 161.702C116.001 161.373 115.737 161.307 115.21 161.439C114.748 161.636 113.034 160.65 111.385 159.269C109.802 157.888 108.088 156.835 107.692 156.967C107.23 157.164 106.835 156.901 106.835 156.441C106.835 156.046 106.307 155.257 105.713 154.731C105.054 154.205 104.922 154.008 105.384 154.205C106.109 154.6 106.109 154.402 105.45 153.35C104.988 152.561 104.329 152.167 104.065 152.298C103.801 152.495 103.537 152.298 103.537 151.969C103.537 151.575 103.933 151.246 104.394 151.246C104.988 151.246 104.922 151.049 104.263 150.654C101.757 149.01 108.615 142.96 112.11 143.684C113.034 143.881 114.287 144.67 114.88 145.393ZM130.576 144.341C130.576 144.539 130.444 144.67 130.246 144.67C130.048 144.67 129.916 144.539 129.916 144.341C129.916 144.144 130.048 144.012 130.246 144.012C130.444 144.012 130.576 144.144 130.576 144.341ZM119.365 145.656C119.365 145.854 119.233 145.985 119.035 145.985C118.837 145.985 118.705 145.854 118.705 145.656C118.705 145.459 118.837 145.328 119.035 145.328C119.233 145.328 119.365 145.459 119.365 145.656ZM133.873 145.656C133.873 145.854 133.741 145.985 133.543 145.985C133.345 145.985 133.213 145.854 133.213 145.656C133.213 145.459 133.345 145.328 133.543 145.328C133.741 145.328 133.873 145.459 133.873 145.656ZM132.554 146.248C132.554 146.38 132.026 146.906 131.433 147.366C130.378 148.221 130.312 148.155 131.169 147.103C132.026 146.051 132.554 145.722 132.554 146.248ZM122.002 147.629C122.002 147.826 121.871 147.958 121.673 147.958C121.475 147.958 121.343 147.826 121.343 147.629C121.343 147.432 121.475 147.3 121.673 147.3C121.871 147.3 122.002 147.432 122.002 147.629ZM146.403 148.287C146.403 148.484 146.271 148.616 146.073 148.616C145.875 148.616 145.743 148.484 145.743 148.287C145.743 148.09 145.875 147.958 146.073 147.958C146.271 147.958 146.403 148.09 146.403 148.287ZM152.998 148.287C152.998 148.484 152.866 148.616 152.668 148.616C152.47 148.616 152.338 148.484 152.338 148.287C152.338 148.09 152.47 147.958 152.668 147.958C152.866 147.958 152.998 148.09 152.998 148.287ZM171.463 149.602C171.463 149.799 171.331 149.931 171.133 149.931C170.935 149.931 170.803 149.799 170.803 149.602C170.803 149.405 170.935 149.273 171.133 149.273C171.331 149.273 171.463 149.405 171.463 149.602ZM173.441 153.548C173.441 153.745 173.309 153.876 173.112 153.876C172.914 153.876 172.782 153.745 172.782 153.548C172.782 153.35 172.914 153.219 173.112 153.219C173.309 153.219 173.441 153.35 173.441 153.548ZM151.679 155.52C151.679 155.718 151.547 155.849 151.349 155.849C151.151 155.849 151.019 155.718 151.019 155.52C151.019 155.323 151.151 155.191 151.349 155.191C151.547 155.191 151.679 155.323 151.679 155.52ZM106.175 156.178C106.175 156.375 106.043 156.507 105.845 156.507C105.647 156.507 105.516 156.375 105.516 156.178C105.516 155.981 105.647 155.849 105.845 155.849C106.043 155.849 106.175 155.981 106.175 156.178ZM133.675 156.835C133.675 157.362 133.411 157.822 133.082 157.822C132.818 157.822 132.554 157.362 132.554 156.835C132.554 156.309 132.818 155.849 133.082 155.849C133.411 155.849 133.675 156.309 133.675 156.835ZM147.722 156.112C147.722 156.309 147.392 156.638 146.93 156.901C146.469 157.164 146.403 157.099 146.667 156.638C147.128 155.849 147.722 155.586 147.722 156.112ZM149.7 156.178C149.7 156.375 149.568 156.507 149.371 156.507C149.173 156.507 149.041 156.375 149.041 156.178C149.041 155.981 149.173 155.849 149.371 155.849C149.568 155.849 149.7 155.981 149.7 156.178ZM174.101 156.178C174.101 156.375 173.969 156.507 173.771 156.507C173.573 156.507 173.441 156.375 173.441 156.178C173.441 155.981 173.573 155.849 173.771 155.849C173.969 155.849 174.101 155.981 174.101 156.178ZM127.938 156.835C127.938 157.033 127.806 157.164 127.608 157.164C127.41 157.164 127.278 157.033 127.278 156.835C127.278 156.638 127.41 156.507 127.608 156.507C127.806 156.507 127.938 156.638 127.938 156.835ZM150.492 157.953C150.03 158.414 149.7 159.269 149.7 159.926C149.7 160.584 149.37 161.11 148.975 161.11C148.645 161.11 148.513 161.439 148.711 161.833C148.975 162.162 148.711 163.017 148.183 163.609C147.656 164.201 147.128 165.121 146.996 165.581C146.799 166.042 146.403 165.516 145.941 164.398C145.48 163.148 145.48 162.557 145.875 162.82C146.271 163.083 146.403 162.688 146.073 161.702C145.809 160.65 145.875 160.386 146.271 160.978C146.733 161.702 146.996 161.57 147.26 160.452C147.458 159.663 147.92 159.203 148.249 159.4C148.579 159.597 149.173 159.006 149.634 158.019C150.03 157.099 150.623 156.507 150.821 156.77C151.085 156.967 150.887 157.559 150.492 157.953ZM152.338 157.493C152.338 157.69 152.206 157.822 152.008 157.822C151.811 157.822 151.679 157.69 151.679 157.493C151.679 157.296 151.811 157.164 152.008 157.164C152.206 157.164 152.338 157.296 152.338 157.493ZM108.813 158.151C108.813 158.348 108.681 158.479 108.483 158.479C108.285 158.479 108.153 158.348 108.153 158.151C108.153 157.953 108.285 157.822 108.483 157.822C108.681 157.822 108.813 157.953 108.813 158.151ZM146.403 158.151C146.403 158.348 146.271 158.479 146.073 158.479C145.875 158.479 145.743 158.348 145.743 158.151C145.743 157.953 145.875 157.822 146.073 157.822C146.271 157.822 146.403 157.953 146.403 158.151ZM110.857 160.781C114.55 163.083 119.365 167.291 119.101 168.08C118.903 168.541 118.969 169.067 119.233 169.198C119.496 169.33 119.299 169.33 118.837 169.264C118.375 169.132 117.65 169.79 117.254 170.645C116.859 171.566 116.265 172.289 116.001 172.289C115.737 172.289 115.276 172.881 115.078 173.604C114.88 174.327 114.155 174.919 113.561 174.919C112.572 174.919 112.572 175.051 113.429 175.577C114.287 176.103 114.221 176.234 113.297 176.234C112.638 176.234 112.11 175.774 112.11 175.248C112.11 174.722 111.781 174.262 111.385 174.262C111.055 174.262 110.923 174.656 111.187 175.051C111.583 175.708 111.517 175.708 110.659 175.117C110.132 174.656 109.406 174.525 109.077 174.788C108.813 175.051 108.879 174.788 109.341 174.196C110 173.275 110 173.012 109.077 172.683C108.483 172.486 107.824 172.42 107.494 172.618C107.23 172.815 106.769 172.486 106.571 171.894C106.373 171.368 105.911 171.105 105.516 171.302C105.186 171.5 104.856 171.171 104.79 170.513C104.79 169.461 104.724 169.461 104.197 170.645L103.603 171.96V170.645C103.537 169.659 103.405 169.527 102.944 170.25C102.548 170.842 102.416 170.579 102.416 169.264C102.416 168.278 101.888 167.094 101.295 166.699C100.174 165.844 99.7782 163.411 100.899 164.069C101.295 164.266 101.361 164.003 101.163 163.411C100.701 162.228 101.954 160.518 103.801 159.86C105.186 159.334 109.341 159.86 110.857 160.781ZM129.257 159.466C129.257 159.663 129.125 159.795 128.927 159.795C128.729 159.795 128.597 159.663 128.597 159.466C128.597 159.269 128.729 159.137 128.927 159.137C129.125 159.137 129.257 159.269 129.257 159.466ZM128.597 160.978C128.597 161.241 127.74 161.965 126.619 162.557C124.772 163.609 124.706 163.609 125.432 162.425C125.893 161.767 126.487 161.373 126.751 161.504C127.014 161.702 127.278 161.373 127.278 160.781C127.278 160.189 127.608 159.926 127.938 160.123C128.333 160.321 128.597 160.715 128.597 160.978ZM129.916 160.781C129.916 160.978 129.784 161.11 129.586 161.11C129.388 161.11 129.257 160.978 129.257 160.781C129.257 160.584 129.388 160.452 129.586 160.452C129.784 160.452 129.916 160.584 129.916 160.781ZM122.002 161.439C122.002 161.636 121.871 161.767 121.673 161.767C121.475 161.767 121.343 161.636 121.343 161.439C121.343 161.241 121.475 161.11 121.673 161.11C121.871 161.11 122.002 161.241 122.002 161.439ZM132.422 162.622C132.818 162.951 133.213 163.543 133.213 163.937C133.213 164.398 132.884 164.201 132.488 163.543C132.092 162.951 131.565 162.557 131.235 162.754C130.905 162.951 130.51 162.82 130.312 162.491C129.85 161.767 131.169 161.899 132.422 162.622ZM175.222 163.872C175.024 164.398 174.826 164.2 174.826 163.477C174.76 162.754 174.958 162.359 175.156 162.622C175.354 162.82 175.42 163.411 175.222 163.872ZM127.278 163.411C127.278 163.609 127.146 163.74 126.948 163.74C126.751 163.74 126.619 163.609 126.619 163.411C126.619 163.214 126.751 163.083 126.948 163.083C127.146 163.083 127.278 163.214 127.278 163.411ZM173.903 164.332C174.035 165.713 172.386 166.699 171.727 165.647C171.331 164.99 172.584 163.083 173.375 163.083C173.639 163.083 173.837 163.674 173.903 164.332ZM133.016 166.305C134.071 167.686 134.071 169.856 133.082 170.908C132.356 171.631 132.422 171.697 133.147 171.302C133.741 170.974 133.939 171.039 133.609 171.5C133.016 172.486 130.246 172.552 128.597 171.631C127.938 171.302 127.08 170.119 126.685 168.935C126.091 167.16 126.157 166.765 127.608 165.318C129.059 163.937 129.454 163.806 130.707 164.464C131.565 164.924 132.554 165.713 133.016 166.305ZM122.662 164.727C122.662 164.924 122.53 165.055 122.332 165.055C122.134 165.055 122.002 164.924 122.002 164.727C122.002 164.529 122.134 164.398 122.332 164.398C122.53 164.398 122.662 164.529 122.662 164.727ZM123.981 164.727C123.981 164.924 123.849 165.055 123.651 165.055C123.453 165.055 123.321 164.924 123.321 164.727C123.321 164.529 123.453 164.398 123.651 164.398C123.849 164.398 123.981 164.529 123.981 164.727ZM125.959 164.727C125.959 164.924 125.827 165.055 125.629 165.055C125.432 165.055 125.3 164.924 125.3 164.727C125.3 164.529 125.432 164.398 125.629 164.398C125.827 164.398 125.959 164.529 125.959 164.727ZM122.002 166.042C122.002 166.239 121.871 166.371 121.673 166.371C121.475 166.371 121.343 166.239 121.343 166.042C121.343 165.844 121.475 165.713 121.673 165.713C121.871 165.713 122.002 165.844 122.002 166.042ZM124.772 168.541C124.64 168.869 124.113 168.541 123.585 167.883C122.266 166.173 122.464 165.516 123.849 166.831C124.574 167.488 124.97 168.278 124.772 168.541ZM124.64 166.042C124.64 166.239 124.508 166.371 124.311 166.371C124.113 166.371 123.981 166.239 123.981 166.042C123.981 165.844 124.113 165.713 124.311 165.713C124.508 165.713 124.64 165.844 124.64 166.042ZM101.559 167.357C101.559 167.554 101.427 167.686 101.229 167.686C101.031 167.686 100.899 167.554 100.899 167.357C100.899 167.16 101.031 167.028 101.229 167.028C101.427 167.028 101.559 167.16 101.559 167.357ZM175.683 169.395C175.881 169.922 175.815 170.185 175.42 169.987C175.024 169.79 174.76 169.33 174.76 168.935C174.76 168.015 175.222 168.212 175.683 169.395ZM122.002 169.987C122.002 170.185 121.871 170.316 121.673 170.316C121.475 170.316 121.343 170.185 121.343 169.987C121.343 169.79 121.475 169.659 121.673 169.659C121.871 169.659 122.002 169.79 122.002 169.987ZM121.211 171.434C121.343 171.894 121.145 172.289 120.683 172.289C120.288 172.289 120.156 171.96 120.354 171.631C120.552 171.237 120.42 170.974 120.024 170.974C119.562 170.974 119.365 171.368 119.562 171.894C119.76 172.355 119.562 173.144 119.167 173.538C118.573 174.196 118.771 174.262 120.222 173.933C121.673 173.538 121.936 173.67 121.607 174.525C121.409 175.117 120.947 175.38 120.618 175.182C120.288 174.985 120.024 175.182 120.024 175.577C120.024 176.037 119.496 176.169 118.705 175.906C117.122 175.38 116.924 176.563 118.441 177.418C119.167 177.813 119.299 178.141 118.771 178.47C118.375 178.733 117.848 178.47 117.65 177.944C117.056 176.432 116.067 176.695 116.001 178.339C115.935 179.391 115.737 179.128 115.408 177.55C114.814 175.051 115.21 173.67 116.199 174.985C116.661 175.643 116.727 175.511 116.529 174.393C116.199 173.144 116.331 173.012 117.122 173.67C117.914 174.327 117.98 174.262 117.65 173.341C117.452 172.749 117.584 171.829 118.046 171.237C119.035 170.119 120.749 170.25 121.211 171.434ZM135.851 170.645C135.851 170.842 135.719 170.974 135.522 170.974C135.324 170.974 135.192 170.842 135.192 170.645C135.192 170.448 135.324 170.316 135.522 170.316C135.719 170.316 135.851 170.448 135.851 170.645ZM144.424 170.645C144.424 170.842 144.293 170.974 144.095 170.974C143.897 170.974 143.765 170.842 143.765 170.645C143.765 170.448 143.897 170.316 144.095 170.316C144.293 170.316 144.424 170.448 144.424 170.645ZM176.079 171.302C176.079 171.5 175.947 171.631 175.749 171.631C175.552 171.631 175.42 171.5 175.42 171.302C175.42 171.105 175.552 170.974 175.749 170.974C175.947 170.974 176.079 171.105 176.079 171.302ZM174.496 174.064C174.101 174.459 171.463 172.749 171.463 172.092C171.463 171.829 172.188 172.092 173.112 172.683C174.035 173.275 174.694 173.933 174.496 174.064ZM128.597 172.618C128.597 172.815 128.465 172.946 128.267 172.946C128.07 172.946 127.938 172.815 127.938 172.618C127.938 172.42 128.07 172.289 128.267 172.289C128.465 172.289 128.597 172.42 128.597 172.618ZM108.813 173.275C108.813 173.473 108.681 173.604 108.483 173.604C108.285 173.604 108.153 173.473 108.153 173.275C108.153 173.078 108.285 172.946 108.483 172.946C108.681 172.946 108.813 173.078 108.813 173.275ZM134.532 173.933C134.532 174.13 134.4 174.262 134.203 174.262C134.005 174.262 133.873 174.13 133.873 173.933C133.873 173.736 134.005 173.604 134.203 173.604C134.4 173.604 134.532 173.736 134.532 173.933ZM103.537 174.59C103.537 174.788 103.405 174.919 103.207 174.919C103.01 174.919 102.878 174.788 102.878 174.59C102.878 174.393 103.01 174.262 103.207 174.262C103.405 174.262 103.537 174.393 103.537 174.59ZM125.432 175.511C125.366 175.971 125.564 176.169 125.893 175.971C127.608 174.919 128.07 179.391 126.487 180.969C125.102 182.35 123.651 182.547 124.376 181.298C124.706 180.706 124.64 180.706 123.981 181.298C122.992 182.219 120.354 181.166 121.013 180.114C121.277 179.785 121.079 179.522 120.749 179.522C119.43 179.522 120.024 178.076 122.068 176.169C124.113 174.262 125.827 173.933 125.432 175.511ZM104.856 175.248C104.856 175.445 104.724 175.577 104.526 175.577C104.329 175.577 104.197 175.445 104.197 175.248C104.197 175.051 104.329 174.919 104.526 174.919C104.724 174.919 104.856 175.051 104.856 175.248ZM176.739 175.248C176.739 175.445 176.607 175.577 176.409 175.577C176.211 175.577 176.079 175.445 176.079 175.248C176.079 175.051 176.211 174.919 176.409 174.919C176.607 174.919 176.739 175.051 176.739 175.248ZM114.748 177.221C114.748 177.418 114.616 177.55 114.418 177.55C114.221 177.55 114.089 177.418 114.089 177.221C114.089 177.024 114.221 176.892 114.418 176.892C114.616 176.892 114.748 177.024 114.748 177.221ZM172.122 177.221C172.122 177.418 171.99 177.55 171.793 177.55C171.595 177.55 171.463 177.418 171.463 177.221C171.463 177.024 171.595 176.892 171.793 176.892C171.99 176.892 172.122 177.024 172.122 177.221ZM173.441 177.221C173.441 177.418 173.309 177.55 173.112 177.55C172.914 177.55 172.782 177.418 172.782 177.221C172.782 177.024 172.914 176.892 173.112 176.892C173.309 176.892 173.441 177.024 173.441 177.221ZM176.079 177.221C176.079 177.418 175.947 177.55 175.749 177.55C175.552 177.55 175.42 177.418 175.42 177.221C175.42 177.024 175.552 176.892 175.749 176.892C175.947 176.892 176.079 177.024 176.079 177.221ZM173.441 178.536C173.441 178.733 173.309 178.865 173.112 178.865C172.914 178.865 172.782 178.733 172.782 178.536C172.782 178.339 172.914 178.207 173.112 178.207C173.309 178.207 173.441 178.339 173.441 178.536ZM105.977 179.983C105.713 180.18 105.516 179.983 105.516 179.522C105.516 179.062 105.713 178.865 105.977 179.062C106.175 179.325 106.175 179.72 105.977 179.983ZM109.472 179.194C109.472 179.391 109.341 179.522 109.143 179.522C108.945 179.522 108.813 179.391 108.813 179.194C108.813 178.996 108.945 178.865 109.143 178.865C109.341 178.865 109.472 178.996 109.472 179.194ZM132.554 179.194C132.554 179.391 132.422 179.522 132.224 179.522C132.026 179.522 131.894 179.391 131.894 179.194C131.894 178.996 132.026 178.865 132.224 178.865C132.422 178.865 132.554 178.996 132.554 179.194ZM107.494 179.851C107.494 180.048 107.362 180.18 107.164 180.18C106.966 180.18 106.835 180.048 106.835 179.851C106.835 179.654 106.966 179.522 107.164 179.522C107.362 179.522 107.494 179.654 107.494 179.851ZM119.826 180.509C120.354 182.021 119.826 182.087 118.573 180.706C117.584 179.72 117.518 179.522 118.375 179.522C118.969 179.522 119.562 179.983 119.826 180.509ZM137.17 179.851C137.17 180.048 137.038 180.18 136.841 180.18C136.643 180.18 136.511 180.048 136.511 179.851C136.511 179.654 136.643 179.522 136.841 179.522C137.038 179.522 137.17 179.654 137.17 179.851ZM174.562 179.917C174.365 180.114 173.771 180.18 173.309 179.983C172.782 179.785 172.98 179.588 173.705 179.588C174.43 179.522 174.826 179.72 174.562 179.917ZM111.253 180.64C110.989 180.838 110.594 180.838 110.33 180.64C110.132 180.377 110.33 180.18 110.791 180.18C111.253 180.18 111.451 180.377 111.253 180.64ZM133.213 182.482C133.213 183.008 132.686 183.205 131.829 183.008C130.773 182.745 130.707 182.482 131.367 182.087C132.026 181.627 132.092 181.495 131.367 181.495C130.905 181.495 130.707 181.166 130.905 180.838C131.433 179.983 133.213 181.232 133.213 182.482ZM176.079 180.509C176.079 180.706 175.947 180.838 175.749 180.838C175.552 180.838 175.42 180.706 175.42 180.509C175.42 180.311 175.552 180.18 175.749 180.18C175.947 180.18 176.079 180.311 176.079 180.509ZM106.175 181.166C106.175 181.364 106.043 181.495 105.845 181.495C105.647 181.495 105.516 181.364 105.516 181.166C105.516 180.969 105.647 180.838 105.845 180.838C106.043 180.838 106.175 180.969 106.175 181.166ZM109.472 181.166C109.472 181.364 109.341 181.495 109.143 181.495C108.945 181.495 108.813 181.364 108.813 181.166C108.813 180.969 108.945 180.838 109.143 180.838C109.341 180.838 109.472 180.969 109.472 181.166ZM118.046 181.166C118.046 181.364 117.914 181.495 117.716 181.495C117.518 181.495 117.386 181.364 117.386 181.166C117.386 180.969 117.518 180.838 117.716 180.838C117.914 180.838 118.046 180.969 118.046 181.166ZM127.938 181.166C127.938 181.364 127.806 181.495 127.608 181.495C127.41 181.495 127.278 181.364 127.278 181.166C127.278 180.969 127.41 180.838 127.608 180.838C127.806 180.838 127.938 180.969 127.938 181.166ZM111.781 182.153C111.583 182.482 110.989 182.81 110.594 182.81C110.132 182.81 110.198 182.547 110.791 182.153C112.044 181.364 112.308 181.364 111.781 182.153ZM137.17 181.824C137.17 182.021 137.038 182.153 136.841 182.153C136.643 182.153 136.511 182.021 136.511 181.824C136.511 181.627 136.643 181.495 136.841 181.495C137.038 181.495 137.17 181.627 137.17 181.824ZM175.42 181.824C175.42 182.021 175.288 182.153 175.09 182.153C174.892 182.153 174.76 182.021 174.76 181.824C174.76 181.627 174.892 181.495 175.09 181.495C175.288 181.495 175.42 181.627 175.42 181.824ZM142.71 184.454C142.248 185.638 142.182 185.638 141.787 184.389C141.193 182.876 141.721 181.824 142.512 182.613C142.908 183.008 142.908 183.797 142.71 184.454ZM104.856 183.139C104.856 183.336 104.724 183.468 104.526 183.468C104.329 183.468 104.197 183.336 104.197 183.139C104.197 182.942 104.329 182.81 104.526 182.81C104.724 182.81 104.856 182.942 104.856 183.139ZM109.472 183.139C109.472 183.336 109.341 183.468 109.143 183.468C108.945 183.468 108.813 183.336 108.813 183.139C108.813 182.942 108.945 182.81 109.143 182.81C109.341 182.81 109.472 182.942 109.472 183.139ZM174.101 183.139C174.101 183.336 173.969 183.468 173.771 183.468C173.573 183.468 173.441 183.336 173.441 183.139C173.441 182.942 173.573 182.81 173.771 182.81C173.969 182.81 174.101 182.942 174.101 183.139ZM111.781 184.52C110.33 185.112 108.615 185.835 108.022 186.164C106.109 187.15 106.703 186.164 108.747 184.915C109.802 184.257 111.517 183.731 112.506 183.665C114.221 183.534 114.089 183.665 111.781 184.52ZM140.27 184.586C140.006 184.783 139.808 184.586 139.808 184.126C139.808 183.665 140.006 183.468 140.27 183.665C140.468 183.928 140.468 184.323 140.27 184.586ZM176.079 183.797C176.079 183.994 175.947 184.126 175.749 184.126C175.552 184.126 175.42 183.994 175.42 183.797C175.42 183.599 175.552 183.468 175.749 183.468C175.947 183.468 176.079 183.599 176.079 183.797ZM104.856 184.454C104.856 184.652 104.724 184.783 104.526 184.783C104.329 184.783 104.197 184.652 104.197 184.454C104.197 184.257 104.329 184.126 104.526 184.126C104.724 184.126 104.856 184.257 104.856 184.454ZM174.101 184.454C174.101 184.652 173.969 184.783 173.771 184.783C173.573 184.783 173.441 184.652 173.441 184.454C173.441 184.257 173.573 184.126 173.771 184.126C173.969 184.126 174.101 184.257 174.101 184.454ZM117.716 186.756C117.518 187.085 116.924 187.413 116.529 187.413C116.067 187.413 116.133 187.15 116.727 186.756C117.98 185.967 118.243 185.967 117.716 186.756ZM137.83 186.427C137.83 186.624 137.698 186.756 137.5 186.756C137.302 186.756 137.17 186.624 137.17 186.427C137.17 186.23 137.302 186.098 137.5 186.098C137.698 186.098 137.83 186.23 137.83 186.427ZM172.122 187.085C172.122 187.282 171.99 187.413 171.793 187.413C171.595 187.413 171.463 187.282 171.463 187.085C171.463 186.887 171.595 186.756 171.793 186.756C171.99 186.756 172.122 186.887 172.122 187.085ZM120.024 187.742C120.024 187.94 119.892 188.071 119.694 188.071C119.496 188.071 119.365 187.94 119.365 187.742C119.365 187.545 119.496 187.413 119.694 187.413C119.892 187.413 120.024 187.545 120.024 187.742ZM137.632 188.86C137.434 189.386 137.236 189.189 137.236 188.466C137.17 187.742 137.368 187.348 137.566 187.611C137.764 187.808 137.83 188.4 137.632 188.86ZM169.484 187.742C169.484 187.94 169.353 188.071 169.155 188.071C168.957 188.071 168.825 187.94 168.825 187.742C168.825 187.545 168.957 187.413 169.155 187.413C169.353 187.413 169.484 187.545 169.484 187.742ZM121.343 188.4C121.343 188.597 121.211 188.729 121.013 188.729C120.815 188.729 120.683 188.597 120.683 188.4C120.683 188.203 120.815 188.071 121.013 188.071C121.211 188.071 121.343 188.203 121.343 188.4ZM140.072 189.123C140.27 189.649 140.204 189.912 139.808 189.715C139.412 189.518 139.149 189.057 139.149 188.663C139.149 187.742 139.61 187.94 140.072 189.123ZM174.76 189.057C174.76 189.255 174.628 189.386 174.43 189.386C174.233 189.386 174.101 189.255 174.101 189.057C174.101 188.86 174.233 188.729 174.43 188.729C174.628 188.729 174.76 188.86 174.76 189.057ZM174.76 191.03C174.76 191.228 174.628 191.359 174.43 191.359C174.233 191.359 174.101 191.228 174.101 191.03C174.101 190.833 174.233 190.701 174.43 190.701C174.628 190.701 174.76 190.833 174.76 191.03ZM128.663 192.871C128.004 193.463 127.938 193.398 128.333 192.477C128.531 191.819 128.927 191.491 129.125 191.688C129.323 191.885 129.125 192.411 128.663 192.871ZM172.122 191.688C172.122 191.885 171.99 192.017 171.793 192.017C171.595 192.017 171.463 191.885 171.463 191.688C171.463 191.491 171.595 191.359 171.793 191.359C171.99 191.359 172.122 191.491 172.122 191.688ZM173.441 191.688C173.441 191.885 173.309 192.017 173.112 192.017C172.914 192.017 172.782 191.885 172.782 191.688C172.782 191.491 172.914 191.359 173.112 191.359C173.309 191.359 173.441 191.491 173.441 191.688ZM170.803 193.003C170.803 193.2 170.671 193.332 170.474 193.332C170.276 193.332 170.144 193.2 170.144 193.003C170.144 192.806 170.276 192.674 170.474 192.674C170.671 192.674 170.803 192.806 170.803 193.003ZM172.782 193.003C172.782 193.2 172.65 193.332 172.452 193.332C172.254 193.332 172.122 193.2 172.122 193.003C172.122 192.806 172.254 192.674 172.452 192.674C172.65 192.674 172.782 192.806 172.782 193.003ZM127.278 194.318C127.278 194.515 127.146 194.647 126.948 194.647C126.751 194.647 126.619 194.515 126.619 194.318C126.619 194.121 126.751 193.989 126.948 193.989C127.146 193.989 127.278 194.121 127.278 194.318ZM168.165 196.949C168.165 197.146 168.034 197.277 167.836 197.277C167.638 197.277 167.506 197.146 167.506 196.949C167.506 196.751 167.638 196.62 167.836 196.62C168.034 196.62 168.165 196.751 168.165 196.949ZM173.441 196.949C173.441 197.146 173.309 197.277 173.112 197.277C172.914 197.277 172.782 197.146 172.782 196.949C172.782 196.751 172.914 196.62 173.112 196.62C173.309 196.62 173.441 196.751 173.441 196.949ZM168.825 198.264C168.363 198.79 167.638 199.25 167.242 199.25C166.847 199.25 167.11 198.79 167.77 198.264C169.418 197.014 169.88 197.014 168.825 198.264ZM172.782 198.198C172.782 198.329 172.254 198.856 171.661 199.316C170.606 200.171 170.54 200.105 171.397 199.053C172.254 198.001 172.782 197.672 172.782 198.198ZM110.791 199.579C110.791 199.776 110.659 199.908 110.462 199.908C110.264 199.908 110.132 199.776 110.132 199.579C110.132 199.382 110.264 199.25 110.462 199.25C110.659 199.25 110.791 199.382 110.791 199.579ZM170.144 199.579C170.144 199.776 170.012 199.908 169.814 199.908C169.616 199.908 169.484 199.776 169.484 199.579C169.484 199.382 169.616 199.25 169.814 199.25C170.012 199.25 170.144 199.382 170.144 199.579ZM170.803 200.894C170.803 201.091 170.671 201.223 170.474 201.223C170.276 201.223 170.144 201.091 170.144 200.894C170.144 200.697 170.276 200.565 170.474 200.565C170.671 200.565 170.803 200.697 170.803 200.894ZM169.484 201.552C169.484 201.749 169.353 201.88 169.155 201.88C168.957 201.88 168.825 201.749 168.825 201.552C168.825 201.354 168.957 201.223 169.155 201.223C169.353 201.223 169.484 201.354 169.484 201.552ZM112.77 202.209C112.77 202.407 112.638 202.538 112.44 202.538C112.242 202.538 112.11 202.407 112.11 202.209C112.11 202.012 112.242 201.88 112.44 201.88C112.638 201.88 112.77 202.012 112.77 202.209ZM167.902 203.524C167.968 204.051 167.572 204.84 166.978 205.3C166.187 205.958 166.055 205.958 166.451 205.3C167.044 204.314 166.517 204.314 164.802 205.168C164.143 205.563 163.549 205.695 163.549 205.563C163.549 205.366 164.472 204.708 165.528 204.182C166.781 203.524 167.374 202.867 167.11 202.341C166.847 201.88 166.912 201.815 167.176 202.078C167.506 202.341 167.836 202.998 167.902 203.524ZM170.803 202.144C170.803 202.275 170.276 202.801 169.682 203.261C168.627 204.116 168.561 204.051 169.418 202.998C170.276 201.946 170.803 201.617 170.803 202.144ZM113.429 203.524C113.429 203.722 113.297 203.853 113.1 203.853C112.902 203.853 112.77 203.722 112.77 203.524C112.77 203.327 112.902 203.196 113.1 203.196C113.297 203.196 113.429 203.327 113.429 203.524ZM164.209 203.524C164.209 203.722 164.077 203.853 163.879 203.853C163.681 203.853 163.549 203.722 163.549 203.524C163.549 203.327 163.681 203.196 163.879 203.196C164.077 203.196 164.209 203.327 164.209 203.524ZM171.463 203.524C171.463 203.722 171.331 203.853 171.133 203.853C170.935 203.853 170.803 203.722 170.803 203.524C170.803 203.327 170.935 203.196 171.133 203.196C171.331 203.196 171.463 203.327 171.463 203.524ZM170.144 204.84C170.144 205.037 170.012 205.168 169.814 205.168C169.616 205.168 169.484 205.037 169.484 204.84C169.484 204.642 169.616 204.511 169.814 204.511C170.012 204.511 170.144 204.642 170.144 204.84ZM168.825 205.497C168.825 205.695 168.693 205.826 168.495 205.826C168.297 205.826 168.165 205.695 168.165 205.497C168.165 205.3 168.297 205.168 168.495 205.168C168.693 205.168 168.825 205.3 168.825 205.497ZM165.528 206.089C165.528 206.286 165.198 206.615 164.736 206.878C164.275 207.141 164.209 207.075 164.472 206.615C164.934 205.826 165.528 205.563 165.528 206.089ZM170.144 206.155C170.144 206.352 170.012 206.484 169.814 206.484C169.616 206.484 169.484 206.352 169.484 206.155C169.484 205.958 169.616 205.826 169.814 205.826C170.012 205.826 170.144 205.958 170.144 206.155ZM162.23 206.812C162.23 207.01 162.098 207.141 161.9 207.141C161.703 207.141 161.571 207.01 161.571 206.812C161.571 206.615 161.703 206.484 161.9 206.484C162.098 206.484 162.23 206.615 162.23 206.812ZM116.067 207.47C116.067 207.667 115.935 207.799 115.737 207.799C115.54 207.799 115.408 207.667 115.408 207.47C115.408 207.273 115.54 207.141 115.737 207.141C115.935 207.141 116.067 207.273 116.067 207.47ZM160.911 207.47C160.911 207.667 160.779 207.799 160.582 207.799C160.384 207.799 160.252 207.667 160.252 207.47C160.252 207.273 160.384 207.141 160.582 207.141C160.779 207.141 160.911 207.273 160.911 207.47ZM163.549 207.404C163.549 207.602 163.219 207.93 162.758 208.193C162.296 208.456 162.23 208.391 162.494 207.93C162.956 207.141 163.549 206.878 163.549 207.404ZM168.825 207.47C168.825 207.667 168.693 207.799 168.495 207.799C168.297 207.799 168.165 207.667 168.165 207.47C168.165 207.273 168.297 207.141 168.495 207.141C168.693 207.141 168.825 207.273 168.825 207.47ZM116.067 209.443C116.067 209.64 115.935 209.772 115.737 209.772C115.54 209.772 115.408 209.64 115.408 209.443C115.408 209.245 115.54 209.114 115.737 209.114C115.935 209.114 116.067 209.245 116.067 209.443ZM166.187 209.443C166.187 209.64 166.055 209.772 165.857 209.772C165.659 209.772 165.528 209.64 165.528 209.443C165.528 209.245 165.659 209.114 165.857 209.114C166.055 209.114 166.187 209.245 166.187 209.443ZM168.825 209.377C168.825 209.574 168.495 209.903 168.034 210.166C167.572 210.429 167.506 210.363 167.77 209.903C168.231 209.114 168.825 208.851 168.825 209.377ZM166.847 210.692C166.847 210.889 166.517 211.218 166.055 211.481C165.594 211.744 165.528 211.679 165.791 211.218C166.253 210.429 166.847 210.166 166.847 210.692ZM164.868 212.665C164.868 212.862 164.604 213.191 164.209 213.388C163.879 213.586 163.549 213.454 163.549 213.125C163.549 212.731 163.879 212.402 164.209 212.402C164.604 212.402 164.868 212.533 164.868 212.665ZM121.343 213.388C121.343 213.586 121.211 213.717 121.013 213.717C120.815 213.717 120.683 213.586 120.683 213.388C120.683 213.191 120.815 213.06 121.013 213.06C121.211 213.06 121.343 213.191 121.343 213.388ZM162.692 214.177C162.428 214.375 162.23 214.177 162.23 213.717C162.23 213.257 162.428 213.06 162.692 213.257C162.89 213.52 162.89 213.914 162.692 214.177ZM165.528 214.375C165.132 215.098 164.472 215.69 164.143 215.69C163.747 215.69 163.549 216.084 163.747 216.611C164.011 217.268 163.747 217.4 162.824 217.202C162.032 216.939 161.571 217.202 161.571 217.86C161.571 218.386 160.845 219.044 159.922 219.241C158.999 219.504 157.944 220.359 157.614 221.279C157.284 222.134 156.163 223.384 155.174 224.041C154.185 224.699 152.998 225.685 152.536 226.211C152.074 226.737 151.679 226.935 151.679 226.606C151.679 226.343 150.689 226.803 149.436 227.79C146.733 229.828 145.743 230.025 147.392 228.184C148.052 227.461 148.381 226.672 148.183 226.409C147.92 226.211 147.722 226.409 147.722 226.869C147.722 227.329 147.524 227.527 147.26 227.329C147.062 227.066 146.205 227.658 145.348 228.513C144.49 229.434 143.633 230.157 143.369 230.157C143.106 230.157 142.38 230.551 141.853 231.078C141.259 231.604 140.336 232.13 139.808 232.261C139.281 232.393 138.555 232.722 138.291 233.116C137.962 233.511 137.83 233.379 138.028 232.787C138.159 232.261 138.621 231.867 139.017 231.932C139.347 231.998 139.808 231.669 140.006 231.209C140.27 230.551 139.94 230.42 138.951 230.617C136.709 231.078 140.665 227.724 154.251 217.531C159.131 213.849 161.9 212.402 159.065 215.032C158.273 215.756 157.548 216.347 157.35 216.347C157.218 216.347 156.361 216.939 155.504 217.663C147.26 224.502 145.15 226.08 144.754 225.685C144.424 225.422 144.424 225.554 144.622 225.948C145.084 226.672 143.369 227.855 142.248 227.592C141.918 227.527 141.853 227.79 142.05 228.118C142.314 228.447 141.918 228.842 141.325 228.973C140.665 229.105 140.468 229.368 140.797 229.631C141.193 229.828 144.029 227.987 147.062 225.488C153.987 219.767 158.273 216.742 158.273 217.531C158.273 217.86 156.229 219.767 153.723 221.674C151.151 223.647 149.107 225.62 149.107 226.146C149.041 226.869 149.37 226.803 150.294 225.817C152.602 223.449 155.635 220.951 156.295 220.951C156.625 220.951 156.954 220.622 156.954 220.293C156.954 219.898 157.68 219.241 158.603 218.846C159.526 218.452 160.252 217.86 160.252 217.531C160.252 217.202 159.988 217.137 159.592 217.334C159.263 217.531 158.933 217.268 158.933 216.611C158.933 215.69 159.131 215.69 159.922 216.347C160.779 217.071 161.373 216.874 163.417 215.164C166.319 212.731 166.451 212.665 165.528 214.375ZM121.343 214.704C121.343 214.901 121.211 215.032 121.013 215.032C120.815 215.032 120.683 214.901 120.683 214.704C120.683 214.506 120.815 214.375 121.013 214.375C121.211 214.375 121.343 214.506 121.343 214.704ZM123.321 215.69C123.321 216.019 122.794 216.347 122.2 216.347C121.211 216.347 121.145 216.216 122.002 215.69C123.255 214.901 123.321 214.901 123.321 215.69ZM161.373 215.493C161.109 215.69 160.713 215.69 160.45 215.493C160.252 215.23 160.45 215.032 160.911 215.032C161.373 215.032 161.571 215.23 161.373 215.493ZM148.381 216.676C147.92 217.268 147.392 217.531 147.26 217.4C146.799 216.939 147.722 215.69 148.513 215.69C148.909 215.69 148.909 216.084 148.381 216.676ZM127.278 216.611C127.278 216.808 126.948 217.137 126.487 217.4C126.025 217.663 125.959 217.597 126.223 217.137C126.685 216.347 127.278 216.084 127.278 216.611ZM128.927 217.663C128.729 217.991 128.201 218.32 127.872 218.32C127.476 218.32 127.41 217.991 127.608 217.663C127.806 217.268 128.333 217.005 128.663 217.005C129.059 217.005 129.125 217.268 128.927 217.663ZM162.89 217.991C162.89 218.189 162.758 218.32 162.56 218.32C162.362 218.32 162.23 218.189 162.23 217.991C162.23 217.794 162.362 217.663 162.56 217.663C162.758 217.663 162.89 217.794 162.89 217.991ZM163.088 219.701C162.692 220.096 162.494 220.819 162.626 221.214C162.956 222.134 161.109 224.239 157.614 227.066C156.361 228.053 155.899 228.579 156.691 228.25C157.416 227.921 158.405 227.132 158.933 226.606C160.647 224.436 160.582 225.685 158.669 229.762C157.218 232.787 156.427 233.905 155.701 233.642C154.844 233.379 154.844 233.445 155.504 233.971C156.823 234.892 154.119 240.613 152.536 240.415C151.876 240.284 151.745 240.35 152.206 240.481C152.602 240.678 152.998 241.007 152.998 241.336C152.998 242.322 150.096 247.254 149.568 247.254C149.239 247.254 149.107 247.452 149.239 247.715C149.898 248.832 148.381 251.331 147.326 250.937C146.799 250.739 146.535 250.805 146.733 251.134C146.93 251.463 146.799 251.923 146.403 252.186C146.007 252.449 145.875 252.91 146.139 253.238C146.337 253.633 146.337 254.685 146.073 255.671C145.743 256.987 145.546 257.184 145.084 256.395C144.754 255.934 144.622 254.948 144.82 254.356C145.084 253.436 144.886 253.304 143.963 253.567C142.908 253.962 142.908 253.896 144.095 252.91C145.018 252.12 145.084 251.857 144.359 252.055C142.908 252.515 143.171 249.95 144.754 248.832C146.271 247.715 145.546 247.649 143.567 248.635C142.446 249.161 142.578 248.898 144.095 247.452C145.216 246.399 146.205 245.479 146.403 245.479C146.601 245.479 147.194 245.413 147.722 245.347C148.381 245.281 148.249 244.953 147.194 244.229C146.403 243.703 145.48 243.374 145.15 243.638C144.82 243.835 144.359 243.703 144.095 243.374C143.897 242.98 143.303 242.848 142.776 243.111C140.863 243.769 141.853 242.848 145.084 240.744C146.93 239.56 148.381 238.443 148.381 238.245C148.381 238.048 147.59 238.443 146.601 239.1C142.446 241.796 138.819 243.572 139.742 242.454C140.336 241.665 140.402 241.336 139.874 241.336C139.412 241.336 139.281 241.007 139.478 240.678C139.676 240.284 140.204 240.021 140.534 240.021C140.929 240.021 140.995 240.35 140.731 240.744C140.468 241.204 140.665 241.402 141.127 241.204C141.589 241.073 142.05 240.415 142.182 239.823C142.248 239.166 143.04 238.114 143.897 237.39C144.82 236.536 145.018 236.141 144.424 236.207C143.897 236.338 143.501 236.009 143.633 235.549C143.765 234.892 143.501 234.892 142.314 235.483C141.457 235.944 140.534 236.667 140.27 237.127C140.006 237.653 139.083 238.377 138.291 238.771L136.841 239.429L138.225 238.245C139.017 237.588 139.874 236.404 140.138 235.615C140.336 234.76 140.731 234.168 140.995 234.234C141.259 234.3 142.116 234.037 142.974 233.576C144.293 232.787 144.688 232.985 144.49 234.3C144.424 234.629 144.688 234.694 145.084 234.431C146.469 233.576 144.49 232.064 143.04 232.853C142.38 233.182 141.787 233.248 141.787 232.985C141.721 232.721 141.127 233.182 140.468 234.037C139.742 234.892 139.149 235.352 139.149 235.089C139.149 234.826 138.621 235.023 138.028 235.483C137.236 236.141 137.038 236.141 137.434 235.549C137.896 234.826 145.48 229.499 146.139 229.499C146.271 229.499 146.403 229.96 146.403 230.551C146.403 231.406 146.799 231.275 148.052 229.894C148.909 228.973 150.096 228.184 150.689 228.184C151.349 228.184 151.547 227.855 151.283 227.395C151.019 227 151.085 226.869 151.481 227.066C151.876 227.329 152.8 227 153.525 226.343C154.251 225.751 155.767 224.502 156.888 223.647C157.944 222.726 158.669 221.74 158.471 221.411C158.273 221.016 158.339 220.951 158.669 221.148C158.999 221.345 160.054 220.951 160.911 220.227C162.692 218.912 164.275 218.518 163.088 219.701ZM127.938 221.937C127.938 222.134 127.806 222.266 127.608 222.266C127.41 222.266 127.278 222.134 127.278 221.937C127.278 221.74 127.41 221.608 127.608 221.608C127.806 221.608 127.938 221.74 127.938 221.937ZM143.106 224.567C143.106 224.765 142.974 224.896 142.776 224.896C142.578 224.896 142.446 224.765 142.446 224.567C142.446 224.37 142.578 224.239 142.776 224.239C142.974 224.239 143.106 224.37 143.106 224.567ZM137.17 225.225C137.17 225.422 137.038 225.554 136.841 225.554C136.643 225.554 136.511 225.422 136.511 225.225C136.511 225.028 136.643 224.896 136.841 224.896C137.038 224.896 137.17 225.028 137.17 225.225ZM133.873 225.883C133.873 226.08 133.741 226.211 133.543 226.211C133.345 226.211 133.213 226.08 133.213 225.883C133.213 225.685 133.345 225.554 133.543 225.554C133.741 225.554 133.873 225.685 133.873 225.883ZM136.511 227.198C136.511 227.395 136.379 227.527 136.181 227.527C135.983 227.527 135.851 227.395 135.851 227.198C135.851 227 135.983 226.869 136.181 226.869C136.379 226.869 136.511 227 136.511 227.198ZM141.787 233.774C141.787 233.971 141.655 234.102 141.457 234.102C141.259 234.102 141.127 233.971 141.127 233.774C141.127 233.576 141.259 233.445 141.457 233.445C141.655 233.445 141.787 233.576 141.787 233.774ZM139.149 236.404C139.149 236.601 139.017 236.733 138.819 236.733C138.621 236.733 138.489 236.601 138.489 236.404C138.489 236.207 138.621 236.075 138.819 236.075C139.017 236.075 139.149 236.207 139.149 236.404ZM142.644 237.719C141.193 238.837 140.665 238.443 141.787 237.062C142.248 236.536 142.908 236.272 143.237 236.47C143.567 236.667 143.303 237.259 142.644 237.719ZM140.468 239.034C140.468 239.232 140.336 239.363 140.138 239.363C139.94 239.363 139.808 239.232 139.808 239.034C139.808 238.837 139.94 238.706 140.138 238.706C140.336 238.706 140.468 238.837 140.468 239.034ZM139.149 239.692C139.149 239.889 139.017 240.021 138.819 240.021C138.621 240.021 138.489 239.889 138.489 239.692C138.489 239.495 138.621 239.363 138.819 239.363C139.017 239.363 139.149 239.495 139.149 239.692ZM146.799 244.69C146.996 245.018 146.667 245.084 146.139 244.887C145.48 244.624 145.084 244.821 145.084 245.479C145.084 246.005 144.424 246.597 143.633 246.794C142.248 247.123 142.248 247.123 143.303 246.334C144.49 245.413 144.886 244.229 143.765 244.953C143.435 245.15 143.106 245.084 143.106 244.755C143.106 243.966 146.271 243.901 146.799 244.69ZM141.127 244.887C141.127 245.084 140.797 245.413 140.336 245.676C139.874 245.939 139.808 245.873 140.072 245.413C140.534 244.624 141.127 244.361 141.127 244.887ZM142.446 244.953C142.446 245.15 142.314 245.281 142.116 245.281C141.918 245.281 141.787 245.15 141.787 244.953C141.787 244.755 141.918 244.624 142.116 244.624C142.314 244.624 142.446 244.755 142.446 244.953ZM141.787 246.925C141.787 247.123 141.655 247.254 141.457 247.254C141.259 247.254 141.127 247.123 141.127 246.925C141.127 246.728 141.259 246.597 141.457 246.597C141.655 246.597 141.787 246.728 141.787 246.925ZM141.787 249.556C141.787 249.753 141.655 249.885 141.457 249.885C141.259 249.885 141.127 249.753 141.127 249.556C141.127 249.359 141.259 249.227 141.457 249.227C141.655 249.227 141.787 249.359 141.787 249.556ZM142.446 250.871C142.446 251.068 142.314 251.2 142.116 251.2C141.918 251.2 141.787 251.068 141.787 250.871C141.787 250.674 141.918 250.542 142.116 250.542C142.314 250.542 142.446 250.674 142.446 250.871ZM147.722 252.515C147.722 252.844 147.392 253.173 146.996 253.173C146.667 253.173 146.535 252.844 146.733 252.515C146.93 252.12 147.26 251.857 147.458 251.857C147.59 251.857 147.722 252.12 147.722 252.515Z" fill="black"/>
</svg>
