<svg width="23" height="23" viewBox="0 0 23 23" fill="none" xmlns="http://www.w3.org/2000/svg">
<path d="M11.5 22.2012C9.98893 22.2012 8.57096 21.9147 7.24609 21.3418C5.92122 20.776 4.75749 19.9919 3.75488 18.9893C2.75228 17.9867 1.96452 16.8229 1.3916 15.498C0.825846 14.1732 0.542969 12.7552 0.542969 11.2441C0.542969 9.73307 0.825846 8.3151 1.3916 6.99023C1.96452 5.66536 2.75228 4.50163 3.75488 3.49902C4.75749 2.48926 5.92122 1.7015 7.24609 1.13574C8.57096 0.569987 9.98893 0.287109 11.5 0.287109C13.0111 0.287109 14.429 0.569987 15.7539 1.13574C17.0788 1.7015 18.2425 2.48926 19.2451 3.49902C20.2477 4.50163 21.0319 5.66536 21.5977 6.99023C22.1706 8.3151 22.457 9.73307 22.457 11.2441C22.457 12.7552 22.1706 14.1732 21.5977 15.498C21.0319 16.8229 20.2477 17.9867 19.2451 18.9893C18.2425 19.9919 17.0788 20.776 15.7539 21.3418C14.429 21.9147 13.0111 22.2012 11.5 22.2012ZM11.5 20.375C12.7604 20.375 13.9421 20.1387 15.0449 19.666C16.1478 19.1934 17.1182 18.5381 17.9561 17.7002C18.7939 16.8623 19.4492 15.8919 19.9219 14.7891C20.3945 13.6862 20.6309 12.5046 20.6309 11.2441C20.6309 9.98372 20.3945 8.80208 19.9219 7.69922C19.4492 6.58919 18.7939 5.61882 17.9561 4.78809C17.1182 3.9502 16.1478 3.29492 15.0449 2.82227C13.9421 2.34961 12.7604 2.11328 11.5 2.11328C10.2396 2.11328 9.05794 2.34961 7.95508 2.82227C6.85221 3.29492 5.88184 3.9502 5.04395 4.78809C4.20605 5.61882 3.55078 6.58919 3.07812 7.69922C2.60547 8.80208 2.36914 9.98372 2.36914 11.2441C2.36914 12.5046 2.60547 13.6862 3.07812 14.7891C3.55078 15.8919 4.20605 16.8623 5.04395 17.7002C5.88184 18.5381 6.85221 19.1934 7.95508 19.666C9.05794 20.1387 10.2396 20.375 11.5 20.375ZM6.4834 12.791C6.05371 12.791 5.6849 12.6406 5.37695 12.3398C5.07617 12.0319 4.92578 11.6631 4.92578 11.2334C4.92578 10.8037 5.07617 10.4385 5.37695 10.1377C5.6849 9.82975 6.05371 9.67578 6.4834 9.67578C6.90592 9.67578 7.27116 9.82975 7.5791 10.1377C7.88704 10.4385 8.04102 10.8037 8.04102 11.2334C8.04102 11.6631 7.88704 12.0319 7.5791 12.3398C7.27832 12.6406 6.91309 12.791 6.4834 12.791ZM11.4893 12.791C11.0667 12.791 10.7015 12.6406 10.3936 12.3398C10.0928 12.0319 9.94238 11.6631 9.94238 11.2334C9.94238 10.8037 10.0928 10.4385 10.3936 10.1377C10.7015 9.82975 11.0667 9.67578 11.4893 9.67578C11.9189 9.67578 12.2842 9.82975 12.585 10.1377C12.8929 10.4385 13.0469 10.8037 13.0469 11.2334C13.0469 11.6631 12.8929 12.0319 12.585 12.3398C12.2842 12.6406 11.9189 12.791 11.4893 12.791ZM16.5059 12.791C16.0762 12.791 15.7074 12.6406 15.3994 12.3398C15.0986 12.0319 14.9482 11.6631 14.9482 11.2334C14.9482 10.8037 15.0986 10.4385 15.3994 10.1377C15.7074 9.82975 16.0762 9.67578 16.5059 9.67578C16.9355 9.67578 17.3008 9.82975 17.6016 10.1377C17.9095 10.4385 18.0635 10.8037 18.0635 11.2334C18.0635 11.6631 17.9095 12.0319 17.6016 12.3398C17.3008 12.6406 16.9355 12.791 16.5059 12.791Z" fill="#E4AF0A"/>
</svg>
