<svg width="18" height="15" viewBox="0 0 18 15" fill="none" xmlns="http://www.w3.org/2000/svg">
<path fill-rule="evenodd" clip-rule="evenodd" d="M0 4.375C0 1.95875 2.01472 0 4.5 0H13.5C15.9853 0 18 1.95875 18 4.375V10.625C18 13.0412 15.9853 15 13.5 15H4.5C2.01472 15 0 13.0412 0 10.625V4.375ZM6.75 1.875H13.5C14.9202 1.875 16.0714 2.99429 16.0714 4.375V10.625C16.0714 12.0057 14.9202 13.125 13.5 13.125H6.75V1.875ZM4.82143 1.875H4.5C3.07984 1.875 1.92857 2.99429 1.92857 4.375V10.625C1.92857 12.0057 3.07984 13.125 4.5 13.125H4.82143V1.875Z" fill="black"/>
</svg>
