<svg width="911" height="1153" viewBox="0 0 911 1153" fill="none" xmlns="http://www.w3.org/2000/svg">
<path d="M676.4 328.333C759.333 328.333 779.333 329.134 799.333 333.134C851.066 343.534 885.866 372.733 901.066 418.6C911.466 449.933 910.667 424.467 910.667 741C910.667 1006.73 910.533 1024.47 908.266 1036.33C895.733 1102.47 857.867 1139.27 790.667 1150.6C776.667 1152.87 760.667 1153 456.667 1153C202 1153 134.933 1152.6 125.599 1151.27C97.9996 1147.27 72.5328 1137.8 54.7996 1125.13C44.5329 1117.8 29.4661 1101.8 23.5994 1091.93C12.6661 1073.67 6.13346 1053.4 2.66679 1027.27C-0.266531 1004.6 -0.266538 477.4 2.66679 454.733C7.33346 418.6 18 393.4 37.2 372.733C57.6 350.867 85.6002 337.133 120.667 331.8C140.933 328.733 138.934 328.866 232.266 328.6L317.867 328.333L318.667 410.867L230.667 411.4C133.867 411.934 137.6 411.533 119.733 420.333C103.867 428.2 92.6669 442.467 86.4002 462.467C84.1335 469.933 83.9998 482.2 83.9998 741C83.9998 999.799 84.1336 1012.07 86.4002 1019.53C94.4002 1045.13 110.133 1060.73 135.333 1067.93C143.599 1070.2 157.466 1070.33 455.333 1070.33C747.064 1070.33 767.199 1070.2 775.066 1068.07C803.333 1060.2 821.067 1041.4 826.667 1013.4C828.4 1004.33 828.667 971.4 828.667 741C828.667 452.868 829.067 468.2 820.667 449.934C813.067 433.667 796.266 420.2 776 414.2C768.8 412.067 759.467 411.8 680.4 411.4L592.667 410.867V328.333H676.4ZM432.8 7.93361C444.533 -0.733053 458.933 -2.06645 472 4.20022C478.8 7.53361 493.334 20.8673 568.4 93.4004C617.067 140.2 658.134 180.6 659.867 183.134C667.067 193.934 668.266 208.733 662.533 220.066C656.133 232.866 645.067 239.267 629.2 239.267C612.667 239.267 612.933 239.534 560.266 183.134C534.4 155.534 508.933 128.467 503.599 123L494 113L494.933 141.667C495.6 157.402 496 294.468 496 446.333V722.333L493.066 727.8C489.2 735.133 480.4 743.533 472.933 747.267C463.467 751.933 448 751.666 437.733 746.6C429.6 742.6 423.733 736.734 419.066 727.934L416 722.333V445.667C416 293.534 416.4 156.333 416.933 141L418 113L405.867 125.667C399.2 132.6 373.867 159.534 349.467 185.4C299.2 238.867 298.533 239.534 281.467 239.4C266.533 239.267 255.066 232.466 248.266 219.8C243.733 211.266 244.133 196.466 249.066 187.533C251.866 182.6 275.333 159 340.266 96.2002C388.398 49.6683 429.997 10.0691 432.8 7.93361Z" fill="#E3AF02"/>
</svg>
